%TF.GenerationSoftware,KiCad,Pcbnew,6.0.11+dfsg-1*%
%TF.CreationDate,2023-11-18T19:22:11+05:30*%
%TF.ProjectId,c3rl-at-cr-beta-2,6333726c-2d61-4742-9d63-722d62657461,rev?*%
%TF.SameCoordinates,Original*%
%TF.FileFunction,Soldermask,Bot*%
%TF.FilePolarity,Negative*%
%FSLAX46Y46*%
G04 Gerber Fmt 4.6, Leading zero omitted, Abs format (unit mm)*
G04 Created by KiCad (PCBNEW 6.0.11+dfsg-1) date 2023-11-18 19:22:11*
%MOMM*%
%LPD*%
G01*
G04 APERTURE LIST*
G04 Aperture macros list*
%AMRoundRect*
0 Rectangle with rounded corners*
0 $1 Rounding radius*
0 $2 $3 $4 $5 $6 $7 $8 $9 X,Y pos of 4 corners*
0 Add a 4 corners polygon primitive as box body*
4,1,4,$2,$3,$4,$5,$6,$7,$8,$9,$2,$3,0*
0 Add four circle primitives for the rounded corners*
1,1,$1+$1,$2,$3*
1,1,$1+$1,$4,$5*
1,1,$1+$1,$6,$7*
1,1,$1+$1,$8,$9*
0 Add four rect primitives between the rounded corners*
20,1,$1+$1,$2,$3,$4,$5,0*
20,1,$1+$1,$4,$5,$6,$7,0*
20,1,$1+$1,$6,$7,$8,$9,0*
20,1,$1+$1,$8,$9,$2,$3,0*%
%AMFreePoly0*
4,1,22,0.145671,0.855970,0.226777,0.801777,0.626777,0.401777,0.680970,0.320671,0.700000,0.225000,0.700000,-0.625000,0.680970,-0.720671,0.626777,-0.801777,0.545671,-0.855970,0.450000,-0.875000,-0.450000,-0.875000,-0.545671,-0.855970,-0.626777,-0.801777,-0.680970,-0.720671,-0.700000,-0.625000,-0.700000,0.625000,-0.680970,0.720671,-0.626777,0.801777,-0.545671,0.855970,-0.450000,0.875000,
0.050000,0.875000,0.145671,0.855970,0.145671,0.855970,$1*%
G04 Aperture macros list end*
%ADD10FreePoly0,270.000000*%
%ADD11O,1.750000X1.400000*%
%ADD12C,4.700000*%
%ADD13FreePoly0,180.000000*%
%ADD14O,1.400000X1.750000*%
%ADD15C,0.650000*%
%ADD16O,2.100000X1.050000*%
%ADD17O,2.000000X1.000000*%
%ADD18R,1.000000X1.000000*%
%ADD19O,1.000000X1.000000*%
%ADD20C,1.200000*%
%ADD21RoundRect,0.250000X-0.600000X-0.750000X0.600000X-0.750000X0.600000X0.750000X-0.600000X0.750000X0*%
%ADD22O,1.700000X2.000000*%
%ADD23RoundRect,0.140000X-0.140000X-0.170000X0.140000X-0.170000X0.140000X0.170000X-0.140000X0.170000X0*%
%ADD24RoundRect,0.140000X-0.170000X0.140000X-0.170000X-0.140000X0.170000X-0.140000X0.170000X0.140000X0*%
%ADD25RoundRect,0.140000X0.140000X0.170000X-0.140000X0.170000X-0.140000X-0.170000X0.140000X-0.170000X0*%
%ADD26RoundRect,0.135000X0.185000X-0.135000X0.185000X0.135000X-0.185000X0.135000X-0.185000X-0.135000X0*%
%ADD27R,0.900000X1.200000*%
%ADD28R,1.300000X1.800000*%
%ADD29RoundRect,0.135000X0.135000X0.185000X-0.135000X0.185000X-0.135000X-0.185000X0.135000X-0.185000X0*%
%ADD30RoundRect,0.135000X-0.185000X0.135000X-0.185000X-0.135000X0.185000X-0.135000X0.185000X0.135000X0*%
G04 APERTURE END LIST*
D10*
%TO.C,J5*%
X95550000Y-92100000D03*
D11*
X97550000Y-93600000D03*
X95550000Y-95100000D03*
X97550000Y-96600000D03*
%TD*%
D12*
%TO.C,REF\u002A\u002A*%
X54250000Y-125500000D03*
%TD*%
D13*
%TO.C,J10*%
X85050000Y-122725000D03*
D14*
X83550000Y-124725000D03*
X82050000Y-122725000D03*
X80550000Y-124725000D03*
%TD*%
D12*
%TO.C,REF\u002A\u002A*%
X97750000Y-85000000D03*
%TD*%
D15*
%TO.C,J1*%
X57515000Y-114947500D03*
X57515000Y-120727500D03*
D16*
X58015000Y-113517500D03*
D17*
X53835000Y-113517500D03*
X53835000Y-122157500D03*
D16*
X58015000Y-122157500D03*
%TD*%
D13*
%TO.C,J9*%
X98300000Y-122725000D03*
D14*
X96800000Y-124725000D03*
X95300000Y-122725000D03*
X93800000Y-124725000D03*
X92300000Y-122725000D03*
X90800000Y-124725000D03*
%TD*%
D18*
%TO.C,J11*%
X98000000Y-101250000D03*
D19*
X98000000Y-102520000D03*
X98000000Y-103790000D03*
X98000000Y-105060000D03*
%TD*%
D20*
%TO.C,J12*%
X52700000Y-110750000D03*
D21*
X54300000Y-108750000D03*
D22*
X56800000Y-108750000D03*
%TD*%
D23*
%TO.C,C41*%
X69020000Y-90000000D03*
X69980000Y-90000000D03*
%TD*%
D24*
%TO.C,C40*%
X75250000Y-90020000D03*
X75250000Y-90980000D03*
%TD*%
D25*
%TO.C,C36*%
X68960000Y-91000000D03*
X68000000Y-91000000D03*
%TD*%
D26*
%TO.C,R59*%
X72000000Y-91010000D03*
X72000000Y-89990000D03*
%TD*%
D24*
%TO.C,C37*%
X71000000Y-90020000D03*
X71000000Y-90980000D03*
%TD*%
D27*
%TO.C,J7*%
X68825000Y-88050000D03*
X71365000Y-88050000D03*
X73905000Y-88050000D03*
X70095000Y-88050000D03*
X72635000Y-88050000D03*
X75175000Y-88050000D03*
D28*
X65850000Y-83950000D03*
X78150000Y-83950000D03*
X78150000Y-75150000D03*
X65850000Y-75150000D03*
%TD*%
D26*
%TO.C,R58*%
X74000000Y-91010000D03*
X74000000Y-89990000D03*
%TD*%
D24*
%TO.C,C39*%
X73000000Y-90020000D03*
X73000000Y-90980000D03*
%TD*%
D29*
%TO.C,R40*%
X58910000Y-112100000D03*
X57890000Y-112100000D03*
%TD*%
D30*
%TO.C,R53*%
X76500000Y-89990000D03*
X76500000Y-91010000D03*
%TD*%
M02*
