%TF.GenerationSoftware,KiCad,Pcbnew,6.0.11+dfsg-1*%
%TF.CreationDate,2023-11-18T19:22:11+05:30*%
%TF.ProjectId,c3rl-at-cr-beta-2,6333726c-2d61-4742-9d63-722d62657461,rev?*%
%TF.SameCoordinates,Original*%
%TF.FileFunction,Soldermask,Top*%
%TF.FilePolarity,Negative*%
%FSLAX46Y46*%
G04 Gerber Fmt 4.6, Leading zero omitted, Abs format (unit mm)*
G04 Created by KiCad (PCBNEW 6.0.11+dfsg-1) date 2023-11-18 19:22:11*
%MOMM*%
%LPD*%
G01*
G04 APERTURE LIST*
G04 Aperture macros list*
%AMRoundRect*
0 Rectangle with rounded corners*
0 $1 Rounding radius*
0 $2 $3 $4 $5 $6 $7 $8 $9 X,Y pos of 4 corners*
0 Add a 4 corners polygon primitive as box body*
4,1,4,$2,$3,$4,$5,$6,$7,$8,$9,$2,$3,0*
0 Add four circle primitives for the rounded corners*
1,1,$1+$1,$2,$3*
1,1,$1+$1,$4,$5*
1,1,$1+$1,$6,$7*
1,1,$1+$1,$8,$9*
0 Add four rect primitives between the rounded corners*
20,1,$1+$1,$2,$3,$4,$5,0*
20,1,$1+$1,$4,$5,$6,$7,0*
20,1,$1+$1,$6,$7,$8,$9,0*
20,1,$1+$1,$8,$9,$2,$3,0*%
%AMFreePoly0*
4,1,22,0.145671,0.855970,0.226777,0.801777,0.626777,0.401777,0.680970,0.320671,0.700000,0.225000,0.700000,-0.625000,0.680970,-0.720671,0.626777,-0.801777,0.545671,-0.855970,0.450000,-0.875000,-0.450000,-0.875000,-0.545671,-0.855970,-0.626777,-0.801777,-0.680970,-0.720671,-0.700000,-0.625000,-0.700000,0.625000,-0.680970,0.720671,-0.626777,0.801777,-0.545671,0.855970,-0.450000,0.875000,
0.050000,0.875000,0.145671,0.855970,0.145671,0.855970,$1*%
G04 Aperture macros list end*
%ADD10C,0.010000*%
%ADD11RoundRect,0.135000X-0.185000X0.135000X-0.185000X-0.135000X0.185000X-0.135000X0.185000X0.135000X0*%
%ADD12R,0.406400X0.812800*%
%ADD13R,2.489200X1.600200*%
%ADD14RoundRect,0.140000X-0.170000X0.140000X-0.170000X-0.140000X0.170000X-0.140000X0.170000X0.140000X0*%
%ADD15RoundRect,0.135000X0.135000X0.185000X-0.135000X0.185000X-0.135000X-0.185000X0.135000X-0.185000X0*%
%ADD16R,1.000000X2.000000*%
%ADD17RoundRect,0.150000X0.587500X0.150000X-0.587500X0.150000X-0.587500X-0.150000X0.587500X-0.150000X0*%
%ADD18RoundRect,0.135000X-0.135000X-0.185000X0.135000X-0.185000X0.135000X0.185000X-0.135000X0.185000X0*%
%ADD19RoundRect,0.225000X0.225000X0.250000X-0.225000X0.250000X-0.225000X-0.250000X0.225000X-0.250000X0*%
%ADD20FreePoly0,270.000000*%
%ADD21O,1.750000X1.400000*%
%ADD22RoundRect,0.225000X0.250000X-0.225000X0.250000X0.225000X-0.250000X0.225000X-0.250000X-0.225000X0*%
%ADD23RoundRect,0.150000X-0.512500X-0.150000X0.512500X-0.150000X0.512500X0.150000X-0.512500X0.150000X0*%
%ADD24RoundRect,0.140000X0.170000X-0.140000X0.170000X0.140000X-0.170000X0.140000X-0.170000X-0.140000X0*%
%ADD25RoundRect,0.140000X-0.140000X-0.170000X0.140000X-0.170000X0.140000X0.170000X-0.140000X0.170000X0*%
%ADD26RoundRect,0.218750X0.256250X-0.218750X0.256250X0.218750X-0.256250X0.218750X-0.256250X-0.218750X0*%
%ADD27RoundRect,0.225000X-0.225000X-0.250000X0.225000X-0.250000X0.225000X0.250000X-0.225000X0.250000X0*%
%ADD28RoundRect,0.140000X0.140000X0.170000X-0.140000X0.170000X-0.140000X-0.170000X0.140000X-0.170000X0*%
%ADD29R,0.700000X0.600000*%
%ADD30R,3.020000X1.340000*%
%ADD31RoundRect,0.150000X-0.150000X0.587500X-0.150000X-0.587500X0.150000X-0.587500X0.150000X0.587500X0*%
%ADD32RoundRect,0.025600X0.134400X-0.594400X0.134400X0.594400X-0.134400X0.594400X-0.134400X-0.594400X0*%
%ADD33R,2.200000X1.200000*%
%ADD34RoundRect,0.135000X0.185000X-0.135000X0.185000X0.135000X-0.185000X0.135000X-0.185000X-0.135000X0*%
%ADD35C,4.700000*%
%ADD36FreePoly0,180.000000*%
%ADD37O,1.400000X1.750000*%
%ADD38R,1.100000X2.250000*%
%ADD39R,1.050000X1.100000*%
%ADD40RoundRect,0.147500X-0.172500X0.147500X-0.172500X-0.147500X0.172500X-0.147500X0.172500X0.147500X0*%
%ADD41R,0.350000X0.800000*%
%ADD42R,0.600000X0.260000*%
%ADD43C,0.650000*%
%ADD44R,1.150000X0.600000*%
%ADD45R,1.150000X0.300000*%
%ADD46O,2.100000X1.050000*%
%ADD47O,2.000000X1.000000*%
%ADD48RoundRect,0.250000X-0.475000X0.250000X-0.475000X-0.250000X0.475000X-0.250000X0.475000X0.250000X0*%
%ADD49RoundRect,0.140000X0.021213X-0.219203X0.219203X-0.021213X-0.021213X0.219203X-0.219203X0.021213X0*%
%ADD50R,0.200000X0.850000*%
%ADD51R,0.850000X0.200000*%
%ADD52R,3.200000X3.200000*%
%ADD53RoundRect,0.228000X-0.587000X0.342000X-0.587000X-0.342000X0.587000X-0.342000X0.587000X0.342000X0*%
%ADD54RoundRect,0.150000X0.650000X0.150000X-0.650000X0.150000X-0.650000X-0.150000X0.650000X-0.150000X0*%
%ADD55R,1.000000X1.000000*%
%ADD56R,0.980000X1.100000*%
%ADD57O,1.800000X0.800000*%
%ADD58RoundRect,0.225000X-0.250000X0.225000X-0.250000X-0.225000X0.250000X-0.225000X0.250000X0.225000X0*%
%ADD59R,0.300000X0.750000*%
%ADD60R,1.500000X1.300000*%
%ADD61R,0.900000X0.300000*%
%ADD62R,0.250000X1.650000*%
%ADD63RoundRect,0.147500X0.147500X0.172500X-0.147500X0.172500X-0.147500X-0.172500X0.147500X-0.172500X0*%
%ADD64RoundRect,0.147500X-0.226274X-0.017678X-0.017678X-0.226274X0.226274X0.017678X0.017678X0.226274X0*%
%ADD65RoundRect,0.150000X0.150000X-0.587500X0.150000X0.587500X-0.150000X0.587500X-0.150000X-0.587500X0*%
%ADD66O,2.500000X0.700000*%
%ADD67O,0.700000X2.500000*%
%ADD68R,2.250000X1.100000*%
%ADD69R,1.100000X1.050000*%
%ADD70R,0.590000X1.340000*%
%ADD71O,1.000000X1.000000*%
%ADD72R,1.340000X0.590000*%
%ADD73R,1.200000X2.200000*%
%ADD74R,1.550000X0.600000*%
%ADD75R,1.800000X1.200000*%
%ADD76C,1.200000*%
%ADD77RoundRect,0.250000X-0.600000X-0.750000X0.600000X-0.750000X0.600000X0.750000X-0.600000X0.750000X0*%
%ADD78O,1.700000X2.000000*%
%ADD79RoundRect,0.150000X-0.150000X0.512500X-0.150000X-0.512500X0.150000X-0.512500X0.150000X0.512500X0*%
G04 APERTURE END LIST*
%TO.C,U3*%
G36*
X90775000Y-84762500D02*
G01*
X90325000Y-84762500D01*
X90325000Y-84052500D01*
X90775000Y-84052500D01*
X90775000Y-84762500D01*
G37*
D10*
X90775000Y-84762500D02*
X90325000Y-84762500D01*
X90325000Y-84052500D01*
X90775000Y-84052500D01*
X90775000Y-84762500D01*
G36*
X91940000Y-86422500D02*
G01*
X91490000Y-86422500D01*
X91490000Y-85712500D01*
X91940000Y-85712500D01*
X91940000Y-86422500D01*
G37*
X91940000Y-86422500D02*
X91490000Y-86422500D01*
X91490000Y-85712500D01*
X91940000Y-85712500D01*
X91940000Y-86422500D01*
G36*
X90110000Y-86422500D02*
G01*
X89660000Y-86422500D01*
X89660000Y-85712500D01*
X90110000Y-85712500D01*
X90110000Y-86422500D01*
G37*
X90110000Y-86422500D02*
X89660000Y-86422500D01*
X89660000Y-85712500D01*
X90110000Y-85712500D01*
X90110000Y-86422500D01*
G36*
X90110000Y-85422500D02*
G01*
X89660000Y-85422500D01*
X89660000Y-84712500D01*
X90110000Y-84712500D01*
X90110000Y-85422500D01*
G37*
X90110000Y-85422500D02*
X89660000Y-85422500D01*
X89660000Y-84712500D01*
X90110000Y-84712500D01*
X90110000Y-85422500D01*
G36*
X91940000Y-85422500D02*
G01*
X91490000Y-85422500D01*
X91490000Y-84712500D01*
X91940000Y-84712500D01*
X91940000Y-85422500D01*
G37*
X91940000Y-85422500D02*
X91490000Y-85422500D01*
X91490000Y-84712500D01*
X91940000Y-84712500D01*
X91940000Y-85422500D01*
G36*
X91275000Y-87082500D02*
G01*
X90825000Y-87082500D01*
X90825000Y-86372500D01*
X91275000Y-86372500D01*
X91275000Y-87082500D01*
G37*
X91275000Y-87082500D02*
X90825000Y-87082500D01*
X90825000Y-86372500D01*
X91275000Y-86372500D01*
X91275000Y-87082500D01*
G36*
X90110000Y-85922500D02*
G01*
X89660000Y-85922500D01*
X89660000Y-85212500D01*
X90110000Y-85212500D01*
X90110000Y-85922500D01*
G37*
X90110000Y-85922500D02*
X89660000Y-85922500D01*
X89660000Y-85212500D01*
X90110000Y-85212500D01*
X90110000Y-85922500D01*
G36*
X90775000Y-87082500D02*
G01*
X90325000Y-87082500D01*
X90325000Y-86372500D01*
X90775000Y-86372500D01*
X90775000Y-87082500D01*
G37*
X90775000Y-87082500D02*
X90325000Y-87082500D01*
X90325000Y-86372500D01*
X90775000Y-86372500D01*
X90775000Y-87082500D01*
G36*
X91775000Y-87082500D02*
G01*
X91325000Y-87082500D01*
X91325000Y-86372500D01*
X91775000Y-86372500D01*
X91775000Y-87082500D01*
G37*
X91775000Y-87082500D02*
X91325000Y-87082500D01*
X91325000Y-86372500D01*
X91775000Y-86372500D01*
X91775000Y-87082500D01*
G36*
X91275000Y-84762500D02*
G01*
X90825000Y-84762500D01*
X90825000Y-84052500D01*
X91275000Y-84052500D01*
X91275000Y-84762500D01*
G37*
X91275000Y-84762500D02*
X90825000Y-84762500D01*
X90825000Y-84052500D01*
X91275000Y-84052500D01*
X91275000Y-84762500D01*
G36*
X91775000Y-84762500D02*
G01*
X91325000Y-84762500D01*
X91325000Y-84052500D01*
X91775000Y-84052500D01*
X91775000Y-84762500D01*
G37*
X91775000Y-84762500D02*
X91325000Y-84762500D01*
X91325000Y-84052500D01*
X91775000Y-84052500D01*
X91775000Y-84762500D01*
G36*
X90275000Y-84762500D02*
G01*
X89825000Y-84762500D01*
X89825000Y-84052500D01*
X90275000Y-84052500D01*
X90275000Y-84762500D01*
G37*
X90275000Y-84762500D02*
X89825000Y-84762500D01*
X89825000Y-84052500D01*
X90275000Y-84052500D01*
X90275000Y-84762500D01*
G36*
X90275000Y-87082500D02*
G01*
X89825000Y-87082500D01*
X89825000Y-86372500D01*
X90275000Y-86372500D01*
X90275000Y-87082500D01*
G37*
X90275000Y-87082500D02*
X89825000Y-87082500D01*
X89825000Y-86372500D01*
X90275000Y-86372500D01*
X90275000Y-87082500D01*
G36*
X91940000Y-85922500D02*
G01*
X91490000Y-85922500D01*
X91490000Y-85212500D01*
X91940000Y-85212500D01*
X91940000Y-85922500D01*
G37*
X91940000Y-85922500D02*
X91490000Y-85922500D01*
X91490000Y-85212500D01*
X91940000Y-85212500D01*
X91940000Y-85922500D01*
%TD*%
D11*
%TO.C,R1*%
X94500000Y-117240000D03*
X94500000Y-118260000D03*
%TD*%
D12*
%TO.C,U2*%
X96749999Y-78447800D03*
X97750000Y-78447800D03*
X98750001Y-78447800D03*
X98750001Y-75552200D03*
X97750000Y-75552200D03*
X96749999Y-75552200D03*
D13*
X97750000Y-77000000D03*
%TD*%
D14*
%TO.C,C16*%
X86100000Y-117320000D03*
X86100000Y-118280000D03*
%TD*%
D15*
%TO.C,R30*%
X67820000Y-114800000D03*
X66800000Y-114800000D03*
%TD*%
%TO.C,R27*%
X80810000Y-99000497D03*
X79790000Y-99000497D03*
%TD*%
D16*
%TO.C,SW2*%
X94300000Y-101400000D03*
X89900000Y-101400000D03*
%TD*%
D17*
%TO.C,Q11*%
X80187500Y-91950000D03*
X80187500Y-90050000D03*
X78312500Y-91000000D03*
%TD*%
D15*
%TO.C,R45*%
X93820000Y-93600000D03*
X92800000Y-93600000D03*
%TD*%
D18*
%TO.C,R61*%
X78365000Y-86750000D03*
X79385000Y-86750000D03*
%TD*%
D19*
%TO.C,C42*%
X86625000Y-120650000D03*
X85075000Y-120650000D03*
%TD*%
D20*
%TO.C,J5*%
X95550000Y-92100000D03*
D21*
X97550000Y-93600000D03*
X95550000Y-95100000D03*
X97550000Y-96600000D03*
%TD*%
D15*
%TO.C,R25*%
X80820000Y-100000497D03*
X79800000Y-100000497D03*
%TD*%
D22*
%TO.C,C21*%
X62000000Y-122375000D03*
X62000000Y-120825000D03*
%TD*%
D18*
%TO.C,R48*%
X64380000Y-126900000D03*
X65400000Y-126900000D03*
%TD*%
D23*
%TO.C,U9*%
X81262500Y-76200000D03*
X81262500Y-77150000D03*
X81262500Y-78100000D03*
X83537500Y-78100000D03*
X83537500Y-76200000D03*
%TD*%
D24*
%TO.C,C46*%
X78300000Y-77130000D03*
X78300000Y-76170000D03*
%TD*%
D18*
%TO.C,R17*%
X67140000Y-112800000D03*
X68160000Y-112800000D03*
%TD*%
D25*
%TO.C,C20*%
X96100000Y-109600000D03*
X97060000Y-109600000D03*
%TD*%
D26*
%TO.C,D3*%
X67500000Y-127387500D03*
X67500000Y-125812500D03*
%TD*%
D24*
%TO.C,C27*%
X60200000Y-78180000D03*
X60200000Y-77220000D03*
%TD*%
D11*
%TO.C,R72*%
X81800000Y-103990000D03*
X81800000Y-105010000D03*
%TD*%
D24*
%TO.C,C2*%
X90450000Y-77235000D03*
X90450000Y-76275000D03*
%TD*%
D27*
%TO.C,C48*%
X85350000Y-87072500D03*
X86900000Y-87072500D03*
%TD*%
D11*
%TO.C,R15*%
X62900000Y-123590000D03*
X62900000Y-124610000D03*
%TD*%
%TO.C,R52*%
X70300000Y-123490000D03*
X70300000Y-124510000D03*
%TD*%
D28*
%TO.C,C25*%
X53752350Y-101095000D03*
X52792350Y-101095000D03*
%TD*%
D15*
%TO.C,R47*%
X73410000Y-124500000D03*
X72390000Y-124500000D03*
%TD*%
%TO.C,R42*%
X58210000Y-123700000D03*
X57190000Y-123700000D03*
%TD*%
D29*
%TO.C,D5*%
X73600000Y-119000000D03*
X73600000Y-117600000D03*
%TD*%
D30*
%TO.C,C24*%
X71000000Y-107710000D03*
X71000000Y-110790000D03*
%TD*%
D31*
%TO.C,Q4*%
X76700000Y-125312500D03*
X74800000Y-125312500D03*
X75750000Y-127187500D03*
%TD*%
D25*
%TO.C,C17*%
X90270000Y-115750000D03*
X91230000Y-115750000D03*
%TD*%
D15*
%TO.C,R32*%
X80810000Y-97000000D03*
X79790000Y-97000000D03*
%TD*%
D32*
%TO.C,U1*%
X87900000Y-76300000D03*
X88550000Y-76300000D03*
X89200000Y-76300000D03*
X89200000Y-74810000D03*
X88550000Y-74810000D03*
X87900000Y-74810000D03*
%TD*%
D28*
%TO.C,C14*%
X83230000Y-111000000D03*
X82270000Y-111000000D03*
%TD*%
D11*
%TO.C,R51*%
X81750000Y-91035000D03*
X81750000Y-92055000D03*
%TD*%
D33*
%TO.C,L1*%
X65300000Y-109800000D03*
X65300000Y-107600000D03*
%TD*%
D15*
%TO.C,R69*%
X80835000Y-101000000D03*
X79815000Y-101000000D03*
%TD*%
D34*
%TO.C,R49*%
X59190000Y-76270000D03*
X59190000Y-75250000D03*
%TD*%
D11*
%TO.C,R50*%
X71300000Y-123490000D03*
X71300000Y-124510000D03*
%TD*%
D24*
%TO.C,C52*%
X77300000Y-79380000D03*
X77300000Y-78420000D03*
%TD*%
D35*
%TO.C,REF\u002A\u002A*%
X54250000Y-125500000D03*
%TD*%
D34*
%TO.C,R73*%
X81750000Y-90055000D03*
X81750000Y-89035000D03*
%TD*%
D31*
%TO.C,Q5*%
X59700000Y-125312500D03*
X57800000Y-125312500D03*
X58750000Y-127187500D03*
%TD*%
%TO.C,Q1*%
X79450000Y-103562500D03*
X77550000Y-103562500D03*
X78500000Y-105437500D03*
%TD*%
D15*
%TO.C,R36*%
X80815000Y-97995994D03*
X79795000Y-97995994D03*
%TD*%
D18*
%TO.C,R65*%
X77290000Y-81700000D03*
X78310000Y-81700000D03*
%TD*%
D28*
%TO.C,C47*%
X86900000Y-85772500D03*
X85940000Y-85772500D03*
%TD*%
D36*
%TO.C,J10*%
X85050000Y-122725000D03*
D37*
X83550000Y-124725000D03*
X82050000Y-122725000D03*
X80550000Y-124725000D03*
%TD*%
D34*
%TO.C,R34*%
X90750000Y-97510000D03*
X90750000Y-96490000D03*
%TD*%
D38*
%TO.C,J2*%
X52275000Y-95250000D03*
X55225000Y-95250000D03*
D39*
X53750000Y-96800000D03*
%TD*%
D15*
%TO.C,R33*%
X78250000Y-97000000D03*
X77230000Y-97000000D03*
%TD*%
D11*
%TO.C,R35*%
X59190000Y-77220000D03*
X59190000Y-78240000D03*
%TD*%
D34*
%TO.C,R54*%
X79400000Y-88760000D03*
X79400000Y-87740000D03*
%TD*%
D40*
%TO.C,L2*%
X53752350Y-99150000D03*
X53752350Y-100120000D03*
%TD*%
D35*
%TO.C,REF\u002A\u002A*%
X97750000Y-85000000D03*
%TD*%
D19*
%TO.C,C19*%
X99875000Y-120750000D03*
X98325000Y-120750000D03*
%TD*%
D41*
%TO.C,ANT1*%
X56125000Y-75250000D03*
X57375000Y-75250000D03*
D42*
X56750000Y-75015000D03*
X56750000Y-75485000D03*
%TD*%
D11*
%TO.C,R7*%
X90800000Y-119215000D03*
X90800000Y-120235000D03*
%TD*%
D15*
%TO.C,R70*%
X78260000Y-101000000D03*
X77240000Y-101000000D03*
%TD*%
D28*
%TO.C,C8*%
X83250000Y-107000000D03*
X82290000Y-107000000D03*
%TD*%
D15*
%TO.C,R39*%
X62310000Y-119575000D03*
X61290000Y-119575000D03*
%TD*%
D43*
%TO.C,J1*%
X57515000Y-114947500D03*
X57515000Y-120727500D03*
D44*
X58590000Y-114637500D03*
X58590000Y-115437500D03*
D45*
X58590000Y-116587500D03*
X58590000Y-117587500D03*
X58590000Y-118087500D03*
X58590000Y-119087500D03*
D44*
X58590000Y-121037500D03*
X58590000Y-120237500D03*
D45*
X58590000Y-119587500D03*
X58590000Y-118587500D03*
X58590000Y-117087500D03*
X58590000Y-116087500D03*
D46*
X58015000Y-113517500D03*
D47*
X53835000Y-113517500D03*
X53835000Y-122157500D03*
D46*
X58015000Y-122157500D03*
%TD*%
D34*
%TO.C,R64*%
X100250000Y-88510000D03*
X100250000Y-87490000D03*
%TD*%
D22*
%TO.C,C32*%
X68750000Y-123675000D03*
X68750000Y-122125000D03*
%TD*%
D48*
%TO.C,C23*%
X73950000Y-107850000D03*
X73950000Y-109750000D03*
%TD*%
D18*
%TO.C,R62*%
X81090000Y-86750000D03*
X82110000Y-86750000D03*
%TD*%
D24*
%TO.C,C12*%
X92950000Y-87047500D03*
X92950000Y-86087500D03*
%TD*%
D11*
%TO.C,R6*%
X89800000Y-119215000D03*
X89800000Y-120235000D03*
%TD*%
D25*
%TO.C,C4*%
X96120000Y-108600000D03*
X97080000Y-108600000D03*
%TD*%
D15*
%TO.C,R57*%
X97110000Y-107400000D03*
X96090000Y-107400000D03*
%TD*%
%TO.C,R68*%
X78250000Y-102000000D03*
X77230000Y-102000000D03*
%TD*%
D11*
%TO.C,R16*%
X80750000Y-105000000D03*
X80750000Y-106020000D03*
%TD*%
D34*
%TO.C,R11*%
X80750000Y-104030000D03*
X80750000Y-103010000D03*
%TD*%
D49*
%TO.C,C26*%
X55507071Y-92614716D03*
X56185893Y-91935894D03*
%TD*%
D11*
%TO.C,R60*%
X78400000Y-87740000D03*
X78400000Y-88760000D03*
%TD*%
%TO.C,R20*%
X81750000Y-94980000D03*
X81750000Y-96000000D03*
%TD*%
D18*
%TO.C,R9*%
X82240000Y-110000000D03*
X83260000Y-110000000D03*
%TD*%
D26*
%TO.C,D2*%
X73070000Y-127437500D03*
X73070000Y-125862500D03*
%TD*%
D50*
%TO.C,IC1*%
X86750000Y-114250000D03*
X87150000Y-114250000D03*
X87550000Y-114250000D03*
X87950000Y-114250000D03*
X88350000Y-114250000D03*
X88750000Y-114250000D03*
X89150000Y-114250000D03*
X89550000Y-114250000D03*
X89950000Y-114250000D03*
X90350000Y-114250000D03*
X90750000Y-114250000D03*
X91150000Y-114250000D03*
X91550000Y-114250000D03*
X91950000Y-114250000D03*
D51*
X92800000Y-113400000D03*
X92800000Y-113000000D03*
X92800000Y-112600000D03*
X92800000Y-112200000D03*
X92800000Y-111800000D03*
X92800000Y-111400000D03*
X92800000Y-111000000D03*
X92800000Y-110600000D03*
X92800000Y-110200000D03*
X92800000Y-109800000D03*
X92800000Y-109400000D03*
X92800000Y-109000000D03*
X92800000Y-108600000D03*
X92800000Y-108200000D03*
D50*
X91950000Y-107350000D03*
X91550000Y-107350000D03*
X91150000Y-107350000D03*
X90750000Y-107350000D03*
X90350000Y-107350000D03*
X89950000Y-107350000D03*
X89550000Y-107350000D03*
X89150000Y-107350000D03*
X88750000Y-107350000D03*
X88350000Y-107350000D03*
X87950000Y-107350000D03*
X87550000Y-107350000D03*
X87150000Y-107350000D03*
X86750000Y-107350000D03*
D51*
X85900000Y-108200000D03*
X85900000Y-108600000D03*
X85900000Y-109000000D03*
X85900000Y-109400000D03*
X85900000Y-109800000D03*
X85900000Y-110200000D03*
X85900000Y-110600000D03*
X85900000Y-111000000D03*
X85900000Y-111400000D03*
X85900000Y-111800000D03*
X85900000Y-112200000D03*
X85900000Y-112600000D03*
X85900000Y-113000000D03*
X85900000Y-113400000D03*
D52*
X89350000Y-110800000D03*
%TD*%
D22*
%TO.C,C38*%
X70500000Y-119025000D03*
X70500000Y-117475000D03*
%TD*%
D18*
%TO.C,R29*%
X61290000Y-116000000D03*
X62310000Y-116000000D03*
%TD*%
D34*
%TO.C,R21*%
X81750000Y-94000000D03*
X81750000Y-92980000D03*
%TD*%
D17*
%TO.C,Q2*%
X80187500Y-95450000D03*
X80187500Y-93550000D03*
X78312500Y-94500000D03*
%TD*%
D15*
%TO.C,R13*%
X75380000Y-122450000D03*
X74360000Y-122450000D03*
%TD*%
%TO.C,R28*%
X78260000Y-99000497D03*
X77240000Y-99000497D03*
%TD*%
D24*
%TO.C,C9*%
X92950000Y-85042500D03*
X92950000Y-84082500D03*
%TD*%
D15*
%TO.C,R26*%
X78260000Y-100000497D03*
X77240000Y-100000497D03*
%TD*%
D53*
%TO.C,D1*%
X76250000Y-110890000D03*
X76250000Y-107610000D03*
%TD*%
D15*
%TO.C,R63*%
X98760000Y-79750000D03*
X97740000Y-79750000D03*
%TD*%
D26*
%TO.C,D4*%
X71220000Y-127437500D03*
X71220000Y-125862500D03*
%TD*%
D54*
%TO.C,U7*%
X82950000Y-120405000D03*
X82950000Y-119135000D03*
X82950000Y-117865000D03*
X82950000Y-116595000D03*
X75750000Y-116595000D03*
X75750000Y-117865000D03*
X75750000Y-119135000D03*
X75750000Y-120405000D03*
%TD*%
D11*
%TO.C,R4*%
X88100000Y-117240000D03*
X88100000Y-118260000D03*
%TD*%
D18*
%TO.C,R12*%
X89780000Y-83200000D03*
X90800000Y-83200000D03*
%TD*%
D55*
%TO.C,TP1*%
X72850000Y-122750000D03*
%TD*%
D48*
%TO.C,C7*%
X61250000Y-111550000D03*
X61250000Y-113450000D03*
%TD*%
D26*
%TO.C,D6*%
X69340000Y-127400000D03*
X69340000Y-125825000D03*
%TD*%
D15*
%TO.C,R41*%
X75360000Y-123700000D03*
X74340000Y-123700000D03*
%TD*%
%TO.C,R37*%
X78255000Y-97995994D03*
X77235000Y-97995994D03*
%TD*%
D18*
%TO.C,R19*%
X81290000Y-74900000D03*
X82310000Y-74900000D03*
%TD*%
D56*
%TO.C,Y1*%
X97050000Y-111000000D03*
X97050000Y-113200000D03*
X98750000Y-113200000D03*
X98750000Y-111000000D03*
%TD*%
D24*
%TO.C,C45*%
X77300000Y-77130000D03*
X77300000Y-76170000D03*
%TD*%
D15*
%TO.C,R31*%
X65760000Y-114800000D03*
X64740000Y-114800000D03*
%TD*%
%TO.C,R66*%
X83010000Y-81750000D03*
X81990000Y-81750000D03*
%TD*%
D11*
%TO.C,R5*%
X88800000Y-119215000D03*
X88800000Y-120235000D03*
%TD*%
D57*
%TO.C,U10*%
X75100000Y-83900000D03*
X75100000Y-82800000D03*
X75100000Y-81700000D03*
X75100000Y-80600000D03*
X75100000Y-79500000D03*
X75100000Y-78400000D03*
X75100000Y-77300000D03*
X75100000Y-76200000D03*
X75100000Y-75100000D03*
X65400000Y-75100000D03*
X65400000Y-76200000D03*
X65400000Y-77300000D03*
X65400000Y-78400000D03*
X65400000Y-79500000D03*
X65400000Y-80600000D03*
X65400000Y-81700000D03*
X65400000Y-82800000D03*
X65400000Y-83900000D03*
%TD*%
D38*
%TO.C,J3*%
X52275000Y-86600000D03*
X55225000Y-86600000D03*
D39*
X53750000Y-88150000D03*
%TD*%
D11*
%TO.C,R3*%
X87100000Y-117240000D03*
X87100000Y-118260000D03*
%TD*%
D14*
%TO.C,C49*%
X88200000Y-81020000D03*
X88200000Y-81980000D03*
%TD*%
D22*
%TO.C,C34*%
X72100000Y-119025000D03*
X72100000Y-117475000D03*
%TD*%
D15*
%TO.C,R44*%
X60210000Y-123700000D03*
X59190000Y-123700000D03*
%TD*%
%TO.C,R67*%
X80825000Y-102000000D03*
X79805000Y-102000000D03*
%TD*%
D11*
%TO.C,R24*%
X76750000Y-94990000D03*
X76750000Y-96010000D03*
%TD*%
D24*
%TO.C,C53*%
X78300000Y-79380000D03*
X78300000Y-78420000D03*
%TD*%
D28*
%TO.C,C5*%
X83245000Y-108000000D03*
X82285000Y-108000000D03*
%TD*%
D58*
%TO.C,C28*%
X79550000Y-76175000D03*
X79550000Y-77725000D03*
%TD*%
D59*
%TO.C,U8*%
X87750000Y-94950000D03*
X88250000Y-94950000D03*
X88750000Y-94950000D03*
X89250000Y-94950000D03*
X89250000Y-92050000D03*
X88750000Y-92050000D03*
X88250000Y-92050000D03*
X87750000Y-92050000D03*
D60*
X88500000Y-93500000D03*
%TD*%
D61*
%TO.C,IC2*%
X80750000Y-119250000D03*
X80750000Y-118750000D03*
X80750000Y-118250000D03*
X80750000Y-117750000D03*
X77950000Y-117750000D03*
X77950000Y-118250000D03*
X77950000Y-118750000D03*
X77950000Y-119250000D03*
D62*
X79350000Y-118500000D03*
%TD*%
D22*
%TO.C,C18*%
X63600000Y-122375000D03*
X63600000Y-120825000D03*
%TD*%
D34*
%TO.C,R38*%
X92500000Y-97510000D03*
X92500000Y-96490000D03*
%TD*%
D63*
%TO.C,L4*%
X62160000Y-77220000D03*
X61190000Y-77220000D03*
%TD*%
D64*
%TO.C,L3*%
X54814106Y-90564106D03*
X55500000Y-91250000D03*
%TD*%
D15*
%TO.C,R43*%
X77310000Y-123700000D03*
X76290000Y-123700000D03*
%TD*%
D65*
%TO.C,Q7*%
X77600000Y-85187500D03*
X79500000Y-85187500D03*
X78550000Y-83312500D03*
%TD*%
D15*
%TO.C,R18*%
X95760000Y-111250000D03*
X94740000Y-111250000D03*
%TD*%
D24*
%TO.C,C31*%
X63150000Y-78180000D03*
X63150000Y-77220000D03*
%TD*%
D34*
%TO.C,R14*%
X63900000Y-124610000D03*
X63900000Y-123590000D03*
%TD*%
D28*
%TO.C,C6*%
X98980000Y-109600000D03*
X98020000Y-109600000D03*
%TD*%
D36*
%TO.C,J9*%
X98300000Y-122725000D03*
D37*
X96800000Y-124725000D03*
X95300000Y-122725000D03*
X93800000Y-124725000D03*
X92300000Y-122725000D03*
X90800000Y-124725000D03*
%TD*%
D24*
%TO.C,C10*%
X90600000Y-105250000D03*
X90600000Y-104290000D03*
%TD*%
D48*
%TO.C,C15*%
X67700000Y-109550000D03*
X67700000Y-111450000D03*
%TD*%
D58*
%TO.C,C33*%
X93550000Y-90550000D03*
X93550000Y-92100000D03*
%TD*%
D15*
%TO.C,R22*%
X81810000Y-79400000D03*
X80790000Y-79400000D03*
%TD*%
D66*
%TO.C,U5*%
X74150000Y-101850000D03*
X74150000Y-100750000D03*
X74150000Y-99650000D03*
X74150000Y-98550000D03*
X74150000Y-97450000D03*
X74150000Y-96350000D03*
X74150000Y-95250000D03*
X74150000Y-94150000D03*
X74150000Y-93050000D03*
X74150000Y-91950000D03*
X74150000Y-90850000D03*
X74150000Y-89750000D03*
X74150000Y-88650000D03*
D67*
X70900000Y-86650000D03*
X69800000Y-86650000D03*
X68700000Y-86650000D03*
X67600000Y-86650000D03*
X66500000Y-86650000D03*
X65400000Y-86650000D03*
X64300000Y-86650000D03*
X63200000Y-86650000D03*
X62100000Y-86650000D03*
D66*
X58850000Y-88650000D03*
X58850000Y-89750000D03*
X58850000Y-90850000D03*
X58850000Y-91950000D03*
X58850000Y-93050000D03*
X58850000Y-94150000D03*
X58850000Y-95250000D03*
X58850000Y-96350000D03*
X58850000Y-97450000D03*
X58850000Y-98550000D03*
X58850000Y-99650000D03*
X58850000Y-100750000D03*
X58850000Y-101850000D03*
D67*
X62100000Y-103850000D03*
X63200000Y-103850000D03*
X64300000Y-103850000D03*
X65400000Y-103850000D03*
X66500000Y-103850000D03*
X67600000Y-103850000D03*
X68700000Y-103850000D03*
X69800000Y-103850000D03*
X70900000Y-103850000D03*
%TD*%
D18*
%TO.C,R10*%
X82240000Y-109000000D03*
X83260000Y-109000000D03*
%TD*%
D15*
%TO.C,R71*%
X77310000Y-121900000D03*
X76290000Y-121900000D03*
%TD*%
D34*
%TO.C,R2*%
X93800000Y-99010000D03*
X93800000Y-97990000D03*
%TD*%
D28*
%TO.C,C3*%
X83230000Y-112000000D03*
X82270000Y-112000000D03*
%TD*%
D68*
%TO.C,J4*%
X53350000Y-83475000D03*
X53350000Y-80525000D03*
D69*
X54900000Y-82000000D03*
%TD*%
D28*
%TO.C,C13*%
X85500000Y-105500000D03*
X84540000Y-105500000D03*
%TD*%
D70*
%TO.C,U6*%
X67130000Y-120980000D03*
X66180000Y-120980000D03*
X65230000Y-120980000D03*
X65230000Y-123360000D03*
X66180000Y-123360000D03*
X67130000Y-123360000D03*
%TD*%
D55*
%TO.C,J11*%
X98000000Y-101250000D03*
D71*
X98000000Y-102520000D03*
X98000000Y-103790000D03*
X98000000Y-105060000D03*
%TD*%
D48*
%TO.C,C22*%
X62800000Y-107750000D03*
X62800000Y-109650000D03*
%TD*%
D14*
%TO.C,C43*%
X85000000Y-76220000D03*
X85000000Y-77180000D03*
%TD*%
D72*
%TO.C,U4*%
X63310000Y-111550000D03*
X63310000Y-112500000D03*
X63310000Y-113450000D03*
X65690000Y-113450000D03*
X65690000Y-112500000D03*
X65690000Y-111550000D03*
%TD*%
D22*
%TO.C,C44*%
X86300000Y-77775000D03*
X86300000Y-76225000D03*
%TD*%
D25*
%TO.C,C1*%
X90420000Y-75300000D03*
X91380000Y-75300000D03*
%TD*%
%TO.C,C29*%
X52790000Y-98175000D03*
X53750000Y-98175000D03*
%TD*%
D15*
%TO.C,R46*%
X93810000Y-95100000D03*
X92790000Y-95100000D03*
%TD*%
D25*
%TO.C,C11*%
X97040000Y-114600000D03*
X98000000Y-114600000D03*
%TD*%
D49*
%TO.C,C30*%
X53449390Y-90557035D03*
X54128212Y-89878213D03*
%TD*%
D73*
%TO.C,L5*%
X66600000Y-118600000D03*
X68800000Y-118600000D03*
%TD*%
D74*
%TO.C,J8*%
X96100000Y-104700000D03*
X96100000Y-103700000D03*
X96100000Y-102700000D03*
X96100000Y-101700000D03*
D75*
X99975000Y-106000000D03*
X99975000Y-100400000D03*
%TD*%
D16*
%TO.C,SW1*%
X95850000Y-117700000D03*
X100250000Y-117700000D03*
%TD*%
D76*
%TO.C,J12*%
X52700000Y-110750000D03*
D77*
X54300000Y-108750000D03*
D78*
X56800000Y-108750000D03*
%TD*%
D79*
%TO.C,U11*%
X86900000Y-82025000D03*
X85950000Y-82025000D03*
X85000000Y-82025000D03*
X85000000Y-84300000D03*
X86900000Y-84300000D03*
%TD*%
D11*
%TO.C,R8*%
X91800000Y-119215000D03*
X91800000Y-120235000D03*
%TD*%
D28*
%TO.C,C35*%
X88730000Y-90750000D03*
X87770000Y-90750000D03*
%TD*%
D22*
%TO.C,C50*%
X89500000Y-81975000D03*
X89500000Y-80425000D03*
%TD*%
D65*
%TO.C,Q8*%
X81110000Y-85187500D03*
X83010000Y-85187500D03*
X82060000Y-83312500D03*
%TD*%
D58*
%TO.C,C51*%
X79550000Y-79225000D03*
X79550000Y-80775000D03*
%TD*%
M02*
