%TF.GenerationSoftware,KiCad,Pcbnew,6.0.11+dfsg-1*%
%TF.CreationDate,2023-11-18T19:22:11+05:30*%
%TF.ProjectId,c3rl-at-cr-beta-2,6333726c-2d61-4742-9d63-722d62657461,rev?*%
%TF.SameCoordinates,Original*%
%TF.FileFunction,Legend,Top*%
%TF.FilePolarity,Positive*%
%FSLAX46Y46*%
G04 Gerber Fmt 4.6, Leading zero omitted, Abs format (unit mm)*
G04 Created by KiCad (PCBNEW 6.0.11+dfsg-1) date 2023-11-18 19:22:11*
%MOMM*%
%LPD*%
G01*
G04 APERTURE LIST*
%ADD10C,0.150000*%
%ADD11C,0.120000*%
%ADD12C,0.152400*%
%ADD13C,0.127000*%
%ADD14C,0.200000*%
%ADD15C,0.250000*%
%ADD16C,0.300000*%
G04 APERTURE END LIST*
D10*
%TO.C,U2*%
X97202380Y-77000000D02*
X97440476Y-77000000D01*
X97345238Y-77238095D02*
X97440476Y-77000000D01*
X97345238Y-76761904D01*
X97630952Y-77142857D02*
X97440476Y-77000000D01*
X97630952Y-76857142D01*
D11*
%TO.C,R1*%
X94120000Y-117596359D02*
X94120000Y-117903641D01*
X94880000Y-117596359D02*
X94880000Y-117903641D01*
D12*
%TO.C,U2*%
X99426400Y-78676400D02*
X99426400Y-75323600D01*
X96073600Y-75323600D02*
X96073600Y-78676400D01*
X96826200Y-79455800D02*
G75*
G03*
X96826200Y-79455800I-76200J0D01*
G01*
D11*
%TO.C,C16*%
X86460000Y-117692164D02*
X86460000Y-117907836D01*
X85740000Y-117692164D02*
X85740000Y-117907836D01*
%TO.C,R30*%
X67463641Y-115180000D02*
X67156359Y-115180000D01*
X67463641Y-114420000D02*
X67156359Y-114420000D01*
%TO.C,R27*%
X80453641Y-98620497D02*
X80146359Y-98620497D01*
X80453641Y-99380497D02*
X80146359Y-99380497D01*
%TO.C,SW2*%
X93750000Y-102500000D02*
X93750000Y-102800000D01*
X93750000Y-102800000D02*
X90450000Y-102800000D01*
X93750000Y-100300000D02*
X93750000Y-100000000D01*
X93750000Y-100000000D02*
X90450000Y-100000000D01*
X90450000Y-100000000D02*
X90450000Y-100300000D01*
X90450000Y-102800000D02*
X90450000Y-102500000D01*
%TO.C,Q11*%
X79250000Y-92560000D02*
X78600000Y-92560000D01*
X79250000Y-92560000D02*
X80925000Y-92560000D01*
X79250000Y-89440000D02*
X79900000Y-89440000D01*
X79250000Y-89440000D02*
X78600000Y-89440000D01*
%TO.C,R45*%
X93463641Y-93220000D02*
X93156359Y-93220000D01*
X93463641Y-93980000D02*
X93156359Y-93980000D01*
%TO.C,R61*%
X78721359Y-87130000D02*
X79028641Y-87130000D01*
X78721359Y-86370000D02*
X79028641Y-86370000D01*
%TO.C,C42*%
X85990580Y-120140000D02*
X85709420Y-120140000D01*
X85990580Y-121160000D02*
X85709420Y-121160000D01*
%TO.C,J5*%
X100760000Y-89740000D02*
X100760000Y-98960000D01*
X94790000Y-91140000D02*
X94790000Y-89740000D01*
X99460000Y-96340000D02*
X100360000Y-96340000D01*
X95590000Y-93235000D02*
X95590000Y-93965000D01*
X100360000Y-96340000D02*
X100360000Y-92360000D01*
X99060000Y-98160000D02*
X95590000Y-98160000D01*
X95990000Y-89440000D02*
X94490000Y-89440000D01*
X94790000Y-98960000D02*
X94790000Y-96060000D01*
X100760000Y-98960000D02*
X94790000Y-98960000D01*
X94790000Y-93060000D02*
X94790000Y-94140000D01*
X94490000Y-89440000D02*
X94490000Y-90940000D01*
X99060000Y-96740000D02*
X100760000Y-96740000D01*
X94790000Y-89740000D02*
X100760000Y-89740000D01*
X99060000Y-90540000D02*
X95590000Y-90540000D01*
X99060000Y-91960000D02*
X99060000Y-96740000D01*
X99060000Y-96740000D02*
X99060000Y-98160000D01*
X99060000Y-91960000D02*
X99060000Y-90540000D01*
X100760000Y-96740000D02*
X100760000Y-91960000D01*
X100360000Y-92360000D02*
X99460000Y-92360000D01*
X99460000Y-92360000D02*
X99460000Y-96340000D01*
X95590000Y-98160000D02*
X95590000Y-96100000D01*
X100760000Y-91960000D02*
X99060000Y-91960000D01*
X95590000Y-90540000D02*
X95590000Y-91100000D01*
%TO.C,R25*%
X80463641Y-100380497D02*
X80156359Y-100380497D01*
X80463641Y-99620497D02*
X80156359Y-99620497D01*
%TO.C,C21*%
X62510000Y-121740580D02*
X62510000Y-121459420D01*
X61490000Y-121740580D02*
X61490000Y-121459420D01*
%TO.C,R48*%
X64736359Y-126520000D02*
X65043641Y-126520000D01*
X64736359Y-127280000D02*
X65043641Y-127280000D01*
%TO.C,U9*%
X82400000Y-75590000D02*
X80600000Y-75590000D01*
X82400000Y-78710000D02*
X83200000Y-78710000D01*
X82400000Y-78710000D02*
X81600000Y-78710000D01*
X82400000Y-75590000D02*
X83200000Y-75590000D01*
%TO.C,C46*%
X78660000Y-76757836D02*
X78660000Y-76542164D01*
X77940000Y-76757836D02*
X77940000Y-76542164D01*
%TO.C,R17*%
X67496359Y-113180000D02*
X67803641Y-113180000D01*
X67496359Y-112420000D02*
X67803641Y-112420000D01*
%TO.C,C20*%
X96472164Y-109960000D02*
X96687836Y-109960000D01*
X96472164Y-109240000D02*
X96687836Y-109240000D01*
%TO.C,D3*%
X68235000Y-128085000D02*
X68235000Y-125800000D01*
X66765000Y-128085000D02*
X68235000Y-128085000D01*
X66765000Y-125800000D02*
X66765000Y-128085000D01*
%TO.C,C27*%
X60560000Y-77807836D02*
X60560000Y-77592164D01*
X59840000Y-77807836D02*
X59840000Y-77592164D01*
%TO.C,R72*%
X82180000Y-104346359D02*
X82180000Y-104653641D01*
X81420000Y-104346359D02*
X81420000Y-104653641D01*
%TO.C,C2*%
X90090000Y-76862836D02*
X90090000Y-76647164D01*
X90810000Y-76862836D02*
X90810000Y-76647164D01*
%TO.C,C48*%
X85984420Y-87582500D02*
X86265580Y-87582500D01*
X85984420Y-86562500D02*
X86265580Y-86562500D01*
%TO.C,R15*%
X62520000Y-123946359D02*
X62520000Y-124253641D01*
X63280000Y-123946359D02*
X63280000Y-124253641D01*
%TO.C,R52*%
X70680000Y-123846359D02*
X70680000Y-124153641D01*
X69920000Y-123846359D02*
X69920000Y-124153641D01*
%TO.C,C25*%
X53380186Y-101455000D02*
X53164514Y-101455000D01*
X53380186Y-100735000D02*
X53164514Y-100735000D01*
%TO.C,R47*%
X73053641Y-124120000D02*
X72746359Y-124120000D01*
X73053641Y-124880000D02*
X72746359Y-124880000D01*
%TO.C,R42*%
X57853641Y-124080000D02*
X57546359Y-124080000D01*
X57853641Y-123320000D02*
X57546359Y-123320000D01*
%TO.C,D5*%
X73000000Y-119450000D02*
X74200000Y-119450000D01*
X73000000Y-117600000D02*
X73000000Y-119450000D01*
X74200000Y-117600000D02*
X74200000Y-119450000D01*
D13*
%TO.C,C24*%
X72500000Y-108700000D02*
X72500000Y-109800000D01*
X69500000Y-108700000D02*
X69500000Y-109800000D01*
D11*
%TO.C,Q4*%
X74190000Y-126250000D02*
X74190000Y-126900000D01*
X77310000Y-126250000D02*
X77310000Y-126900000D01*
X74190000Y-126250000D02*
X74190000Y-125600000D01*
X77310000Y-126250000D02*
X77310000Y-124575000D01*
%TO.C,C17*%
X90642164Y-116110000D02*
X90857836Y-116110000D01*
X90642164Y-115390000D02*
X90857836Y-115390000D01*
%TO.C,R32*%
X80453641Y-96620000D02*
X80146359Y-96620000D01*
X80453641Y-97380000D02*
X80146359Y-97380000D01*
D13*
%TO.C,U1*%
X87500000Y-76605000D02*
X87500000Y-74505000D01*
X89600000Y-76605000D02*
X89600000Y-74505000D01*
D14*
X87950000Y-77355000D02*
G75*
G03*
X87950000Y-77355000I-100000J0D01*
G01*
D11*
%TO.C,C14*%
X82857836Y-110640000D02*
X82642164Y-110640000D01*
X82857836Y-111360000D02*
X82642164Y-111360000D01*
%TO.C,R51*%
X81370000Y-91391359D02*
X81370000Y-91698641D01*
X82130000Y-91391359D02*
X82130000Y-91698641D01*
D14*
%TO.C,L1*%
X64400000Y-108700000D02*
X66200000Y-108700000D01*
D11*
%TO.C,R69*%
X80478641Y-100620000D02*
X80171359Y-100620000D01*
X80478641Y-101380000D02*
X80171359Y-101380000D01*
%TO.C,R49*%
X58810000Y-75913641D02*
X58810000Y-75606359D01*
X59570000Y-75913641D02*
X59570000Y-75606359D01*
%TO.C,R50*%
X71680000Y-123846359D02*
X71680000Y-124153641D01*
X70920000Y-123846359D02*
X70920000Y-124153641D01*
%TO.C,C52*%
X77660000Y-79007836D02*
X77660000Y-78792164D01*
X76940000Y-79007836D02*
X76940000Y-78792164D01*
%TO.C,R73*%
X81370000Y-89698641D02*
X81370000Y-89391359D01*
X82130000Y-89698641D02*
X82130000Y-89391359D01*
%TO.C,Q5*%
X60310000Y-126250000D02*
X60310000Y-124575000D01*
X57190000Y-126250000D02*
X57190000Y-126900000D01*
X57190000Y-126250000D02*
X57190000Y-125600000D01*
X60310000Y-126250000D02*
X60310000Y-126900000D01*
%TO.C,Q1*%
X80060000Y-104500000D02*
X80060000Y-102825000D01*
X80060000Y-104500000D02*
X80060000Y-105150000D01*
X76940000Y-104500000D02*
X76940000Y-103850000D01*
X76940000Y-104500000D02*
X76940000Y-105150000D01*
%TO.C,R36*%
X80458641Y-97615994D02*
X80151359Y-97615994D01*
X80458641Y-98375994D02*
X80151359Y-98375994D01*
%TO.C,R65*%
X77646359Y-81320000D02*
X77953641Y-81320000D01*
X77646359Y-82080000D02*
X77953641Y-82080000D01*
%TO.C,C47*%
X86527836Y-85412500D02*
X86312164Y-85412500D01*
X86527836Y-86132500D02*
X86312164Y-86132500D01*
%TO.C,J10*%
X87410000Y-127935000D02*
X78190000Y-127935000D01*
X78190000Y-127935000D02*
X78190000Y-121965000D01*
X78190000Y-121965000D02*
X81090000Y-121965000D01*
X78990000Y-126235000D02*
X78990000Y-122765000D01*
X80410000Y-127935000D02*
X85190000Y-127935000D01*
X87710000Y-121665000D02*
X86210000Y-121665000D01*
X80410000Y-126235000D02*
X80410000Y-127935000D01*
X86610000Y-126235000D02*
X86610000Y-122765000D01*
X80810000Y-127535000D02*
X84790000Y-127535000D01*
X83915000Y-122765000D02*
X83185000Y-122765000D01*
X85190000Y-127935000D02*
X85190000Y-126235000D01*
X85190000Y-126235000D02*
X86610000Y-126235000D01*
X80810000Y-126635000D02*
X80810000Y-127535000D01*
X86010000Y-121965000D02*
X87410000Y-121965000D01*
X78990000Y-122765000D02*
X81050000Y-122765000D01*
X84090000Y-121965000D02*
X83010000Y-121965000D01*
X86610000Y-122765000D02*
X86050000Y-122765000D01*
X84790000Y-126635000D02*
X80810000Y-126635000D01*
X80410000Y-126235000D02*
X78990000Y-126235000D01*
X87410000Y-121965000D02*
X87410000Y-127935000D01*
X87710000Y-123165000D02*
X87710000Y-121665000D01*
X85190000Y-126235000D02*
X80410000Y-126235000D01*
X84790000Y-127535000D02*
X84790000Y-126635000D01*
%TO.C,R34*%
X91130000Y-97153641D02*
X91130000Y-96846359D01*
X90370000Y-97153641D02*
X90370000Y-96846359D01*
D13*
%TO.C,J2*%
X55050000Y-93950000D02*
X52450000Y-93950000D01*
D11*
%TO.C,R33*%
X77893641Y-97380000D02*
X77586359Y-97380000D01*
X77893641Y-96620000D02*
X77586359Y-96620000D01*
%TO.C,R35*%
X59570000Y-77576359D02*
X59570000Y-77883641D01*
X58810000Y-77576359D02*
X58810000Y-77883641D01*
%TO.C,R54*%
X79780000Y-88403641D02*
X79780000Y-88096359D01*
X79020000Y-88403641D02*
X79020000Y-88096359D01*
%TO.C,C19*%
X99240580Y-121260000D02*
X98959420Y-121260000D01*
X99240580Y-120240000D02*
X98959420Y-120240000D01*
D14*
%TO.C,ANT1*%
X55450000Y-75150000D02*
X55450000Y-75150000D01*
X55450000Y-75350000D02*
X55450000Y-75350000D01*
X55450000Y-75350000D02*
G75*
G03*
X55450000Y-75150000I0J100000D01*
G01*
X55450000Y-75150000D02*
G75*
G03*
X55450000Y-75350000I0J-100000D01*
G01*
D11*
%TO.C,R7*%
X91180000Y-119571359D02*
X91180000Y-119878641D01*
X90420000Y-119571359D02*
X90420000Y-119878641D01*
%TO.C,R70*%
X77903641Y-100620000D02*
X77596359Y-100620000D01*
X77903641Y-101380000D02*
X77596359Y-101380000D01*
%TO.C,C8*%
X82877836Y-106640000D02*
X82662164Y-106640000D01*
X82877836Y-107360000D02*
X82662164Y-107360000D01*
%TO.C,R39*%
X61953641Y-119195000D02*
X61646359Y-119195000D01*
X61953641Y-119955000D02*
X61646359Y-119955000D01*
D14*
%TO.C,J1*%
X52515000Y-113047500D02*
X51235000Y-113047500D01*
X56485000Y-122627500D02*
X55235000Y-122627500D01*
X51235000Y-122627500D02*
X52515000Y-122627500D01*
X56485000Y-113047500D02*
X55235000Y-113047500D01*
X51235000Y-113047500D02*
X51235000Y-122627500D01*
D11*
%TO.C,R64*%
X99870000Y-88153641D02*
X99870000Y-87846359D01*
X100630000Y-88153641D02*
X100630000Y-87846359D01*
%TO.C,C32*%
X69260000Y-123040580D02*
X69260000Y-122759420D01*
X68240000Y-123040580D02*
X68240000Y-122759420D01*
%TO.C,C23*%
X74685000Y-108538748D02*
X74685000Y-109061252D01*
X73215000Y-108538748D02*
X73215000Y-109061252D01*
%TO.C,R62*%
X81446359Y-86370000D02*
X81753641Y-86370000D01*
X81446359Y-87130000D02*
X81753641Y-87130000D01*
%TO.C,C12*%
X92590000Y-86675336D02*
X92590000Y-86459664D01*
X93310000Y-86675336D02*
X93310000Y-86459664D01*
%TO.C,R6*%
X89420000Y-119571359D02*
X89420000Y-119878641D01*
X90180000Y-119571359D02*
X90180000Y-119878641D01*
%TO.C,C4*%
X96492164Y-108960000D02*
X96707836Y-108960000D01*
X96492164Y-108240000D02*
X96707836Y-108240000D01*
%TO.C,R57*%
X96753641Y-107780000D02*
X96446359Y-107780000D01*
X96753641Y-107020000D02*
X96446359Y-107020000D01*
%TO.C,R68*%
X77893641Y-102380000D02*
X77586359Y-102380000D01*
X77893641Y-101620000D02*
X77586359Y-101620000D01*
%TO.C,R16*%
X80370000Y-105356359D02*
X80370000Y-105663641D01*
X81130000Y-105356359D02*
X81130000Y-105663641D01*
%TO.C,R11*%
X80370000Y-103673641D02*
X80370000Y-103366359D01*
X81130000Y-103673641D02*
X81130000Y-103366359D01*
%TO.C,C26*%
X56024789Y-92606115D02*
X56177292Y-92453612D01*
X55515672Y-92096998D02*
X55668175Y-91944495D01*
%TO.C,R60*%
X78780000Y-88096359D02*
X78780000Y-88403641D01*
X78020000Y-88096359D02*
X78020000Y-88403641D01*
%TO.C,R20*%
X81370000Y-95336359D02*
X81370000Y-95643641D01*
X82130000Y-95336359D02*
X82130000Y-95643641D01*
%TO.C,R9*%
X82596359Y-110380000D02*
X82903641Y-110380000D01*
X82596359Y-109620000D02*
X82903641Y-109620000D01*
%TO.C,D2*%
X72335000Y-125850000D02*
X72335000Y-128135000D01*
X73805000Y-128135000D02*
X73805000Y-125850000D01*
X72335000Y-128135000D02*
X73805000Y-128135000D01*
D14*
%TO.C,IC1*%
X86250000Y-114675000D02*
G75*
G03*
X86250000Y-114675000I-100000J0D01*
G01*
D11*
%TO.C,C38*%
X71010000Y-118390580D02*
X71010000Y-118109420D01*
X69990000Y-118390580D02*
X69990000Y-118109420D01*
%TO.C,R29*%
X61646359Y-116380000D02*
X61953641Y-116380000D01*
X61646359Y-115620000D02*
X61953641Y-115620000D01*
%TO.C,R21*%
X81370000Y-93643641D02*
X81370000Y-93336359D01*
X82130000Y-93643641D02*
X82130000Y-93336359D01*
%TO.C,Q2*%
X79250000Y-96060000D02*
X80925000Y-96060000D01*
X79250000Y-92940000D02*
X78600000Y-92940000D01*
X79250000Y-96060000D02*
X78600000Y-96060000D01*
X79250000Y-92940000D02*
X79900000Y-92940000D01*
%TO.C,R13*%
X75023641Y-122070000D02*
X74716359Y-122070000D01*
X75023641Y-122830000D02*
X74716359Y-122830000D01*
%TO.C,R28*%
X77903641Y-98620497D02*
X77596359Y-98620497D01*
X77903641Y-99380497D02*
X77596359Y-99380497D01*
%TO.C,C9*%
X93310000Y-84670336D02*
X93310000Y-84454664D01*
X92590000Y-84670336D02*
X92590000Y-84454664D01*
%TO.C,R26*%
X77903641Y-100380497D02*
X77596359Y-100380497D01*
X77903641Y-99620497D02*
X77596359Y-99620497D01*
D13*
%TO.C,D1*%
X75550000Y-110000000D02*
X75550000Y-108500000D01*
X76950000Y-108500000D02*
X76950000Y-110000000D01*
D14*
X76350000Y-106455000D02*
G75*
G03*
X76350000Y-106455000I-100000J0D01*
G01*
D11*
%TO.C,R63*%
X98403641Y-79370000D02*
X98096359Y-79370000D01*
X98403641Y-80130000D02*
X98096359Y-80130000D01*
%TO.C,D4*%
X70485000Y-125850000D02*
X70485000Y-128135000D01*
X71955000Y-128135000D02*
X71955000Y-125850000D01*
X70485000Y-128135000D02*
X71955000Y-128135000D01*
%TO.C,U7*%
X79350000Y-115775000D02*
X82075000Y-115775000D01*
X79350000Y-115775000D02*
X76625000Y-115775000D01*
X82075000Y-120965000D02*
X83750000Y-120965000D01*
X82075000Y-121225000D02*
X82075000Y-120965000D01*
X76625000Y-115775000D02*
X76625000Y-116035000D01*
X76625000Y-121225000D02*
X76625000Y-120965000D01*
X79350000Y-121225000D02*
X82075000Y-121225000D01*
X79350000Y-121225000D02*
X76625000Y-121225000D01*
X82075000Y-115775000D02*
X82075000Y-116035000D01*
%TO.C,R4*%
X87720000Y-117596359D02*
X87720000Y-117903641D01*
X88480000Y-117596359D02*
X88480000Y-117903641D01*
%TO.C,R12*%
X90136359Y-83580000D02*
X90443641Y-83580000D01*
X90136359Y-82820000D02*
X90443641Y-82820000D01*
%TO.C,TP1*%
X72150000Y-123450000D02*
X72150000Y-122050000D01*
X73550000Y-123450000D02*
X72150000Y-123450000D01*
X72150000Y-122050000D02*
X73550000Y-122050000D01*
X73550000Y-122050000D02*
X73550000Y-123450000D01*
%TO.C,C7*%
X61985000Y-112238748D02*
X61985000Y-112761252D01*
X60515000Y-112238748D02*
X60515000Y-112761252D01*
%TO.C,D6*%
X70075000Y-128097500D02*
X70075000Y-125812500D01*
X68605000Y-125812500D02*
X68605000Y-128097500D01*
X68605000Y-128097500D02*
X70075000Y-128097500D01*
%TO.C,R41*%
X75003641Y-124080000D02*
X74696359Y-124080000D01*
X75003641Y-123320000D02*
X74696359Y-123320000D01*
%TO.C,R37*%
X77898641Y-97615994D02*
X77591359Y-97615994D01*
X77898641Y-98375994D02*
X77591359Y-98375994D01*
%TO.C,R19*%
X81646359Y-75280000D02*
X81953641Y-75280000D01*
X81646359Y-74520000D02*
X81953641Y-74520000D01*
D13*
%TO.C,Y1*%
X96236022Y-110850000D02*
G75*
G03*
X96236022Y-110850000I-86022J0D01*
G01*
D11*
%TO.C,C45*%
X77660000Y-76757836D02*
X77660000Y-76542164D01*
X76940000Y-76757836D02*
X76940000Y-76542164D01*
%TO.C,R31*%
X65403641Y-115180000D02*
X65096359Y-115180000D01*
X65403641Y-114420000D02*
X65096359Y-114420000D01*
%TO.C,R66*%
X82653641Y-82130000D02*
X82346359Y-82130000D01*
X82653641Y-81370000D02*
X82346359Y-81370000D01*
%TO.C,R5*%
X89180000Y-119571359D02*
X89180000Y-119878641D01*
X88420000Y-119571359D02*
X88420000Y-119878641D01*
D13*
%TO.C,U10*%
X74200000Y-84625000D02*
X66300000Y-84625000D01*
X74200000Y-74375000D02*
X66300000Y-74375000D01*
D14*
X76550000Y-84700000D02*
G75*
G03*
X76550000Y-84700000I-100000J0D01*
G01*
D13*
%TO.C,J3*%
X55050000Y-85300000D02*
X52450000Y-85300000D01*
D11*
%TO.C,R3*%
X87480000Y-117596359D02*
X87480000Y-117903641D01*
X86720000Y-117596359D02*
X86720000Y-117903641D01*
%TO.C,C49*%
X88560000Y-81392164D02*
X88560000Y-81607836D01*
X87840000Y-81392164D02*
X87840000Y-81607836D01*
%TO.C,C34*%
X72610000Y-118390580D02*
X72610000Y-118109420D01*
X71590000Y-118390580D02*
X71590000Y-118109420D01*
%TO.C,R44*%
X59853641Y-123320000D02*
X59546359Y-123320000D01*
X59853641Y-124080000D02*
X59546359Y-124080000D01*
%TO.C,R67*%
X80468641Y-101620000D02*
X80161359Y-101620000D01*
X80468641Y-102380000D02*
X80161359Y-102380000D01*
%TO.C,R24*%
X77130000Y-95346359D02*
X77130000Y-95653641D01*
X76370000Y-95346359D02*
X76370000Y-95653641D01*
%TO.C,C53*%
X77940000Y-79007836D02*
X77940000Y-78792164D01*
X78660000Y-79007836D02*
X78660000Y-78792164D01*
%TO.C,C5*%
X82872836Y-108360000D02*
X82657164Y-108360000D01*
X82872836Y-107640000D02*
X82657164Y-107640000D01*
%TO.C,C28*%
X79040000Y-76809420D02*
X79040000Y-77090580D01*
X80060000Y-76809420D02*
X80060000Y-77090580D01*
D10*
%TO.C,U8*%
X87375000Y-93500000D02*
X87375000Y-92000000D01*
X89625000Y-95000000D02*
X89625000Y-92000000D01*
D15*
%TO.C,IC2*%
X81325000Y-119900000D02*
G75*
G03*
X81325000Y-119900000I-125000J0D01*
G01*
D11*
%TO.C,C18*%
X64110000Y-121740580D02*
X64110000Y-121459420D01*
X63090000Y-121740580D02*
X63090000Y-121459420D01*
%TO.C,R38*%
X92880000Y-97153641D02*
X92880000Y-96846359D01*
X92120000Y-97153641D02*
X92120000Y-96846359D01*
%TO.C,R43*%
X76953641Y-123320000D02*
X76646359Y-123320000D01*
X76953641Y-124080000D02*
X76646359Y-124080000D01*
%TO.C,Q7*%
X80110000Y-84250000D02*
X80110000Y-83600000D01*
X76990000Y-84250000D02*
X76990000Y-85925000D01*
X76990000Y-84250000D02*
X76990000Y-83600000D01*
X80110000Y-84250000D02*
X80110000Y-84900000D01*
%TO.C,R18*%
X95403641Y-111630000D02*
X95096359Y-111630000D01*
X95403641Y-110870000D02*
X95096359Y-110870000D01*
%TO.C,C31*%
X62790000Y-77807836D02*
X62790000Y-77592164D01*
X63510000Y-77807836D02*
X63510000Y-77592164D01*
%TO.C,R14*%
X63520000Y-124253641D02*
X63520000Y-123946359D01*
X64280000Y-124253641D02*
X64280000Y-123946359D01*
%TO.C,C6*%
X98607836Y-109240000D02*
X98392164Y-109240000D01*
X98607836Y-109960000D02*
X98392164Y-109960000D01*
%TO.C,J9*%
X91060000Y-126635000D02*
X91060000Y-127535000D01*
X97340000Y-121965000D02*
X96260000Y-121965000D01*
X98440000Y-126235000D02*
X90660000Y-126235000D01*
X99860000Y-122765000D02*
X99300000Y-122765000D01*
X99260000Y-121965000D02*
X100660000Y-121965000D01*
X88440000Y-121965000D02*
X91340000Y-121965000D01*
X100660000Y-121965000D02*
X100660000Y-127935000D01*
X89240000Y-122765000D02*
X91300000Y-122765000D01*
X97165000Y-122765000D02*
X96435000Y-122765000D01*
X98040000Y-126635000D02*
X91060000Y-126635000D01*
X90660000Y-126235000D02*
X89240000Y-126235000D01*
X90660000Y-127935000D02*
X98440000Y-127935000D01*
X88440000Y-127935000D02*
X88440000Y-121965000D01*
X100660000Y-127935000D02*
X88440000Y-127935000D01*
X98440000Y-126235000D02*
X99860000Y-126235000D01*
X94340000Y-121965000D02*
X93260000Y-121965000D01*
X91060000Y-127535000D02*
X98040000Y-127535000D01*
X89240000Y-126235000D02*
X89240000Y-122765000D01*
X98040000Y-127535000D02*
X98040000Y-126635000D01*
X90660000Y-126235000D02*
X90660000Y-127935000D01*
X98440000Y-127935000D02*
X98440000Y-126235000D01*
X99860000Y-126235000D02*
X99860000Y-122765000D01*
X100960000Y-123165000D02*
X100960000Y-121665000D01*
X94165000Y-122765000D02*
X93435000Y-122765000D01*
X100960000Y-121665000D02*
X99460000Y-121665000D01*
%TO.C,C10*%
X90240000Y-104877836D02*
X90240000Y-104662164D01*
X90960000Y-104877836D02*
X90960000Y-104662164D01*
%TO.C,C15*%
X68435000Y-110238748D02*
X68435000Y-110761252D01*
X66965000Y-110238748D02*
X66965000Y-110761252D01*
%TO.C,C33*%
X94060000Y-91184420D02*
X94060000Y-91465580D01*
X93040000Y-91184420D02*
X93040000Y-91465580D01*
%TO.C,R22*%
X81453641Y-79780000D02*
X81146359Y-79780000D01*
X81453641Y-79020000D02*
X81146359Y-79020000D01*
D13*
%TO.C,U5*%
X61350000Y-104175000D02*
X58525000Y-104175000D01*
X58525000Y-104175000D02*
X58525000Y-102600000D01*
X58525000Y-86325000D02*
X61350000Y-86325000D01*
X58525000Y-87900000D02*
X58525000Y-86325000D01*
X74475000Y-104175000D02*
X74475000Y-102600000D01*
X71650000Y-104175000D02*
X74475000Y-104175000D01*
X74475000Y-87900000D02*
X74475000Y-86325000D01*
X74475000Y-86325000D02*
X71650000Y-86325000D01*
D16*
X76450000Y-101850000D02*
G75*
G03*
X76450000Y-101850000I-150000J0D01*
G01*
D11*
%TO.C,R10*%
X82596359Y-108620000D02*
X82903641Y-108620000D01*
X82596359Y-109380000D02*
X82903641Y-109380000D01*
%TO.C,R71*%
X76953641Y-121520000D02*
X76646359Y-121520000D01*
X76953641Y-122280000D02*
X76646359Y-122280000D01*
%TO.C,R2*%
X94180000Y-98653641D02*
X94180000Y-98346359D01*
X93420000Y-98653641D02*
X93420000Y-98346359D01*
%TO.C,C3*%
X82857836Y-112360000D02*
X82642164Y-112360000D01*
X82857836Y-111640000D02*
X82642164Y-111640000D01*
D13*
%TO.C,J4*%
X52050000Y-80700000D02*
X52050000Y-83300000D01*
D11*
%TO.C,C13*%
X85127836Y-105860000D02*
X84912164Y-105860000D01*
X85127836Y-105140000D02*
X84912164Y-105140000D01*
D13*
%TO.C,U6*%
X67745000Y-122970000D02*
X67745000Y-121370000D01*
X64615000Y-122970000D02*
X64615000Y-121370000D01*
D14*
X67230000Y-119670000D02*
G75*
G03*
X67230000Y-119670000I-100000J0D01*
G01*
D11*
%TO.C,J11*%
X98307530Y-105755000D02*
X99110000Y-105755000D01*
X99110000Y-102010000D02*
X99110000Y-105755000D01*
X96890000Y-100490000D02*
X98000000Y-100490000D01*
X96890000Y-102010000D02*
X96890000Y-105755000D01*
X96890000Y-101250000D02*
X96890000Y-100490000D01*
X96890000Y-102010000D02*
X97436529Y-102010000D01*
X96890000Y-105755000D02*
X97692470Y-105755000D01*
X98563471Y-102010000D02*
X99110000Y-102010000D01*
%TO.C,C22*%
X63535000Y-108438748D02*
X63535000Y-108961252D01*
X62065000Y-108438748D02*
X62065000Y-108961252D01*
%TO.C,C43*%
X84640000Y-76592164D02*
X84640000Y-76807836D01*
X85360000Y-76592164D02*
X85360000Y-76807836D01*
D13*
%TO.C,U4*%
X65300000Y-110935000D02*
X63700000Y-110935000D01*
X65300000Y-114065000D02*
X63700000Y-114065000D01*
D14*
X62100000Y-111550000D02*
G75*
G03*
X62100000Y-111550000I-100000J0D01*
G01*
D11*
%TO.C,C44*%
X85790000Y-77140580D02*
X85790000Y-76859420D01*
X86810000Y-77140580D02*
X86810000Y-76859420D01*
%TO.C,C1*%
X90792164Y-75660000D02*
X91007836Y-75660000D01*
X90792164Y-74940000D02*
X91007836Y-74940000D01*
%TO.C,C29*%
X53162164Y-97815000D02*
X53377836Y-97815000D01*
X53162164Y-98535000D02*
X53377836Y-98535000D01*
%TO.C,R46*%
X93453641Y-94720000D02*
X93146359Y-94720000D01*
X93453641Y-95480000D02*
X93146359Y-95480000D01*
%TO.C,C11*%
X97412164Y-114240000D02*
X97627836Y-114240000D01*
X97412164Y-114960000D02*
X97627836Y-114960000D01*
%TO.C,C30*%
X53967108Y-90548434D02*
X54119611Y-90395931D01*
X53457991Y-90039317D02*
X53610494Y-89886814D01*
D14*
%TO.C,L5*%
X67700000Y-117700000D02*
X67700000Y-119500000D01*
D13*
%TO.C,J8*%
X100675000Y-105000000D02*
X100675000Y-101400000D01*
X96425000Y-105400000D02*
X96425000Y-106200000D01*
X96425000Y-100200000D02*
X98700000Y-100200000D01*
X96425000Y-106200000D02*
X98700000Y-106200000D01*
X96425000Y-101000000D02*
X96425000Y-100200000D01*
D16*
X95815000Y-105650000D02*
G75*
G03*
X95815000Y-105650000I-100000J0D01*
G01*
D11*
%TO.C,SW1*%
X96400000Y-116300000D02*
X99700000Y-116300000D01*
X99700000Y-116300000D02*
X99700000Y-116600000D01*
X96400000Y-116600000D02*
X96400000Y-116300000D01*
X96400000Y-119100000D02*
X99700000Y-119100000D01*
X99700000Y-119100000D02*
X99700000Y-118800000D01*
X96400000Y-118800000D02*
X96400000Y-119100000D01*
%TO.C,J12*%
X55050000Y-107050000D02*
X56050000Y-107050000D01*
X52500000Y-108550000D02*
X52500000Y-109890000D01*
X58600000Y-108550000D02*
X58600000Y-111500000D01*
X56050000Y-107050000D02*
X56050000Y-106300000D01*
X59350000Y-108550000D02*
X58600000Y-108550000D01*
X59360000Y-112260000D02*
X59360000Y-106290000D01*
X55050000Y-106300000D02*
X55050000Y-107050000D01*
X53550000Y-107050000D02*
X53550000Y-106300000D01*
X59350000Y-107050000D02*
X59350000Y-106300000D01*
X57550000Y-107050000D02*
X59350000Y-107050000D01*
X51750000Y-106300000D02*
X51750000Y-107050000D01*
X52700000Y-106000000D02*
X51450000Y-106000000D01*
X51750000Y-108550000D02*
X52500000Y-108550000D01*
X51750000Y-107050000D02*
X53550000Y-107050000D01*
X51740000Y-112260000D02*
X59360000Y-112260000D01*
X58600000Y-111500000D02*
X55550000Y-111500000D01*
X53550000Y-106300000D02*
X51750000Y-106300000D01*
X51740000Y-106290000D02*
X51740000Y-112260000D01*
X59360000Y-106290000D02*
X51740000Y-106290000D01*
X59350000Y-106300000D02*
X57550000Y-106300000D01*
X51450000Y-106000000D02*
X51450000Y-107250000D01*
X57550000Y-106300000D02*
X57550000Y-107050000D01*
X56050000Y-106300000D02*
X55050000Y-106300000D01*
X55550000Y-111500000D02*
X53560000Y-111500000D01*
%TO.C,U11*%
X87510000Y-83162500D02*
X87510000Y-83962500D01*
X84390000Y-83162500D02*
X84390000Y-82362500D01*
X84390000Y-83162500D02*
X84390000Y-83962500D01*
X87510000Y-83162500D02*
X87510000Y-81362500D01*
%TO.C,R8*%
X91420000Y-119571359D02*
X91420000Y-119878641D01*
X92180000Y-119571359D02*
X92180000Y-119878641D01*
%TO.C,C35*%
X88357836Y-90390000D02*
X88142164Y-90390000D01*
X88357836Y-91110000D02*
X88142164Y-91110000D01*
D13*
%TO.C,U3*%
X89500000Y-86557500D02*
X89500000Y-87117500D01*
X92100000Y-84577500D02*
X92100000Y-84017500D01*
X89500000Y-84577500D02*
X89500000Y-84017500D01*
X92100000Y-87117500D02*
X92100000Y-86557500D01*
D14*
X89905000Y-87657500D02*
G75*
G03*
X89905000Y-87657500I-100000J0D01*
G01*
D11*
%TO.C,C50*%
X90010000Y-81340580D02*
X90010000Y-81059420D01*
X88990000Y-81340580D02*
X88990000Y-81059420D01*
%TO.C,Q8*%
X83620000Y-84250000D02*
X83620000Y-83600000D01*
X80500000Y-84250000D02*
X80500000Y-83600000D01*
X83620000Y-84250000D02*
X83620000Y-84900000D01*
X80500000Y-84250000D02*
X80500000Y-85925000D01*
%TO.C,C51*%
X80060000Y-79859420D02*
X80060000Y-80140580D01*
X79040000Y-79859420D02*
X79040000Y-80140580D01*
%TD*%
M02*
