%TF.GenerationSoftware,KiCad,Pcbnew,6.0.11+dfsg-1*%
%TF.CreationDate,2023-11-18T19:22:10+05:30*%
%TF.ProjectId,c3rl-at-cr-beta-2,6333726c-2d61-4742-9d63-722d62657461,rev?*%
%TF.SameCoordinates,Original*%
%TF.FileFunction,Copper,L2,Bot*%
%TF.FilePolarity,Positive*%
%FSLAX46Y46*%
G04 Gerber Fmt 4.6, Leading zero omitted, Abs format (unit mm)*
G04 Created by KiCad (PCBNEW 6.0.11+dfsg-1) date 2023-11-18 19:22:10*
%MOMM*%
%LPD*%
G01*
G04 APERTURE LIST*
G04 Aperture macros list*
%AMRoundRect*
0 Rectangle with rounded corners*
0 $1 Rounding radius*
0 $2 $3 $4 $5 $6 $7 $8 $9 X,Y pos of 4 corners*
0 Add a 4 corners polygon primitive as box body*
4,1,4,$2,$3,$4,$5,$6,$7,$8,$9,$2,$3,0*
0 Add four circle primitives for the rounded corners*
1,1,$1+$1,$2,$3*
1,1,$1+$1,$4,$5*
1,1,$1+$1,$6,$7*
1,1,$1+$1,$8,$9*
0 Add four rect primitives between the rounded corners*
20,1,$1+$1,$2,$3,$4,$5,0*
20,1,$1+$1,$4,$5,$6,$7,0*
20,1,$1+$1,$6,$7,$8,$9,0*
20,1,$1+$1,$8,$9,$2,$3,0*%
%AMFreePoly0*
4,1,22,0.145671,0.855970,0.226777,0.801777,0.626777,0.401777,0.680970,0.320671,0.700000,0.225000,0.700000,-0.625000,0.680970,-0.720671,0.626777,-0.801777,0.545671,-0.855970,0.450000,-0.875000,-0.450000,-0.875000,-0.545671,-0.855970,-0.626777,-0.801777,-0.680970,-0.720671,-0.700000,-0.625000,-0.700000,0.625000,-0.680970,0.720671,-0.626777,0.801777,-0.545671,0.855970,-0.450000,0.875000,
0.050000,0.875000,0.145671,0.855970,0.145671,0.855970,$1*%
G04 Aperture macros list end*
%TA.AperFunction,EtchedComponent*%
%ADD10C,0.120000*%
%TD*%
%TA.AperFunction,ComponentPad*%
%ADD11FreePoly0,270.000000*%
%TD*%
%TA.AperFunction,ComponentPad*%
%ADD12O,1.750000X1.400000*%
%TD*%
%TA.AperFunction,ComponentPad*%
%ADD13FreePoly0,180.000000*%
%TD*%
%TA.AperFunction,ComponentPad*%
%ADD14O,1.400000X1.750000*%
%TD*%
%TA.AperFunction,ComponentPad*%
%ADD15C,0.400000*%
%TD*%
%TA.AperFunction,ComponentPad*%
%ADD16O,2.100000X1.050000*%
%TD*%
%TA.AperFunction,ComponentPad*%
%ADD17O,2.000000X1.000000*%
%TD*%
%TA.AperFunction,ComponentPad*%
%ADD18R,1.000000X1.000000*%
%TD*%
%TA.AperFunction,ComponentPad*%
%ADD19O,1.000000X1.000000*%
%TD*%
%TA.AperFunction,ComponentPad*%
%ADD20RoundRect,0.250000X-0.600000X-0.750000X0.600000X-0.750000X0.600000X0.750000X-0.600000X0.750000X0*%
%TD*%
%TA.AperFunction,ComponentPad*%
%ADD21O,1.700000X2.000000*%
%TD*%
%TA.AperFunction,SMDPad,CuDef*%
%ADD22RoundRect,0.140000X-0.140000X-0.170000X0.140000X-0.170000X0.140000X0.170000X-0.140000X0.170000X0*%
%TD*%
%TA.AperFunction,SMDPad,CuDef*%
%ADD23RoundRect,0.140000X-0.170000X0.140000X-0.170000X-0.140000X0.170000X-0.140000X0.170000X0.140000X0*%
%TD*%
%TA.AperFunction,SMDPad,CuDef*%
%ADD24RoundRect,0.140000X0.140000X0.170000X-0.140000X0.170000X-0.140000X-0.170000X0.140000X-0.170000X0*%
%TD*%
%TA.AperFunction,SMDPad,CuDef*%
%ADD25RoundRect,0.135000X0.185000X-0.135000X0.185000X0.135000X-0.185000X0.135000X-0.185000X-0.135000X0*%
%TD*%
%TA.AperFunction,SMDPad,CuDef*%
%ADD26R,0.900000X1.200000*%
%TD*%
%TA.AperFunction,SMDPad,CuDef*%
%ADD27R,1.300000X1.800000*%
%TD*%
%TA.AperFunction,SMDPad,CuDef*%
%ADD28RoundRect,0.135000X0.135000X0.185000X-0.135000X0.185000X-0.135000X-0.185000X0.135000X-0.185000X0*%
%TD*%
%TA.AperFunction,SMDPad,CuDef*%
%ADD29RoundRect,0.135000X-0.185000X0.135000X-0.185000X-0.135000X0.185000X-0.135000X0.185000X0.135000X0*%
%TD*%
%TA.AperFunction,ViaPad*%
%ADD30C,0.450000*%
%TD*%
%TA.AperFunction,ViaPad*%
%ADD31C,0.800000*%
%TD*%
%TA.AperFunction,Conductor*%
%ADD32C,0.500000*%
%TD*%
%TA.AperFunction,Conductor*%
%ADD33C,0.200000*%
%TD*%
%TA.AperFunction,Conductor*%
%ADD34C,0.250000*%
%TD*%
%TA.AperFunction,Conductor*%
%ADD35C,0.300000*%
%TD*%
%TA.AperFunction,Conductor*%
%ADD36C,0.600000*%
%TD*%
%TA.AperFunction,Conductor*%
%ADD37C,1.000000*%
%TD*%
%TA.AperFunction,Conductor*%
%ADD38C,0.127000*%
%TD*%
G04 APERTURE END LIST*
D10*
%TO.C,ANT1*%
X56250000Y-75050000D02*
X52000000Y-75050000D01*
X52000000Y-75050000D02*
X52000000Y-74550000D01*
X52000000Y-74550000D02*
X56250000Y-74550000D01*
X56250000Y-74550000D02*
X56250000Y-75050000D01*
G36*
X56250000Y-75050000D02*
G01*
X52000000Y-75050000D01*
X52000000Y-74550000D01*
X56250000Y-74550000D01*
X56250000Y-75050000D01*
G37*
X52500000Y-74850000D02*
X52000000Y-74850000D01*
X52000000Y-74850000D02*
X52000000Y-78500000D01*
X52000000Y-78500000D02*
X52500000Y-78500000D01*
X52500000Y-78500000D02*
X52500000Y-74850000D01*
G36*
X52500000Y-74850000D02*
G01*
X52000000Y-74850000D01*
X52000000Y-78500000D01*
X52500000Y-78500000D01*
X52500000Y-74850000D01*
G37*
%TD*%
D11*
%TO.P,J5,1,Pin_1*%
%TO.N,+3V3*%
X95550000Y-92100000D03*
D12*
%TO.P,J5,2,Pin_2*%
%TO.N,Net-(J5-Pad2)*%
X97550000Y-93600000D03*
%TO.P,J5,3,Pin_3*%
%TO.N,Net-(J5-Pad3)*%
X95550000Y-95100000D03*
%TO.P,J5,4,Pin_4*%
%TO.N,GND*%
X97550000Y-96600000D03*
%TD*%
D13*
%TO.P,J10,1,Pin_1*%
%TO.N,+3V3*%
X85050000Y-122725000D03*
D14*
%TO.P,J10,2,Pin_2*%
%TO.N,/RP_UART0_RX*%
X83550000Y-124725000D03*
%TO.P,J10,3,Pin_3*%
%TO.N,/RP_UART0_TX*%
X82050000Y-122725000D03*
%TO.P,J10,4,Pin_4*%
%TO.N,GND*%
X80550000Y-124725000D03*
%TD*%
D15*
%TO.P,ANT1,2*%
%TO.N,N/C*%
X52250000Y-77750000D03*
X52250000Y-74800000D03*
X52250000Y-75700000D03*
X52250000Y-76750000D03*
X55650000Y-74800000D03*
X53400000Y-74800000D03*
X54500000Y-74800000D03*
%TD*%
D16*
%TO.P,J1,S1,SHELL_GND*%
%TO.N,Net-(J1-PadS1)*%
X58015000Y-113517500D03*
D17*
%TO.P,J1,S2,SHELL_GND*%
X53835000Y-113517500D03*
%TO.P,J1,S3,SHELL_GND*%
X53835000Y-122157500D03*
D16*
%TO.P,J1,S4,SHELL_GND*%
X58015000Y-122157500D03*
%TD*%
D13*
%TO.P,J9,1,Pin_1*%
%TO.N,+3V3*%
X98300000Y-122725000D03*
D14*
%TO.P,J9,2,Pin_2*%
%TO.N,/RP_SPI0_CLK*%
X96800000Y-124725000D03*
%TO.P,J9,3,Pin_3*%
%TO.N,/RP_SPI0_CS*%
X95300000Y-122725000D03*
%TO.P,J9,4,Pin_4*%
%TO.N,/RP_SPI0_MISO*%
X93800000Y-124725000D03*
%TO.P,J9,5,Pin_5*%
%TO.N,/RP_SPI0_MOSI*%
X92300000Y-122725000D03*
%TO.P,J9,6,Pin_6*%
%TO.N,GND*%
X90800000Y-124725000D03*
%TD*%
D18*
%TO.P,J11,1,Pin_1*%
%TO.N,GND*%
X98000000Y-101250000D03*
D19*
%TO.P,J11,2,Pin_2*%
%TO.N,/RP_SWDIO*%
X98000000Y-102520000D03*
%TO.P,J11,3,Pin_3*%
%TO.N,/RP_SWCLK*%
X98000000Y-103790000D03*
%TO.P,J11,4,Pin_4*%
%TO.N,Net-(J11-Pad4)*%
X98000000Y-105060000D03*
%TD*%
D20*
%TO.P,J12,1,Pin_1*%
%TO.N,/VIN*%
X54300000Y-108750000D03*
D21*
%TO.P,J12,2,Pin_2*%
%TO.N,GND*%
X56800000Y-108750000D03*
%TD*%
D22*
%TO.P,C41,1*%
%TO.N,/M66_SIM1_VDD*%
X69020000Y-90000000D03*
%TO.P,C41,2*%
%TO.N,/M66_SIM_GND*%
X69980000Y-90000000D03*
%TD*%
D23*
%TO.P,C40,1*%
%TO.N,/M66_SIM1_DATA*%
X75250000Y-90020000D03*
%TO.P,C40,2*%
%TO.N,GND*%
X75250000Y-90980000D03*
%TD*%
D24*
%TO.P,C36,1*%
%TO.N,/M66_SIM1_VDD*%
X68960000Y-91000000D03*
%TO.P,C36,2*%
%TO.N,GND*%
X68000000Y-91000000D03*
%TD*%
D25*
%TO.P,R59,1*%
%TO.N,/M66_SIM1_RST*%
X72000000Y-91010000D03*
%TO.P,R59,2*%
%TO.N,/M66_SIM1_RST_S*%
X72000000Y-89990000D03*
%TD*%
D23*
%TO.P,C37,1*%
%TO.N,/M66_SIM1_RST*%
X71000000Y-90020000D03*
%TO.P,C37,2*%
%TO.N,GND*%
X71000000Y-90980000D03*
%TD*%
D26*
%TO.P,J7,C1,VCC*%
%TO.N,/M66_SIM1_VDD*%
X68825000Y-88050000D03*
%TO.P,J7,C2,RST*%
%TO.N,/M66_SIM1_RST_S*%
X71365000Y-88050000D03*
%TO.P,J7,C3,CLK*%
%TO.N,/M66_SIM1_CLK_S*%
X73905000Y-88050000D03*
%TO.P,J7,C5,GND*%
%TO.N,/M66_SIM_GND*%
X70095000Y-88050000D03*
%TO.P,J7,C6,VPP*%
%TO.N,unconnected-(J7-PadC6)*%
X72635000Y-88050000D03*
%TO.P,J7,C7,IO*%
%TO.N,/M66_SIM1_DATA*%
X75175000Y-88050000D03*
D27*
%TO.P,J7,S1,SHIELD*%
%TO.N,Net-(J7-PadS1)*%
X65850000Y-83950000D03*
%TO.P,J7,S2,SHIELD*%
X78150000Y-83950000D03*
%TO.P,J7,S3,SHIELD*%
X78150000Y-75150000D03*
%TO.P,J7,SW,SW*%
%TO.N,unconnected-(J7-PadSW)*%
X65850000Y-75150000D03*
%TD*%
D25*
%TO.P,R58,1*%
%TO.N,/M66_SIM1_CLK*%
X74000000Y-91010000D03*
%TO.P,R58,2*%
%TO.N,/M66_SIM1_CLK_S*%
X74000000Y-89990000D03*
%TD*%
D23*
%TO.P,C39,1*%
%TO.N,/M66_SIM1_CLK_S*%
X73000000Y-90020000D03*
%TO.P,C39,2*%
%TO.N,GND*%
X73000000Y-90980000D03*
%TD*%
D28*
%TO.P,R40,1*%
%TO.N,GND*%
X58910000Y-112100000D03*
%TO.P,R40,2*%
%TO.N,Net-(J1-PadS1)*%
X57890000Y-112100000D03*
%TD*%
D29*
%TO.P,R53,1*%
%TO.N,/M66_SIM1_VDD*%
X76500000Y-89990000D03*
%TO.P,R53,2*%
%TO.N,/M66_SIM1_DATA*%
X76500000Y-91010000D03*
%TD*%
D30*
%TO.N,/M66_NETLIGHT*%
X55400000Y-122700000D03*
%TO.N,GND*%
X57750000Y-126500000D03*
X69250000Y-114250000D03*
%TO.N,/AP623_EN*%
X69499500Y-113206119D03*
%TO.N,GND*%
X78750000Y-123250000D03*
X56250000Y-99750000D03*
X63000000Y-116000000D03*
X56250000Y-94250000D03*
X92500000Y-128000000D03*
X67000000Y-81000000D03*
D31*
X60800000Y-97700000D03*
D30*
X60500000Y-93000000D03*
X100750000Y-123250000D03*
X76750000Y-83500000D03*
X70000000Y-122500000D03*
X91750000Y-89250000D03*
D31*
X90250000Y-111500000D03*
D30*
X61250000Y-106000000D03*
X80500000Y-119800000D03*
X75000000Y-115000000D03*
X92642747Y-76618247D03*
X67000000Y-75000000D03*
X83500000Y-114500000D03*
D31*
X98250000Y-108500000D03*
X77000000Y-127400000D03*
D30*
X53750000Y-112500000D03*
X76500000Y-80750000D03*
X65250000Y-117750000D03*
X81000000Y-121750000D03*
X71250000Y-116500000D03*
X85000000Y-78700000D03*
X81000000Y-87750000D03*
X100750000Y-120500000D03*
X64250000Y-74000000D03*
X55000000Y-98750000D03*
X54750000Y-93250000D03*
X98250000Y-95000000D03*
X73000000Y-79000000D03*
X64000000Y-100000000D03*
X71000000Y-77000000D03*
X90500000Y-128000000D03*
X69000000Y-74000000D03*
X79500000Y-82250000D03*
X56750000Y-103750000D03*
X53750000Y-84500000D03*
X71750000Y-105250000D03*
X82500000Y-78500000D03*
X79500000Y-84000000D03*
X62500000Y-80250000D03*
D31*
X63000000Y-96100000D03*
D30*
X52750000Y-90250000D03*
X69500000Y-112000000D03*
X100750000Y-126250000D03*
X59750000Y-87250000D03*
X71000000Y-74000000D03*
X70000000Y-101500000D03*
X73000000Y-75000000D03*
X55750000Y-117000000D03*
X56000000Y-79500000D03*
X77750000Y-80750000D03*
X67750000Y-121000000D03*
X59250000Y-106000000D03*
X78500000Y-104250000D03*
D31*
X75750000Y-124750000D03*
D30*
X57250000Y-97000000D03*
X73750000Y-116500000D03*
X57000000Y-88250000D03*
X71000000Y-109750000D03*
X84500000Y-128000000D03*
X57000000Y-89250000D03*
X56000000Y-88250000D03*
X51750000Y-80750000D03*
X80750000Y-117250000D03*
X52750000Y-103750000D03*
X82500000Y-128000000D03*
D31*
X59800000Y-121300000D03*
D30*
X79000000Y-89500000D03*
D31*
X99250000Y-108500000D03*
D30*
X73750000Y-103000000D03*
X80800000Y-94300000D03*
X100750000Y-128000000D03*
X52750000Y-99750000D03*
X65750000Y-88250000D03*
X75750000Y-112000000D03*
X73000000Y-77000000D03*
X91250000Y-77250000D03*
X83750000Y-122500000D03*
X58000000Y-77250000D03*
X78750000Y-124750000D03*
X52750000Y-104750000D03*
X62500000Y-83250000D03*
X70750000Y-112000000D03*
X55750000Y-83250000D03*
D31*
X70300000Y-127400000D03*
D30*
X61750000Y-74000000D03*
X60500000Y-124750000D03*
X70000000Y-121000000D03*
X51750000Y-123250000D03*
D31*
X73000000Y-84000000D03*
D30*
X51750000Y-105750000D03*
X52750000Y-105750000D03*
X78250000Y-92000000D03*
X57000000Y-84500000D03*
X64000000Y-82250000D03*
X61750000Y-109500000D03*
X93000000Y-123750000D03*
X77750000Y-107750000D03*
X60250000Y-112250000D03*
X78250000Y-93000000D03*
X54750000Y-103750000D03*
X80000000Y-104750000D03*
X62750000Y-114500000D03*
X95250000Y-116000000D03*
X75500000Y-103000000D03*
X64000000Y-84250000D03*
D31*
X61900000Y-123600000D03*
D30*
X100750000Y-124750000D03*
X57000000Y-86250000D03*
X57750000Y-104750000D03*
X59250000Y-108500000D03*
X51750000Y-100750000D03*
X91750000Y-74250000D03*
X86900000Y-121750000D03*
X51750000Y-104750000D03*
X69000000Y-93000000D03*
X56750000Y-104750000D03*
X52750000Y-79500000D03*
X62250000Y-115250000D03*
X51750000Y-96750000D03*
X71000000Y-75000000D03*
X61250000Y-107500000D03*
X53750000Y-91250000D03*
X56750000Y-128000000D03*
X54750000Y-92250000D03*
X72500000Y-95250000D03*
X51750000Y-93250000D03*
X65250000Y-119500000D03*
X78750000Y-80750000D03*
X85100000Y-95700000D03*
X51750000Y-91250000D03*
X98500000Y-128000000D03*
X57250000Y-79500000D03*
X51750000Y-92250000D03*
X62500000Y-84500000D03*
D31*
X88500000Y-111500000D03*
D30*
X84250000Y-103750000D03*
X88500000Y-128000000D03*
X57000000Y-87250000D03*
X64000000Y-77250000D03*
D31*
X90800000Y-85500000D03*
X95700000Y-113200000D03*
D30*
X63000000Y-119500000D03*
X92750000Y-116750000D03*
X53750000Y-92250000D03*
X78750000Y-126250000D03*
X57250000Y-93250000D03*
X85800000Y-114000000D03*
X80000000Y-112750000D03*
X54750000Y-79500000D03*
X90500000Y-74250000D03*
X83750000Y-77250000D03*
X58500000Y-86250000D03*
X60250000Y-109500000D03*
X58000000Y-74000000D03*
X82500000Y-77250000D03*
X57250000Y-81000000D03*
X59750000Y-82250000D03*
X63000000Y-74000000D03*
X68500000Y-120250000D03*
X91000000Y-80000000D03*
X98000000Y-99250000D03*
X80000000Y-74000000D03*
D31*
X59750000Y-122250000D03*
D30*
X61250000Y-84500000D03*
X87750000Y-88500000D03*
X99750000Y-90750000D03*
D31*
X90250000Y-110000000D03*
X63000000Y-97700000D03*
D30*
X51750000Y-107750000D03*
X90750000Y-92750000D03*
X95500000Y-99250000D03*
X52750000Y-98750000D03*
X53750000Y-102750000D03*
X68500000Y-121000000D03*
X59750000Y-102750000D03*
X51750000Y-103750000D03*
X74500000Y-110750000D03*
X62500000Y-101500000D03*
X79250000Y-107000000D03*
X69000000Y-81000000D03*
X61250000Y-81250000D03*
X56250000Y-98750000D03*
X56750000Y-102750000D03*
X51750000Y-89250000D03*
X52750000Y-91250000D03*
D31*
X75750000Y-125750000D03*
D30*
X77750000Y-110500000D03*
X61250000Y-117000000D03*
X95000000Y-83250000D03*
X51750000Y-101750000D03*
X60500000Y-75250000D03*
D31*
X60800000Y-96100000D03*
D30*
X70750000Y-114000000D03*
D31*
X69500000Y-84000000D03*
D30*
X96000000Y-96500000D03*
X61250000Y-83250000D03*
X56900000Y-111800000D03*
X57250000Y-99000000D03*
X58000000Y-79250000D03*
X77750000Y-106500000D03*
X51750000Y-97750000D03*
X60250000Y-79250000D03*
X80500000Y-80750000D03*
X89750000Y-103250000D03*
X64000000Y-101500000D03*
X63500000Y-110750000D03*
X83000000Y-91750000D03*
X97000000Y-117500000D03*
X96750000Y-100250000D03*
X59250000Y-74000000D03*
X86100000Y-78700000D03*
X69000000Y-77000000D03*
X85100000Y-92800000D03*
X76500000Y-77250000D03*
X61250000Y-82250000D03*
X56000000Y-81000000D03*
X88500000Y-125500000D03*
X77000000Y-74000000D03*
X78500000Y-103000000D03*
X85000000Y-107750000D03*
X53750000Y-79500000D03*
X53250000Y-119500000D03*
X62500000Y-81250000D03*
X54750000Y-104750000D03*
X55000000Y-88250000D03*
X95500000Y-100250000D03*
X79250000Y-110250000D03*
X60500000Y-90000000D03*
X69000000Y-75000000D03*
X61750000Y-75250000D03*
X56250000Y-96750000D03*
X69250000Y-120250000D03*
X57000000Y-91000000D03*
X89500000Y-89750000D03*
X80500000Y-96250000D03*
X51750000Y-98750000D03*
X56250000Y-100750000D03*
X90750000Y-93500000D03*
X96750000Y-128000000D03*
X51750000Y-83250000D03*
X94750000Y-96500000D03*
X55750000Y-104750000D03*
X92500000Y-90750000D03*
X59750000Y-83250000D03*
X55000000Y-100750000D03*
X69000000Y-79000000D03*
X62500000Y-79250000D03*
X88500000Y-80000000D03*
X52750000Y-88250000D03*
X66000000Y-101500000D03*
X71000000Y-81000000D03*
X61250000Y-80250000D03*
X83000000Y-89500000D03*
X81500000Y-113250000D03*
D31*
X74800000Y-126700000D03*
D30*
X61750000Y-110750000D03*
X64000000Y-114750000D03*
X61750000Y-76250000D03*
X61250000Y-85250000D03*
X56250000Y-93250000D03*
X89500000Y-79750000D03*
X59750000Y-86250000D03*
X55000000Y-97750000D03*
D31*
X98750000Y-112000000D03*
D30*
X98000000Y-117500000D03*
X60500000Y-76250000D03*
X97250000Y-89250000D03*
X54900000Y-114300000D03*
X55000000Y-99750000D03*
X90750000Y-103250000D03*
X58500000Y-84500000D03*
X86000000Y-81250000D03*
X61250000Y-87250000D03*
X83000000Y-123500000D03*
X82000000Y-85500000D03*
X62500000Y-91500000D03*
X65750000Y-92250000D03*
X56250000Y-95750000D03*
X78750000Y-128000000D03*
X51750000Y-79500000D03*
X73250000Y-112000000D03*
X93000000Y-85500000D03*
X97250000Y-90500000D03*
X100750000Y-121750000D03*
X74500000Y-112000000D03*
X63750000Y-85250000D03*
X54750000Y-102750000D03*
X52750000Y-102750000D03*
X62000000Y-93000000D03*
X72750000Y-115000000D03*
X72500000Y-92500000D03*
X90500000Y-95500000D03*
X77750000Y-105250000D03*
X85000000Y-78000000D03*
X53750000Y-104750000D03*
X60250000Y-107750000D03*
X87750000Y-89750000D03*
X55000000Y-96750000D03*
X61250000Y-78250000D03*
X77000000Y-112000000D03*
X73000000Y-81000000D03*
X51750000Y-82000000D03*
X90750000Y-88000000D03*
X78750000Y-114000000D03*
X60500000Y-74000000D03*
X67000000Y-79000000D03*
X61250000Y-86250000D03*
X58000000Y-78250000D03*
X72500000Y-116500000D03*
X86500000Y-128000000D03*
X97400000Y-123500000D03*
X52750000Y-84500000D03*
X100750000Y-119250000D03*
X71750000Y-101500000D03*
X51750000Y-90250000D03*
X62500000Y-82250000D03*
X88500000Y-121750000D03*
X51750000Y-88250000D03*
X67750000Y-120250000D03*
X51750000Y-110000000D03*
X54750000Y-84500000D03*
X86000000Y-106500000D03*
X81250000Y-107250000D03*
X92000000Y-79000000D03*
X58500000Y-85250000D03*
X55000000Y-89250000D03*
X69250000Y-115500000D03*
X81500000Y-112250000D03*
X81000000Y-80250000D03*
X67500000Y-97000000D03*
X66000000Y-100000000D03*
D31*
X61900000Y-124600000D03*
D30*
X57750000Y-102750000D03*
X57000000Y-85250000D03*
X76500000Y-79500000D03*
X80250000Y-86500000D03*
X72000000Y-112000000D03*
X56000000Y-90250000D03*
X64000000Y-79250000D03*
X83000000Y-87750000D03*
X52750000Y-101750000D03*
X53750000Y-93250000D03*
X59000000Y-111200000D03*
X85250000Y-89000000D03*
X57250000Y-100750000D03*
X51750000Y-106750000D03*
X76000000Y-92750000D03*
X60250000Y-80250000D03*
X96750000Y-99250000D03*
X55750000Y-102750000D03*
X59750000Y-84500000D03*
X78250000Y-89500000D03*
X64000000Y-78250000D03*
X95000000Y-86000000D03*
X61250000Y-103750000D03*
X85250000Y-88000000D03*
X55750000Y-103750000D03*
X58500000Y-87250000D03*
X81500000Y-116600000D03*
X78500000Y-115000000D03*
X52750000Y-93250000D03*
X58500000Y-83250000D03*
X71750000Y-103000000D03*
X88500000Y-100500000D03*
X86000000Y-82700000D03*
X69250000Y-121000000D03*
X64000000Y-81250000D03*
X79250000Y-94500000D03*
X70000000Y-121750000D03*
X69000000Y-98500000D03*
X51750000Y-84500000D03*
D31*
X64100000Y-125500000D03*
D30*
X60000000Y-119000000D03*
X57750000Y-103750000D03*
X77750000Y-109250000D03*
X64000000Y-80250000D03*
X51750000Y-99750000D03*
D31*
X75000000Y-85200000D03*
D30*
X84750000Y-74000000D03*
X81250000Y-82250000D03*
X64500000Y-93500000D03*
X64000000Y-83250000D03*
X83750000Y-75000000D03*
X55800000Y-120400000D03*
X85100000Y-91300000D03*
X57000000Y-83250000D03*
X53250000Y-114500000D03*
X73000000Y-74000000D03*
X93250000Y-114250000D03*
X86000000Y-84000000D03*
X56000000Y-89250000D03*
X77500000Y-87250000D03*
X88750000Y-83500000D03*
X85250000Y-85750000D03*
X95250000Y-124250000D03*
X95000000Y-90500000D03*
D31*
X67750000Y-84000000D03*
D30*
X60500000Y-91500000D03*
D31*
X60900000Y-100700000D03*
D30*
X52750000Y-92250000D03*
X68000000Y-101500000D03*
X92750000Y-115500000D03*
X89400000Y-77500000D03*
X53750000Y-103750000D03*
X97250000Y-91250000D03*
X64500000Y-113300000D03*
X51750000Y-111500000D03*
X99500000Y-97750000D03*
X83000000Y-121750000D03*
X76000000Y-94250000D03*
X56900000Y-112700000D03*
X70000000Y-120250000D03*
X99250000Y-119250000D03*
X73750000Y-105250000D03*
X59750000Y-81250000D03*
X61250000Y-79250000D03*
X86000000Y-88500000D03*
X81250000Y-108500000D03*
X82500000Y-103750000D03*
X94500000Y-128000000D03*
D31*
X62900000Y-125500000D03*
D30*
X62250000Y-117000000D03*
X86000000Y-85250000D03*
X55750000Y-84500000D03*
X87000000Y-75000000D03*
X83000000Y-86500000D03*
X90750000Y-101500000D03*
X80000000Y-91000000D03*
X93250000Y-95750000D03*
D31*
X71250000Y-84000000D03*
D30*
X60250000Y-110750000D03*
X63000000Y-75250000D03*
X58750000Y-102750000D03*
X57250000Y-94750000D03*
X85750000Y-75000000D03*
D31*
X61900000Y-99600000D03*
D30*
X77750000Y-95500000D03*
D31*
X86500000Y-119250000D03*
X73000000Y-85200000D03*
D30*
X81200000Y-119800000D03*
X80500000Y-128000000D03*
X80000000Y-106000000D03*
X86400000Y-123300000D03*
X58000000Y-76250000D03*
X78500000Y-85750000D03*
X71000000Y-79000000D03*
X99000000Y-88500000D03*
X62500000Y-78250000D03*
X56250000Y-97750000D03*
X75500000Y-105250000D03*
X93250000Y-89250000D03*
X76250000Y-109750000D03*
X95000000Y-89250000D03*
X67000000Y-77000000D03*
X92000000Y-81000000D03*
X59750000Y-85250000D03*
X76750000Y-85000000D03*
X58750000Y-103750000D03*
X76750000Y-86500000D03*
X52750000Y-89250000D03*
X76750000Y-115000000D03*
X99750000Y-83000000D03*
X62750000Y-88250000D03*
D31*
X88500000Y-110000000D03*
D30*
X73250000Y-110750000D03*
X67000000Y-74000000D03*
X84000000Y-106500000D03*
X97250000Y-95000000D03*
X92750000Y-118250000D03*
X85500000Y-116600000D03*
X75000000Y-74000000D03*
X57000000Y-90250000D03*
X98000000Y-100250000D03*
X61500000Y-88500000D03*
D31*
X64400000Y-122300000D03*
D30*
X66000000Y-98750000D03*
X80750000Y-92750000D03*
X82500000Y-106000000D03*
X81500000Y-111250000D03*
X78300000Y-117200000D03*
X51750000Y-102750000D03*
X78750000Y-121750000D03*
X91000000Y-116750000D03*
X51750000Y-108750000D03*
D31*
X59800000Y-114500000D03*
D30*
X78800000Y-119700000D03*
%TO.N,/VDD_APDS*%
X90800000Y-81400000D03*
X89875000Y-76275000D03*
D31*
%TO.N,+3V3*%
X85915010Y-107685055D03*
X86900000Y-76200000D03*
X89800000Y-96600000D03*
X84079500Y-110449500D03*
X73250000Y-120750000D03*
X71300000Y-122900000D03*
X85000000Y-104500000D03*
X98250000Y-106400000D03*
X72250000Y-120750000D03*
X65100000Y-124700000D03*
X86900000Y-83849500D03*
X93500000Y-96700000D03*
D30*
X80250000Y-88750000D03*
X82550000Y-79400000D03*
D31*
X98302894Y-97990000D03*
X86100000Y-90300000D03*
%TO.N,+4V*%
X66150000Y-125650000D03*
X73000000Y-123799502D03*
%TO.N,/M66_SIM1_CLK_S*%
X74000000Y-87000000D03*
D30*
%TO.N,/LSM_INT2*%
X94000000Y-83500000D03*
D31*
X99215902Y-115370591D03*
D30*
X97850000Y-88150000D03*
D31*
X91636458Y-83298494D03*
%TO.N,/LSM_INT1*%
X98485427Y-116150500D03*
X99000000Y-90250000D03*
D30*
%TO.N,/APDS_INT*%
X84400000Y-75400000D03*
X84200000Y-78800000D03*
D31*
%TO.N,/HDC2021_INT*%
X99200000Y-116800000D03*
D30*
X100250000Y-91250000D03*
D31*
%TO.N,/I2C_SDA*%
X92400000Y-91800000D03*
D30*
X88500000Y-77500000D03*
D31*
X88849500Y-84800000D03*
D30*
X84524500Y-80750000D03*
D31*
X90750500Y-91800000D03*
D30*
X83000000Y-80750000D03*
D31*
X88849500Y-86217000D03*
D30*
X88500000Y-78942747D03*
D31*
%TO.N,/I2C_SCL*%
X92449500Y-94434693D03*
D30*
X87743247Y-78743247D03*
X87750000Y-85000000D03*
D31*
X90800000Y-94400000D03*
D30*
X82000000Y-81000000D03*
X85055131Y-80275500D03*
D31*
%TO.N,/AP623_ENABLE*%
X83800000Y-100800000D03*
X83543247Y-102956753D03*
D30*
%TO.N,/AP623_EN*%
X67250000Y-113750000D03*
%TO.N,/VIN*%
X68206800Y-113706800D03*
X68786494Y-114963506D03*
D31*
X59800000Y-120300000D03*
X59800000Y-115500000D03*
%TO.N,/M66_SIM1_VDD*%
X69000000Y-92000000D03*
%TO.N,/M66_SIM1_CLK*%
X76250000Y-88650000D03*
%TO.N,/M66_SIM1_RST*%
X72000000Y-91010000D03*
%TO.N,/M66_SIM1_DATA*%
X76500000Y-92000000D03*
%TO.N,/M66_SIM_GND*%
X69976944Y-91976944D03*
%TO.N,/M66_NETLIGHT*%
X69091186Y-94125500D03*
X60400000Y-127700000D03*
X65223056Y-97976944D03*
%TO.N,/M66_TXD*%
X78999503Y-100000497D03*
X72200000Y-98800000D03*
%TO.N,/M66_RXD*%
X71200000Y-98800000D03*
X78999503Y-99000497D03*
%TO.N,/M66_CTS*%
X79000000Y-97000000D03*
X70525500Y-96200000D03*
%TO.N,/M66_RTS*%
X79004006Y-97995994D03*
X70525500Y-97149503D03*
%TO.N,/M66_RXD_AUX*%
X79000000Y-101000000D03*
X72200000Y-99850497D03*
%TO.N,/M66_TXD_AUX*%
X72200000Y-100800000D03*
X79000000Y-102000000D03*
D30*
%TO.N,/I2C_SDA_2V8*%
X76450000Y-81750000D03*
X73750000Y-81750000D03*
%TO.N,/I2C_SCL_2V8*%
X73750000Y-83000000D03*
X80500000Y-83000000D03*
D31*
%TO.N,Net-(D3-Pad1)*%
X66509266Y-127709266D03*
X61900000Y-127249500D03*
%TO.N,/M66_RFTXMON*%
X52500000Y-109100000D03*
X64400000Y-97200000D03*
X65900000Y-95800000D03*
X54600000Y-112000000D03*
%TO.N,/CELLULAR_RESET*%
X86200000Y-98900000D03*
X86200000Y-102200000D03*
%TD*%
D32*
%TO.N,Net-(J1-PadS1)*%
X57890000Y-112100000D02*
X57890000Y-113392500D01*
X57890000Y-113392500D02*
X58015000Y-113517500D01*
D33*
%TO.N,/M66_NETLIGHT*%
X56000000Y-123300000D02*
X55400000Y-122700000D01*
X57100000Y-127000000D02*
X57100000Y-124400000D01*
X57600000Y-127500000D02*
X57100000Y-127000000D01*
X57100000Y-124400000D02*
X56000000Y-123300000D01*
D34*
%TO.N,/AP623_EN*%
X68707481Y-113206119D02*
X69499500Y-113206119D01*
X68706800Y-113206800D02*
X68707481Y-113206119D01*
D33*
%TO.N,GND*%
X90500000Y-74475500D02*
X90500000Y-74250000D01*
X92642747Y-76618247D02*
X90500000Y-74475500D01*
D32*
%TO.N,/VDD_APDS*%
X90225000Y-80825000D02*
X90225000Y-76625000D01*
X90225000Y-76625000D02*
X89875000Y-76275000D01*
X90800000Y-81400000D02*
X90225000Y-80825000D01*
D33*
%TO.N,+3V3*%
X85500000Y-110200000D02*
X84329000Y-110200000D01*
D32*
X85050000Y-104450000D02*
X95150000Y-104450000D01*
D35*
X80250000Y-88750000D02*
X83750000Y-88750000D01*
D32*
X85050000Y-122725000D02*
X85050000Y-120950000D01*
D36*
X86900000Y-79400000D02*
X86900000Y-79150000D01*
X86900000Y-79150000D02*
X86900000Y-76200000D01*
D33*
X85884990Y-109815010D02*
X85500000Y-110200000D01*
D37*
X97662500Y-122087500D02*
X98300000Y-122725000D01*
X83000000Y-120750000D02*
X78650000Y-120750000D01*
D32*
X82575000Y-79425000D02*
X86875000Y-79425000D01*
D35*
X85300000Y-90300000D02*
X86100000Y-90300000D01*
D37*
X83000000Y-120750000D02*
X85250000Y-120750000D01*
D32*
X85000000Y-104500000D02*
X85050000Y-104450000D01*
D36*
X86900000Y-83849500D02*
X86900000Y-79400000D01*
D33*
X85884990Y-109815010D02*
X85884990Y-107715075D01*
D37*
X96575000Y-121000000D02*
X97662500Y-122087500D01*
X99350000Y-99037106D02*
X98302894Y-97990000D01*
D32*
X85050000Y-120950000D02*
X85250000Y-120750000D01*
D35*
X67750000Y-124900000D02*
X65300000Y-124900000D01*
X67750000Y-124900000D02*
X70900000Y-124900000D01*
D37*
X78650000Y-120750000D02*
X73500000Y-120750000D01*
D35*
X83750000Y-88750000D02*
X85300000Y-90300000D01*
D37*
X96325000Y-120750000D02*
X97662500Y-122087500D01*
X98250000Y-106400000D02*
X99000000Y-106400000D01*
D32*
X93400000Y-96600000D02*
X93500000Y-96700000D01*
D37*
X85050000Y-122725000D02*
X84975000Y-122725000D01*
X73500000Y-120750000D02*
X72200000Y-120750000D01*
D35*
X65300000Y-124900000D02*
X65100000Y-124700000D01*
D37*
X91190000Y-97990000D02*
X89800000Y-96600000D01*
X99350000Y-106050000D02*
X99350000Y-99037106D01*
D32*
X97100000Y-106400000D02*
X98250000Y-106400000D01*
D37*
X99000000Y-106400000D02*
X99350000Y-106050000D01*
D33*
X84329000Y-110200000D02*
X84079500Y-110449500D01*
D37*
X98302894Y-97990000D02*
X91190000Y-97990000D01*
D35*
X70900000Y-124900000D02*
X71300000Y-124500000D01*
D33*
X85884990Y-107715075D02*
X85915010Y-107685055D01*
D37*
X85250000Y-120750000D02*
X96325000Y-120750000D01*
D32*
X95150000Y-104450000D02*
X97100000Y-106400000D01*
D35*
X71300000Y-124500000D02*
X71300000Y-122900000D01*
D32*
X82550000Y-79400000D02*
X82575000Y-79425000D01*
X86875000Y-79425000D02*
X86900000Y-79400000D01*
D33*
%TO.N,+4V*%
X71049502Y-125750000D02*
X66250000Y-125750000D01*
X66250000Y-125750000D02*
X66150000Y-125650000D01*
X71049502Y-125750000D02*
X73000000Y-123799502D01*
D34*
%TO.N,/M66_SIM1_CLK_S*%
X73000000Y-90020000D02*
X73970000Y-90020000D01*
X73905000Y-89895000D02*
X74000000Y-89990000D01*
X73905000Y-88050000D02*
X73905000Y-89895000D01*
X74000000Y-87000000D02*
X74000000Y-87955000D01*
X73970000Y-90020000D02*
X74000000Y-89990000D01*
X74000000Y-87955000D02*
X73905000Y-88050000D01*
D38*
%TO.N,/LSM_INT2*%
X97850000Y-90100000D02*
X100063500Y-92313500D01*
X100063500Y-114522993D02*
X99215902Y-115370591D01*
X100063500Y-92313500D02*
X100063500Y-114522993D01*
X97850000Y-88150000D02*
X97850000Y-90100000D01*
D33*
X94000000Y-83500000D02*
X93798494Y-83298494D01*
X91636458Y-83298494D02*
X93798494Y-83298494D01*
D38*
%TO.N,/LSM_INT1*%
X99000000Y-90250000D02*
X99000000Y-90858262D01*
X100340500Y-92198763D02*
X100340500Y-115113614D01*
X100340500Y-115113614D02*
X99303614Y-116150500D01*
X99303614Y-116150500D02*
X98485427Y-116150500D01*
X99000000Y-90858262D02*
X100340500Y-92198763D01*
D33*
%TO.N,/APDS_INT*%
X84200000Y-78800000D02*
X84400000Y-78600000D01*
X84400000Y-78600000D02*
X84400000Y-75400000D01*
D38*
%TO.N,/HDC2021_INT*%
X99200000Y-116800000D02*
X100617500Y-115382500D01*
X100617500Y-115382500D02*
X100617500Y-92117500D01*
X100617500Y-91617500D02*
X100617500Y-92117500D01*
X100250000Y-91250000D02*
X100617500Y-91617500D01*
D34*
%TO.N,/I2C_SDA*%
X90750500Y-91800000D02*
X92400000Y-91800000D01*
D33*
X88500000Y-77500000D02*
X88500000Y-78942747D01*
D38*
X84524500Y-80750000D02*
X83000000Y-80750000D01*
D33*
X88849500Y-86217000D02*
X88849500Y-84800000D01*
%TO.N,/I2C_SCL*%
X87750000Y-78750000D02*
X87743247Y-78743247D01*
X90834693Y-94434693D02*
X90800000Y-94400000D01*
X92449500Y-94434693D02*
X90834693Y-94434693D01*
X87750000Y-85000000D02*
X87750000Y-78750000D01*
D38*
X82724500Y-80275500D02*
X82000000Y-81000000D01*
X85055131Y-80275500D02*
X82724500Y-80275500D01*
D33*
%TO.N,/AP623_ENABLE*%
X83586494Y-103000000D02*
X83543247Y-102956753D01*
X83543247Y-102956753D02*
X83543247Y-101056753D01*
X83543247Y-101056753D02*
X83800000Y-100800000D01*
D32*
%TO.N,Net-(J1-PadS1)*%
X58240000Y-122382500D02*
X58015000Y-122157500D01*
D34*
%TO.N,/AP623_EN*%
X68706800Y-113206800D02*
X67793200Y-113206800D01*
X67793200Y-113206800D02*
X67250000Y-113750000D01*
%TO.N,/VIN*%
X68206800Y-114383812D02*
X68786494Y-114963506D01*
D36*
X59800000Y-120300000D02*
X58500000Y-120300000D01*
D34*
X68206800Y-113706800D02*
X68206800Y-114383812D01*
D36*
X58500000Y-120300000D02*
X57900000Y-119700000D01*
X58400000Y-115500000D02*
X57950000Y-115950000D01*
X59800000Y-115500000D02*
X58400000Y-115500000D01*
D37*
X55900000Y-111300000D02*
X54300000Y-109700000D01*
X54300000Y-109700000D02*
X54300000Y-108750000D01*
X57100000Y-116800000D02*
X57950000Y-115950000D01*
X57100000Y-116800000D02*
X57100000Y-118900000D01*
X55900000Y-115600000D02*
X55900000Y-111300000D01*
X57100000Y-118900000D02*
X57900000Y-119700000D01*
X57100000Y-116800000D02*
X55900000Y-115600000D01*
D34*
%TO.N,/M66_SIM1_VDD*%
X77325000Y-89165000D02*
X76500000Y-89990000D01*
X69020000Y-90000000D02*
X69020000Y-88245000D01*
X68960000Y-90060000D02*
X69020000Y-90000000D01*
X68825000Y-88050000D02*
X68825000Y-87720000D01*
X70345000Y-86200000D02*
X75365686Y-86200000D01*
X68825000Y-87720000D02*
X70345000Y-86200000D01*
X77325000Y-88159314D02*
X77325000Y-89165000D01*
X69020000Y-88245000D02*
X68825000Y-88050000D01*
X68960000Y-91000000D02*
X68960000Y-90060000D01*
X75365686Y-86200000D02*
X77325000Y-88159314D01*
X69000000Y-92000000D02*
X69000000Y-91040000D01*
X69000000Y-91040000D02*
X68960000Y-91000000D01*
%TO.N,/M66_SIM1_CLK*%
X74600000Y-90410000D02*
X74600000Y-89773101D01*
X75900000Y-89000000D02*
X76250000Y-88650000D01*
X75373101Y-89000000D02*
X75900000Y-89000000D01*
X74600000Y-89773101D02*
X75373101Y-89000000D01*
X74000000Y-91010000D02*
X74600000Y-90410000D01*
%TO.N,/M66_SIM1_RST*%
X71990000Y-91010000D02*
X71000000Y-90020000D01*
X72000000Y-91010000D02*
X71990000Y-91010000D01*
%TO.N,/M66_SIM1_DATA*%
X75510000Y-90020000D02*
X76500000Y-91010000D01*
X76140686Y-89325000D02*
X76529595Y-89325000D01*
X75445686Y-90020000D02*
X76140686Y-89325000D01*
X76500000Y-92000000D02*
X76500000Y-91010000D01*
X75250000Y-90020000D02*
X75445686Y-90020000D01*
X76925000Y-88929595D02*
X76925000Y-88325000D01*
X76510000Y-91000000D02*
X76500000Y-91010000D01*
X75250000Y-90020000D02*
X75510000Y-90020000D01*
X75175000Y-89945000D02*
X75250000Y-90020000D01*
X75250000Y-87975000D02*
X75175000Y-88050000D01*
X76529595Y-89325000D02*
X76925000Y-88929595D01*
X76925000Y-88325000D02*
X76575000Y-87975000D01*
X76575000Y-87975000D02*
X75250000Y-87975000D01*
%TO.N,/M66_SIM_GND*%
X69980000Y-90000000D02*
X69980000Y-88165000D01*
X69980000Y-91780000D02*
X69976944Y-91783056D01*
X69980000Y-90000000D02*
X69980000Y-91780000D01*
X69976944Y-91783056D02*
X69976944Y-91976944D01*
X69980000Y-88165000D02*
X70095000Y-88050000D01*
%TO.N,/M66_SIM1_RST_S*%
X72000000Y-89600000D02*
X72000000Y-89990000D01*
X71365000Y-88965000D02*
X72000000Y-89600000D01*
X71365000Y-88050000D02*
X71365000Y-88965000D01*
%TO.N,/M66_NETLIGHT*%
X65223056Y-97976944D02*
X69074500Y-94125500D01*
D33*
X57800000Y-127700000D02*
X57600000Y-127500000D01*
X60400000Y-127700000D02*
X57800000Y-127700000D01*
D34*
X69074500Y-94125500D02*
X69091186Y-94125500D01*
%TO.N,/M66_TXD*%
X76400000Y-99500000D02*
X75700000Y-98800000D01*
X75700000Y-98800000D02*
X72200000Y-98800000D01*
X78999503Y-100000497D02*
X76900497Y-100000497D01*
X76900497Y-100000497D02*
X76400000Y-99500000D01*
%TO.N,/M66_RXD*%
X72200000Y-97900000D02*
X72145405Y-97900000D01*
X76000000Y-97900000D02*
X72200000Y-97900000D01*
X76800000Y-98700000D02*
X76000000Y-97900000D01*
X78999503Y-99000497D02*
X77100497Y-99000497D01*
X71245405Y-98800000D02*
X71200000Y-98800000D01*
X72145405Y-97900000D02*
X71245405Y-98800000D01*
X77100497Y-99000497D02*
X76800000Y-98700000D01*
%TO.N,/M66_CTS*%
X77000000Y-97000000D02*
X76800000Y-96800000D01*
X79000000Y-97000000D02*
X77000000Y-97000000D01*
X76200000Y-96200000D02*
X72500000Y-96200000D01*
X76800000Y-96800000D02*
X76200000Y-96200000D01*
X72500000Y-96200000D02*
X72200000Y-96200000D01*
X72200000Y-96200000D02*
X70525500Y-96200000D01*
%TO.N,/M66_RTS*%
X72900000Y-97000000D02*
X72400000Y-97000000D01*
X79004006Y-97995994D02*
X77095994Y-97995994D01*
X76700000Y-97600000D02*
X76100000Y-97000000D01*
X72400000Y-97000000D02*
X72300000Y-97000000D01*
X70675003Y-97000000D02*
X70525500Y-97149503D01*
X77095994Y-97995994D02*
X76700000Y-97600000D01*
X72400000Y-97000000D02*
X70675003Y-97000000D01*
X76100000Y-97000000D02*
X72900000Y-97000000D01*
%TO.N,/M66_RXD_AUX*%
X72200000Y-99850497D02*
X75416183Y-99850497D01*
X75416183Y-99850497D02*
X75482843Y-99917157D01*
X75482843Y-99917157D02*
X76565685Y-101000000D01*
X76565685Y-101000000D02*
X79000000Y-101000000D01*
%TO.N,/M66_TXD_AUX*%
X77000000Y-102000000D02*
X79000000Y-102000000D01*
X75800000Y-100800000D02*
X77000000Y-102000000D01*
X72200000Y-100800000D02*
X75800000Y-100800000D01*
D38*
%TO.N,/I2C_SDA_2V8*%
X73750000Y-81750000D02*
X76450000Y-81750000D01*
%TO.N,/I2C_SCL_2V8*%
X80336500Y-82836500D02*
X80500000Y-83000000D01*
X73913500Y-82836500D02*
X80336500Y-82836500D01*
X73750000Y-83000000D02*
X73913500Y-82836500D01*
D34*
%TO.N,Net-(D3-Pad1)*%
X62359766Y-127709266D02*
X61900000Y-127249500D01*
X66509266Y-127709266D02*
X62359766Y-127709266D01*
D33*
%TO.N,/M66_RFTXMON*%
X54200000Y-112000000D02*
X54600000Y-112000000D01*
X64400000Y-97200000D02*
X65800000Y-95800000D01*
X65800000Y-95800000D02*
X65900000Y-95800000D01*
X53650001Y-111450001D02*
X54200000Y-112000000D01*
X53650001Y-110250001D02*
X53650001Y-111450001D01*
X52500000Y-109100000D02*
X53650001Y-110250001D01*
%TO.N,/CELLULAR_RESET*%
X86200000Y-102200000D02*
X86200000Y-98900000D01*
%TD*%
%TA.AperFunction,Conductor*%
%TO.N,GND*%
G36*
X92425500Y-73720462D02*
G01*
X92480038Y-73775000D01*
X92500000Y-73849500D01*
X92500000Y-82500000D01*
X96899864Y-82500000D01*
X96974364Y-82519962D01*
X97028902Y-82574500D01*
X97048864Y-82649000D01*
X97028902Y-82723500D01*
X96974364Y-82778038D01*
X96947758Y-82790093D01*
X96853186Y-82822196D01*
X96848573Y-82823762D01*
X96572229Y-82960040D01*
X96568182Y-82962744D01*
X96568177Y-82962747D01*
X96483986Y-83019002D01*
X96316036Y-83131222D01*
X96084380Y-83334380D01*
X95881222Y-83566036D01*
X95710040Y-83822228D01*
X95573762Y-84098573D01*
X95474720Y-84390341D01*
X95473771Y-84395114D01*
X95473769Y-84395120D01*
X95415560Y-84687758D01*
X95414609Y-84692540D01*
X95414290Y-84697401D01*
X95414290Y-84697404D01*
X95400105Y-84913834D01*
X95394457Y-85000000D01*
X95394776Y-85004867D01*
X95408912Y-85220533D01*
X95414609Y-85307460D01*
X95415560Y-85312239D01*
X95415560Y-85312242D01*
X95439144Y-85430804D01*
X95474720Y-85609659D01*
X95573762Y-85901427D01*
X95710040Y-86177771D01*
X95712744Y-86181818D01*
X95712747Y-86181823D01*
X95736252Y-86217000D01*
X95881222Y-86433964D01*
X96084380Y-86665620D01*
X96316036Y-86868778D01*
X96444756Y-86954786D01*
X96568177Y-87037253D01*
X96568182Y-87037256D01*
X96572229Y-87039960D01*
X96848573Y-87176238D01*
X97140341Y-87275280D01*
X97145114Y-87276229D01*
X97145120Y-87276231D01*
X97437758Y-87334440D01*
X97437761Y-87334440D01*
X97442540Y-87335391D01*
X97447401Y-87335710D01*
X97447404Y-87335710D01*
X97670633Y-87350341D01*
X97673059Y-87350500D01*
X97826941Y-87350500D01*
X97829367Y-87350341D01*
X98052596Y-87335710D01*
X98052599Y-87335710D01*
X98057460Y-87335391D01*
X98062239Y-87334440D01*
X98062242Y-87334440D01*
X98354880Y-87276231D01*
X98354886Y-87276229D01*
X98359659Y-87275280D01*
X98651427Y-87176238D01*
X98927771Y-87039960D01*
X98931818Y-87037256D01*
X98931823Y-87037253D01*
X99055244Y-86954786D01*
X99183964Y-86868778D01*
X99415620Y-86665620D01*
X99618778Y-86433964D01*
X99789960Y-86177772D01*
X99926238Y-85901427D01*
X100025280Y-85609659D01*
X100060857Y-85430804D01*
X100084440Y-85312242D01*
X100084440Y-85312239D01*
X100085391Y-85307460D01*
X100091089Y-85220533D01*
X100105224Y-85004867D01*
X100105543Y-85000000D01*
X100099895Y-84913834D01*
X100085710Y-84697404D01*
X100085710Y-84697401D01*
X100085391Y-84692540D01*
X100084440Y-84687758D01*
X100026231Y-84395120D01*
X100026229Y-84395114D01*
X100025280Y-84390341D01*
X99926238Y-84098573D01*
X99789960Y-83822229D01*
X99786523Y-83817084D01*
X99648378Y-83610336D01*
X99618778Y-83566036D01*
X99415620Y-83334380D01*
X99183964Y-83131222D01*
X99016014Y-83019002D01*
X98931823Y-82962747D01*
X98931818Y-82962744D01*
X98927771Y-82960040D01*
X98651427Y-82823762D01*
X98646814Y-82822196D01*
X98552242Y-82790093D01*
X98488112Y-82747243D01*
X98453999Y-82678069D01*
X98459043Y-82601106D01*
X98501893Y-82536976D01*
X98571067Y-82502863D01*
X98600136Y-82500000D01*
X100900500Y-82500000D01*
X100975000Y-82519962D01*
X101029538Y-82574500D01*
X101049500Y-82649000D01*
X101049500Y-91313165D01*
X101029538Y-91387665D01*
X100975000Y-91442203D01*
X100900500Y-91462165D01*
X100826000Y-91442203D01*
X100809336Y-91429416D01*
X100807833Y-91427167D01*
X100796778Y-91419780D01*
X100795141Y-91418524D01*
X100793621Y-91417004D01*
X100775415Y-91402063D01*
X100722611Y-91349259D01*
X100684047Y-91282464D01*
X100680241Y-91253555D01*
X100680804Y-91250000D01*
X100659719Y-91116874D01*
X100598528Y-90996780D01*
X100503220Y-90901472D01*
X100383126Y-90840281D01*
X100250000Y-90819196D01*
X100116874Y-90840281D01*
X99996780Y-90901472D01*
X99901472Y-90996780D01*
X99896150Y-91007225D01*
X99863070Y-91072148D01*
X99811461Y-91129465D01*
X99738108Y-91153299D01*
X99662665Y-91137263D01*
X99624951Y-91109862D01*
X99587237Y-91072148D01*
X99415283Y-90900193D01*
X99376720Y-90833400D01*
X99376720Y-90756272D01*
X99415284Y-90689477D01*
X99420533Y-90684228D01*
X99428282Y-90678282D01*
X99524536Y-90552841D01*
X99542441Y-90509616D01*
X99581307Y-90415784D01*
X99585044Y-90406762D01*
X99588599Y-90379763D01*
X99604407Y-90259685D01*
X99605682Y-90250000D01*
X99599761Y-90205028D01*
X99586319Y-90102921D01*
X99586319Y-90102919D01*
X99585044Y-90093238D01*
X99580707Y-90082768D01*
X99528274Y-89956183D01*
X99528274Y-89956182D01*
X99524536Y-89947159D01*
X99428282Y-89821718D01*
X99302841Y-89725464D01*
X99286495Y-89718693D01*
X99165784Y-89668693D01*
X99156762Y-89664956D01*
X99147081Y-89663681D01*
X99147079Y-89663681D01*
X99009685Y-89645593D01*
X99000000Y-89644318D01*
X98990315Y-89645593D01*
X98852921Y-89663681D01*
X98852919Y-89663681D01*
X98843238Y-89664956D01*
X98834216Y-89668693D01*
X98713506Y-89718693D01*
X98697159Y-89725464D01*
X98571718Y-89821718D01*
X98475464Y-89947159D01*
X98471726Y-89956182D01*
X98471726Y-89956183D01*
X98442192Y-90027484D01*
X98395239Y-90088674D01*
X98323982Y-90118189D01*
X98247514Y-90108122D01*
X98199175Y-90075823D01*
X98157641Y-90034289D01*
X98119077Y-89967494D01*
X98114000Y-89928930D01*
X98114000Y-88549466D01*
X98133962Y-88474966D01*
X98157641Y-88444107D01*
X98198528Y-88403220D01*
X98259719Y-88283126D01*
X98280804Y-88150000D01*
X98259719Y-88016874D01*
X98198528Y-87896780D01*
X98103220Y-87801472D01*
X97983126Y-87740281D01*
X97850000Y-87719196D01*
X97716874Y-87740281D01*
X97596780Y-87801472D01*
X97501472Y-87896780D01*
X97440281Y-88016874D01*
X97419196Y-88150000D01*
X97440281Y-88283126D01*
X97501472Y-88403220D01*
X97542359Y-88444107D01*
X97580923Y-88510902D01*
X97586000Y-88549466D01*
X97586000Y-90059324D01*
X97583691Y-90082768D01*
X97583691Y-90085606D01*
X97580828Y-90100000D01*
X97586000Y-90126002D01*
X97601317Y-90203008D01*
X97659667Y-90290333D01*
X97671870Y-90298487D01*
X97673879Y-90300496D01*
X97692085Y-90315437D01*
X99755859Y-92379212D01*
X99794423Y-92446007D01*
X99799500Y-92484571D01*
X99799500Y-98136231D01*
X99779538Y-98210731D01*
X99725000Y-98265269D01*
X99650500Y-98285231D01*
X99576000Y-98265269D01*
X99545141Y-98241590D01*
X98819025Y-97515474D01*
X98812103Y-97508064D01*
X98780967Y-97472372D01*
X98775063Y-97465604D01*
X98723899Y-97429645D01*
X98717666Y-97425017D01*
X98668437Y-97386416D01*
X98660249Y-97382719D01*
X98652562Y-97378064D01*
X98652660Y-97377902D01*
X98651704Y-97377356D01*
X98651614Y-97377523D01*
X98643691Y-97373275D01*
X98636347Y-97368113D01*
X98627982Y-97364851D01*
X98627979Y-97364850D01*
X98578082Y-97345395D01*
X98570894Y-97342374D01*
X98541858Y-97329264D01*
X98532284Y-97324941D01*
X98472600Y-97276091D01*
X98445336Y-97203943D01*
X98457799Y-97127828D01*
X98473055Y-97101562D01*
X98504129Y-97058792D01*
X98511892Y-97045346D01*
X98582489Y-96886781D01*
X98587288Y-96872013D01*
X98609145Y-96769187D01*
X98608306Y-96753193D01*
X98602041Y-96750000D01*
X96506393Y-96750000D01*
X96490922Y-96754145D01*
X96489102Y-96760939D01*
X96512711Y-96872007D01*
X96517513Y-96886784D01*
X96588108Y-97045344D01*
X96599778Y-97065557D01*
X96597063Y-97067124D01*
X96619249Y-97124954D01*
X96607168Y-97201130D01*
X96558618Y-97261061D01*
X96486608Y-97288687D01*
X96471062Y-97289500D01*
X94106717Y-97289500D01*
X94032217Y-97269538D01*
X93977679Y-97215000D01*
X93957717Y-97140500D01*
X93977679Y-97066000D01*
X93988507Y-97049795D01*
X93998561Y-97036693D01*
X94024536Y-97002841D01*
X94029725Y-96990315D01*
X94081307Y-96865784D01*
X94085044Y-96856762D01*
X94086825Y-96843238D01*
X94104407Y-96709685D01*
X94105682Y-96700000D01*
X94097379Y-96636930D01*
X94086319Y-96552921D01*
X94086319Y-96552919D01*
X94085044Y-96543238D01*
X94048161Y-96454195D01*
X94038476Y-96430813D01*
X96490855Y-96430813D01*
X96491694Y-96446807D01*
X96497959Y-96450000D01*
X97380384Y-96450000D01*
X97395855Y-96445855D01*
X97400000Y-96430384D01*
X97700000Y-96430384D01*
X97704145Y-96445855D01*
X97719616Y-96450000D01*
X98593607Y-96450000D01*
X98609078Y-96445855D01*
X98610898Y-96439061D01*
X98587289Y-96327993D01*
X98582487Y-96313216D01*
X98511892Y-96154656D01*
X98504125Y-96141203D01*
X98402106Y-96000786D01*
X98391710Y-95989240D01*
X98262725Y-95873100D01*
X98250157Y-95863969D01*
X98099841Y-95777185D01*
X98085652Y-95770868D01*
X97920583Y-95717233D01*
X97905381Y-95714001D01*
X97776043Y-95700408D01*
X97768261Y-95700000D01*
X97719616Y-95700000D01*
X97704145Y-95704145D01*
X97700000Y-95719616D01*
X97700000Y-96430384D01*
X97400000Y-96430384D01*
X97400000Y-95719616D01*
X97395855Y-95704145D01*
X97380384Y-95700000D01*
X97331739Y-95700000D01*
X97323957Y-95700408D01*
X97194619Y-95714001D01*
X97179417Y-95717233D01*
X97014348Y-95770868D01*
X97000159Y-95777185D01*
X96849843Y-95863969D01*
X96837275Y-95873100D01*
X96708288Y-95989242D01*
X96697897Y-96000782D01*
X96595872Y-96141206D01*
X96588108Y-96154654D01*
X96517511Y-96313219D01*
X96512712Y-96327987D01*
X96490855Y-96430813D01*
X94038476Y-96430813D01*
X94028274Y-96406183D01*
X94028274Y-96406182D01*
X94024536Y-96397159D01*
X93928282Y-96271718D01*
X93802841Y-96175464D01*
X93752602Y-96154654D01*
X93665784Y-96118693D01*
X93656762Y-96114956D01*
X93647081Y-96113681D01*
X93647079Y-96113681D01*
X93509685Y-96095593D01*
X93500000Y-96094318D01*
X93490315Y-96095593D01*
X93352921Y-96113681D01*
X93352919Y-96113681D01*
X93343238Y-96114956D01*
X93334216Y-96118693D01*
X93247399Y-96154654D01*
X93197159Y-96175464D01*
X93071718Y-96271718D01*
X92975464Y-96397159D01*
X92971726Y-96406182D01*
X92971726Y-96406183D01*
X92951839Y-96454195D01*
X92914956Y-96543238D01*
X92913681Y-96552919D01*
X92913681Y-96552921D01*
X92902621Y-96636930D01*
X92894318Y-96700000D01*
X92895593Y-96709685D01*
X92913176Y-96843238D01*
X92914956Y-96856762D01*
X92918693Y-96865784D01*
X92970276Y-96990315D01*
X92975464Y-97002841D01*
X93001440Y-97036693D01*
X93011493Y-97049795D01*
X93041008Y-97121052D01*
X93030941Y-97197520D01*
X92983988Y-97258710D01*
X92912731Y-97288225D01*
X92893283Y-97289500D01*
X91541874Y-97289500D01*
X91467374Y-97269538D01*
X91436515Y-97245859D01*
X90872572Y-96681915D01*
X90265265Y-96074608D01*
X90165543Y-95996416D01*
X90011016Y-95926645D01*
X89844308Y-95895748D01*
X89835340Y-95896265D01*
X89762823Y-95900446D01*
X89675041Y-95905507D01*
X89666458Y-95908147D01*
X89666455Y-95908148D01*
X89611649Y-95925009D01*
X89512989Y-95955361D01*
X89428737Y-96005784D01*
X89375212Y-96037818D01*
X89375209Y-96037820D01*
X89367505Y-96042431D01*
X89334989Y-96074608D01*
X89253376Y-96155370D01*
X89253374Y-96155373D01*
X89246990Y-96161690D01*
X89242296Y-96169350D01*
X89163093Y-96298598D01*
X89163091Y-96298602D01*
X89158402Y-96306254D01*
X89155673Y-96314804D01*
X89155672Y-96314807D01*
X89118787Y-96430384D01*
X89106854Y-96467775D01*
X89106243Y-96476734D01*
X89106243Y-96476735D01*
X89104463Y-96502841D01*
X89095322Y-96636930D01*
X89124473Y-96803954D01*
X89192621Y-96959202D01*
X89272022Y-97062678D01*
X89275467Y-97066123D01*
X90673868Y-98464525D01*
X90680790Y-98471935D01*
X90717831Y-98514396D01*
X90725180Y-98519561D01*
X90768989Y-98550350D01*
X90775228Y-98554983D01*
X90824457Y-98593584D01*
X90832645Y-98597281D01*
X90840332Y-98601936D01*
X90840234Y-98602098D01*
X90841190Y-98602644D01*
X90841280Y-98602477D01*
X90849203Y-98606725D01*
X90856547Y-98611887D01*
X90864912Y-98615149D01*
X90864915Y-98615150D01*
X90914812Y-98634605D01*
X90921994Y-98637624D01*
X90978984Y-98663355D01*
X90987817Y-98664992D01*
X90996390Y-98667679D01*
X90996333Y-98667860D01*
X90997395Y-98668162D01*
X90997442Y-98667979D01*
X91006143Y-98670213D01*
X91014513Y-98673476D01*
X91023420Y-98674649D01*
X91023422Y-98674649D01*
X91076499Y-98681636D01*
X91084208Y-98682856D01*
X91145692Y-98694252D01*
X91154659Y-98693735D01*
X91206485Y-98690747D01*
X91215061Y-98690500D01*
X97951020Y-98690500D01*
X98025520Y-98710462D01*
X98056379Y-98734141D01*
X98605859Y-99283622D01*
X98644423Y-99350417D01*
X98649500Y-99388981D01*
X98649500Y-100401000D01*
X98629538Y-100475500D01*
X98575000Y-100530038D01*
X98500500Y-100550000D01*
X98169616Y-100550000D01*
X98154145Y-100554145D01*
X98150000Y-100569616D01*
X98150000Y-101251000D01*
X98130038Y-101325500D01*
X98075500Y-101380038D01*
X98001000Y-101400000D01*
X97319616Y-101400000D01*
X97304145Y-101404145D01*
X97300000Y-101419616D01*
X97300000Y-101762383D01*
X97301427Y-101776873D01*
X97308741Y-101813644D01*
X97319756Y-101840237D01*
X97347655Y-101881990D01*
X97368010Y-101902345D01*
X97383956Y-101913000D01*
X97434810Y-101970988D01*
X97449857Y-102046634D01*
X97423081Y-102122564D01*
X97378113Y-102186547D01*
X97316524Y-102344513D01*
X97294394Y-102512611D01*
X97295380Y-102521542D01*
X97295380Y-102521543D01*
X97296123Y-102528274D01*
X97312999Y-102681135D01*
X97316087Y-102689572D01*
X97316087Y-102689574D01*
X97348286Y-102777561D01*
X97371266Y-102840356D01*
X97376275Y-102847811D01*
X97376276Y-102847812D01*
X97384431Y-102859947D01*
X97465830Y-102981083D01*
X97472472Y-102987126D01*
X97472473Y-102987128D01*
X97535864Y-103044809D01*
X97577532Y-103109713D01*
X97581165Y-103186755D01*
X97545790Y-103255293D01*
X97533534Y-103267295D01*
X97482373Y-103311926D01*
X97475604Y-103317831D01*
X97378113Y-103456547D01*
X97316524Y-103614513D01*
X97294394Y-103782611D01*
X97312999Y-103951135D01*
X97316087Y-103959572D01*
X97316087Y-103959574D01*
X97331789Y-104002481D01*
X97371266Y-104110356D01*
X97376275Y-104117811D01*
X97376276Y-104117812D01*
X97435659Y-104206183D01*
X97465830Y-104251083D01*
X97472472Y-104257126D01*
X97472473Y-104257128D01*
X97535864Y-104314809D01*
X97577532Y-104379713D01*
X97581165Y-104456755D01*
X97545790Y-104525293D01*
X97533534Y-104537295D01*
X97482373Y-104581926D01*
X97475604Y-104587831D01*
X97378113Y-104726547D01*
X97316524Y-104884513D01*
X97294394Y-105052611D01*
X97312999Y-105221135D01*
X97371266Y-105380356D01*
X97376275Y-105387811D01*
X97376276Y-105387812D01*
X97384431Y-105399947D01*
X97465830Y-105521083D01*
X97591233Y-105635191D01*
X97599128Y-105639478D01*
X97599130Y-105639479D01*
X97654526Y-105669556D01*
X97710473Y-105722647D01*
X97732379Y-105796599D01*
X97714374Y-105871596D01*
X97661283Y-105927543D01*
X97583430Y-105949500D01*
X97348321Y-105949500D01*
X97273821Y-105929538D01*
X97242962Y-105905859D01*
X95493709Y-104156606D01*
X95482056Y-104143493D01*
X95468767Y-104126636D01*
X95468766Y-104126636D01*
X95461872Y-104117890D01*
X95452710Y-104111558D01*
X95452708Y-104111556D01*
X95413910Y-104084741D01*
X95410102Y-104082020D01*
X95372143Y-104053983D01*
X95372142Y-104053982D01*
X95363184Y-104047366D01*
X95356368Y-104044973D01*
X95350431Y-104040869D01*
X95294832Y-104023285D01*
X95290420Y-104021813D01*
X95235369Y-104002481D01*
X95228155Y-104002198D01*
X95221270Y-104000020D01*
X95214663Y-103999500D01*
X95162429Y-103999500D01*
X95156579Y-103999385D01*
X95111133Y-103997599D01*
X95111131Y-103997599D01*
X95100006Y-103997162D01*
X95092621Y-103999120D01*
X95085718Y-103999500D01*
X85381847Y-103999500D01*
X85308580Y-103979868D01*
X85302841Y-103975464D01*
X85156762Y-103914956D01*
X85147081Y-103913681D01*
X85147079Y-103913681D01*
X85009685Y-103895593D01*
X85000000Y-103894318D01*
X84990315Y-103895593D01*
X84852921Y-103913681D01*
X84852919Y-103913681D01*
X84843238Y-103914956D01*
X84697159Y-103975464D01*
X84571718Y-104071718D01*
X84475464Y-104197159D01*
X84414956Y-104343238D01*
X84394318Y-104500000D01*
X84395593Y-104509685D01*
X84406849Y-104595180D01*
X84414956Y-104656762D01*
X84475464Y-104802841D01*
X84571718Y-104928282D01*
X84697159Y-105024536D01*
X84706182Y-105028274D01*
X84706183Y-105028274D01*
X84834216Y-105081307D01*
X84843238Y-105085044D01*
X84852919Y-105086319D01*
X84852921Y-105086319D01*
X84990315Y-105104407D01*
X85000000Y-105105682D01*
X85009685Y-105104407D01*
X85147079Y-105086319D01*
X85147081Y-105086319D01*
X85156762Y-105085044D01*
X85165784Y-105081307D01*
X85293817Y-105028274D01*
X85293818Y-105028274D01*
X85302841Y-105024536D01*
X85424362Y-104931290D01*
X85495619Y-104901775D01*
X85515067Y-104900500D01*
X94901679Y-104900500D01*
X94976179Y-104920462D01*
X95007038Y-104944141D01*
X96756291Y-106693394D01*
X96767944Y-106706507D01*
X96788128Y-106732110D01*
X96797290Y-106738442D01*
X96797292Y-106738444D01*
X96836090Y-106765259D01*
X96839898Y-106767980D01*
X96877857Y-106796017D01*
X96886816Y-106802634D01*
X96893632Y-106805027D01*
X96899569Y-106809131D01*
X96910190Y-106812490D01*
X96955165Y-106826714D01*
X96959580Y-106828187D01*
X97014631Y-106847519D01*
X97021845Y-106847802D01*
X97028730Y-106849980D01*
X97035337Y-106850500D01*
X97087571Y-106850500D01*
X97093421Y-106850615D01*
X97138866Y-106852401D01*
X97138868Y-106852401D01*
X97149994Y-106852838D01*
X97157378Y-106850880D01*
X97164280Y-106850500D01*
X97645622Y-106850500D01*
X97720122Y-106870462D01*
X97757900Y-106901549D01*
X97777831Y-106924396D01*
X97916547Y-107021887D01*
X98074513Y-107083476D01*
X98133280Y-107091213D01*
X98198984Y-107099863D01*
X98198991Y-107099863D01*
X98203826Y-107100500D01*
X98970573Y-107100500D01*
X98980705Y-107100845D01*
X99012700Y-107103026D01*
X99027967Y-107104067D01*
X99036930Y-107104678D01*
X99098541Y-107093925D01*
X99106226Y-107092790D01*
X99148363Y-107087691D01*
X99159404Y-107086355D01*
X99159405Y-107086355D01*
X99168320Y-107085276D01*
X99176722Y-107082101D01*
X99185444Y-107079959D01*
X99185489Y-107080143D01*
X99186561Y-107079850D01*
X99186506Y-107079668D01*
X99195106Y-107077071D01*
X99203954Y-107075527D01*
X99261225Y-107050387D01*
X99268424Y-107047450D01*
X99318519Y-107028521D01*
X99318522Y-107028520D01*
X99326923Y-107025345D01*
X99334324Y-107020259D01*
X99342287Y-107016096D01*
X99342375Y-107016264D01*
X99343340Y-107015727D01*
X99343244Y-107015564D01*
X99350983Y-107010987D01*
X99359202Y-107007379D01*
X99366323Y-107001915D01*
X99366326Y-107001913D01*
X99408813Y-106969311D01*
X99415122Y-106964727D01*
X99459249Y-106934399D01*
X99466651Y-106929312D01*
X99507167Y-106883839D01*
X99513055Y-106877602D01*
X99545141Y-106845516D01*
X99611936Y-106806952D01*
X99689064Y-106806952D01*
X99755859Y-106845516D01*
X99794423Y-106912311D01*
X99799500Y-106950875D01*
X99799500Y-114351922D01*
X99779538Y-114426422D01*
X99755859Y-114457281D01*
X99473160Y-114739980D01*
X99406365Y-114778544D01*
X99348353Y-114782346D01*
X99225587Y-114766184D01*
X99215902Y-114764909D01*
X99206217Y-114766184D01*
X99068823Y-114784272D01*
X99068821Y-114784272D01*
X99059140Y-114785547D01*
X99050118Y-114789284D01*
X98950904Y-114830380D01*
X98913061Y-114846055D01*
X98787620Y-114942309D01*
X98691366Y-115067750D01*
X98687628Y-115076773D01*
X98687628Y-115076774D01*
X98665678Y-115129767D01*
X98630858Y-115213829D01*
X98629583Y-115223510D01*
X98629583Y-115223512D01*
X98617929Y-115312034D01*
X98610220Y-115370591D01*
X98611495Y-115380276D01*
X98611495Y-115390039D01*
X98609605Y-115390039D01*
X98601123Y-115454448D01*
X98554168Y-115515637D01*
X98482916Y-115545149D01*
X98399911Y-115556076D01*
X98338348Y-115564181D01*
X98338346Y-115564181D01*
X98328665Y-115565456D01*
X98182586Y-115625964D01*
X98057145Y-115722218D01*
X97960891Y-115847659D01*
X97957153Y-115856682D01*
X97957153Y-115856683D01*
X97914688Y-115959202D01*
X97900383Y-115993738D01*
X97899108Y-116003419D01*
X97899108Y-116003421D01*
X97881020Y-116140815D01*
X97879745Y-116150500D01*
X97900383Y-116307262D01*
X97960891Y-116453341D01*
X98057145Y-116578782D01*
X98182586Y-116675036D01*
X98328665Y-116735544D01*
X98338346Y-116736819D01*
X98338348Y-116736819D01*
X98385878Y-116743076D01*
X98477015Y-116755075D01*
X98548271Y-116784589D01*
X98595224Y-116845779D01*
X98605291Y-116883350D01*
X98614956Y-116956762D01*
X98675464Y-117102841D01*
X98771718Y-117228282D01*
X98897159Y-117324536D01*
X99043238Y-117385044D01*
X99052919Y-117386319D01*
X99052921Y-117386319D01*
X99190315Y-117404407D01*
X99200000Y-117405682D01*
X99209685Y-117404407D01*
X99347079Y-117386319D01*
X99347081Y-117386319D01*
X99356762Y-117385044D01*
X99502841Y-117324536D01*
X99628282Y-117228282D01*
X99724536Y-117102841D01*
X99785044Y-116956762D01*
X99805682Y-116800000D01*
X99799913Y-116756182D01*
X99788245Y-116667549D01*
X99798312Y-116591081D01*
X99830611Y-116542742D01*
X100775418Y-115597935D01*
X100793619Y-115582998D01*
X100795141Y-115581476D01*
X100796263Y-115580828D01*
X100797996Y-115579406D01*
X100807833Y-115572833D01*
X100808467Y-115573782D01*
X100861936Y-115542912D01*
X100939064Y-115542912D01*
X101005859Y-115581476D01*
X101044423Y-115648271D01*
X101049500Y-115686835D01*
X101049500Y-128150500D01*
X101029538Y-128225000D01*
X100975000Y-128279538D01*
X100900500Y-128299500D01*
X67115420Y-128299500D01*
X67040920Y-128279538D01*
X66986382Y-128225000D01*
X66966420Y-128150500D01*
X66986382Y-128076000D01*
X66997210Y-128059795D01*
X67027856Y-128019856D01*
X67033802Y-128012107D01*
X67051668Y-127968976D01*
X67090573Y-127875050D01*
X67094310Y-127866028D01*
X67096702Y-127847863D01*
X67113673Y-127718951D01*
X67114948Y-127709266D01*
X67094310Y-127552504D01*
X67033802Y-127406425D01*
X66937548Y-127280984D01*
X66812107Y-127184730D01*
X66792142Y-127176460D01*
X66675050Y-127127959D01*
X66666028Y-127124222D01*
X66656347Y-127122947D01*
X66656345Y-127122947D01*
X66518951Y-127104859D01*
X66509266Y-127103584D01*
X66499581Y-127104859D01*
X66362187Y-127122947D01*
X66362185Y-127122947D01*
X66352504Y-127124222D01*
X66343482Y-127127959D01*
X66226391Y-127176460D01*
X66206425Y-127184730D01*
X66080984Y-127280984D01*
X66075038Y-127288733D01*
X66046848Y-127325471D01*
X65985658Y-127372424D01*
X65928638Y-127383766D01*
X62653407Y-127383766D01*
X62578907Y-127363804D01*
X62524369Y-127309266D01*
X62508264Y-127249160D01*
X62505682Y-127249500D01*
X62486319Y-127102421D01*
X62486319Y-127102419D01*
X62485044Y-127092738D01*
X62448217Y-127003829D01*
X62428274Y-126955683D01*
X62428274Y-126955682D01*
X62424536Y-126946659D01*
X62328282Y-126821218D01*
X62202841Y-126724964D01*
X62056762Y-126664456D01*
X62047081Y-126663181D01*
X62047079Y-126663181D01*
X61909685Y-126645093D01*
X61900000Y-126643818D01*
X61890315Y-126645093D01*
X61752921Y-126663181D01*
X61752919Y-126663181D01*
X61743238Y-126664456D01*
X61597159Y-126724964D01*
X61471718Y-126821218D01*
X61375464Y-126946659D01*
X61371726Y-126955682D01*
X61371726Y-126955683D01*
X61351783Y-127003829D01*
X61314956Y-127092738D01*
X61313681Y-127102419D01*
X61313681Y-127102421D01*
X61296331Y-127234209D01*
X61294318Y-127249500D01*
X61295593Y-127259185D01*
X61312573Y-127388158D01*
X61314956Y-127406262D01*
X61318693Y-127415284D01*
X61370336Y-127539960D01*
X61375464Y-127552341D01*
X61471718Y-127677782D01*
X61597159Y-127774036D01*
X61743238Y-127834544D01*
X61752919Y-127835819D01*
X61752921Y-127835819D01*
X61890315Y-127853907D01*
X61900000Y-127855182D01*
X61909685Y-127853907D01*
X61955595Y-127847863D01*
X62032063Y-127857930D01*
X62080402Y-127890229D01*
X62114957Y-127924784D01*
X62123739Y-127934368D01*
X62147311Y-127962460D01*
X62179089Y-127980807D01*
X62190023Y-127987773D01*
X62220082Y-128008820D01*
X62232277Y-128012088D01*
X62242351Y-128017332D01*
X62246710Y-128019848D01*
X62245057Y-128022711D01*
X62290775Y-128054720D01*
X62323373Y-128124621D01*
X62316654Y-128201455D01*
X62272418Y-128264637D01*
X62202517Y-128297235D01*
X62176638Y-128299500D01*
X60999044Y-128299500D01*
X60924544Y-128279538D01*
X60870006Y-128225000D01*
X60850044Y-128150500D01*
X60870006Y-128076000D01*
X60880834Y-128059795D01*
X60918590Y-128010590D01*
X60924536Y-128002841D01*
X60952899Y-127934368D01*
X60981307Y-127865784D01*
X60985044Y-127856762D01*
X61005682Y-127700000D01*
X60985044Y-127543238D01*
X60960971Y-127485120D01*
X60928274Y-127406183D01*
X60928274Y-127406182D01*
X60924536Y-127397159D01*
X60828282Y-127271718D01*
X60702841Y-127175464D01*
X60686838Y-127168835D01*
X60565784Y-127118693D01*
X60556762Y-127114956D01*
X60547081Y-127113681D01*
X60547079Y-127113681D01*
X60409685Y-127095593D01*
X60400000Y-127094318D01*
X60390315Y-127095593D01*
X60252921Y-127113681D01*
X60252919Y-127113681D01*
X60243238Y-127114956D01*
X60234216Y-127118693D01*
X60113163Y-127168835D01*
X60097159Y-127175464D01*
X59971718Y-127271718D01*
X59942907Y-127309266D01*
X59918399Y-127341205D01*
X59857209Y-127388158D01*
X59800189Y-127399500D01*
X57986190Y-127399500D01*
X57911690Y-127379538D01*
X57880831Y-127355859D01*
X57647919Y-127122947D01*
X57444141Y-126919170D01*
X57405577Y-126852375D01*
X57400500Y-126813811D01*
X57400500Y-124700000D01*
X64494318Y-124700000D01*
X64495593Y-124709685D01*
X64513221Y-124843580D01*
X64514956Y-124856762D01*
X64518693Y-124865784D01*
X64554009Y-124951043D01*
X64575464Y-125002841D01*
X64671718Y-125128282D01*
X64797159Y-125224536D01*
X64806182Y-125228274D01*
X64806183Y-125228274D01*
X64902776Y-125268284D01*
X64943238Y-125285044D01*
X64952919Y-125286319D01*
X64952921Y-125286319D01*
X65090315Y-125304407D01*
X65100000Y-125305682D01*
X65109685Y-125304407D01*
X65247079Y-125286319D01*
X65247081Y-125286319D01*
X65256762Y-125285044D01*
X65312776Y-125261842D01*
X65369796Y-125250500D01*
X65442507Y-125250500D01*
X65517007Y-125270462D01*
X65571545Y-125325000D01*
X65591507Y-125399500D01*
X65580165Y-125456520D01*
X65564956Y-125493238D01*
X65544318Y-125650000D01*
X65545593Y-125659685D01*
X65561970Y-125784078D01*
X65564956Y-125806762D01*
X65625464Y-125952841D01*
X65721718Y-126078282D01*
X65847159Y-126174536D01*
X65993238Y-126235044D01*
X66002919Y-126236319D01*
X66002921Y-126236319D01*
X66140315Y-126254407D01*
X66150000Y-126255682D01*
X66159685Y-126254407D01*
X66297079Y-126236319D01*
X66297081Y-126236319D01*
X66306762Y-126235044D01*
X66452841Y-126174536D01*
X66574362Y-126081290D01*
X66645619Y-126051775D01*
X66665067Y-126050500D01*
X70998107Y-126050500D01*
X70999544Y-126050606D01*
X71004844Y-126052425D01*
X71053330Y-126050605D01*
X71058920Y-126050500D01*
X71077450Y-126050500D01*
X71082445Y-126049570D01*
X71084549Y-126049434D01*
X71116710Y-126048226D01*
X71129352Y-126042795D01*
X71137879Y-126040873D01*
X71146029Y-126037728D01*
X71159555Y-126035209D01*
X71179109Y-126023156D01*
X71198460Y-126013104D01*
X71219565Y-126004036D01*
X71224451Y-126000022D01*
X71227023Y-125997450D01*
X71229724Y-125995001D01*
X71230149Y-125995470D01*
X71233123Y-125993119D01*
X71232949Y-125992927D01*
X71243141Y-125983686D01*
X71254850Y-125976468D01*
X71270466Y-125955932D01*
X71283711Y-125940762D01*
X72281211Y-124943262D01*
X79650000Y-124943262D01*
X79650408Y-124951043D01*
X79664001Y-125080381D01*
X79667233Y-125095583D01*
X79720868Y-125260652D01*
X79727185Y-125274841D01*
X79813969Y-125425157D01*
X79823100Y-125437725D01*
X79939242Y-125566712D01*
X79950782Y-125577103D01*
X80091206Y-125679128D01*
X80104654Y-125686892D01*
X80263219Y-125757489D01*
X80277987Y-125762288D01*
X80380813Y-125784145D01*
X80396807Y-125783306D01*
X80400000Y-125777041D01*
X80400000Y-125768607D01*
X80700000Y-125768607D01*
X80704145Y-125784078D01*
X80710939Y-125785898D01*
X80822007Y-125762289D01*
X80836784Y-125757487D01*
X80995344Y-125686892D01*
X81008797Y-125679125D01*
X81149214Y-125577106D01*
X81160760Y-125566710D01*
X81276900Y-125437725D01*
X81286031Y-125425157D01*
X81372815Y-125274841D01*
X81379132Y-125260652D01*
X81432767Y-125095583D01*
X81435999Y-125080381D01*
X81449592Y-124951043D01*
X81449794Y-124947192D01*
X82649500Y-124947192D01*
X82664326Y-125088256D01*
X82722821Y-125268284D01*
X82817467Y-125432216D01*
X82822689Y-125438016D01*
X82822693Y-125438021D01*
X82874118Y-125495133D01*
X82944129Y-125572888D01*
X83097270Y-125684151D01*
X83270197Y-125761144D01*
X83277833Y-125762767D01*
X83277836Y-125762768D01*
X83447713Y-125798876D01*
X83447714Y-125798876D01*
X83455354Y-125800500D01*
X83644646Y-125800500D01*
X83652286Y-125798876D01*
X83652287Y-125798876D01*
X83822164Y-125762768D01*
X83822167Y-125762767D01*
X83829803Y-125761144D01*
X84002730Y-125684151D01*
X84155871Y-125572888D01*
X84225882Y-125495133D01*
X84277307Y-125438021D01*
X84277311Y-125438016D01*
X84282533Y-125432216D01*
X84377179Y-125268284D01*
X84435674Y-125088256D01*
X84450500Y-124947192D01*
X84450500Y-124943262D01*
X89900000Y-124943262D01*
X89900408Y-124951043D01*
X89914001Y-125080381D01*
X89917233Y-125095583D01*
X89970868Y-125260652D01*
X89977185Y-125274841D01*
X90063969Y-125425157D01*
X90073100Y-125437725D01*
X90189242Y-125566712D01*
X90200782Y-125577103D01*
X90341206Y-125679128D01*
X90354654Y-125686892D01*
X90513219Y-125757489D01*
X90527987Y-125762288D01*
X90630813Y-125784145D01*
X90646807Y-125783306D01*
X90650000Y-125777041D01*
X90650000Y-125768607D01*
X90950000Y-125768607D01*
X90954145Y-125784078D01*
X90960939Y-125785898D01*
X91072007Y-125762289D01*
X91086784Y-125757487D01*
X91245344Y-125686892D01*
X91258797Y-125679125D01*
X91399214Y-125577106D01*
X91410760Y-125566710D01*
X91526900Y-125437725D01*
X91536031Y-125425157D01*
X91622815Y-125274841D01*
X91629132Y-125260652D01*
X91682767Y-125095583D01*
X91685999Y-125080381D01*
X91699592Y-124951043D01*
X91699794Y-124947192D01*
X92899500Y-124947192D01*
X92914326Y-125088256D01*
X92972821Y-125268284D01*
X93067467Y-125432216D01*
X93072689Y-125438016D01*
X93072693Y-125438021D01*
X93124118Y-125495133D01*
X93194129Y-125572888D01*
X93347270Y-125684151D01*
X93520197Y-125761144D01*
X93527833Y-125762767D01*
X93527836Y-125762768D01*
X93697713Y-125798876D01*
X93697714Y-125798876D01*
X93705354Y-125800500D01*
X93894646Y-125800500D01*
X93902286Y-125798876D01*
X93902287Y-125798876D01*
X94072164Y-125762768D01*
X94072167Y-125762767D01*
X94079803Y-125761144D01*
X94252730Y-125684151D01*
X94405871Y-125572888D01*
X94475882Y-125495133D01*
X94527307Y-125438021D01*
X94527311Y-125438016D01*
X94532533Y-125432216D01*
X94627179Y-125268284D01*
X94685674Y-125088256D01*
X94700500Y-124947192D01*
X95899500Y-124947192D01*
X95914326Y-125088256D01*
X95972821Y-125268284D01*
X96067467Y-125432216D01*
X96072689Y-125438016D01*
X96072693Y-125438021D01*
X96124118Y-125495133D01*
X96194129Y-125572888D01*
X96347270Y-125684151D01*
X96520197Y-125761144D01*
X96527833Y-125762767D01*
X96527836Y-125762768D01*
X96697713Y-125798876D01*
X96697714Y-125798876D01*
X96705354Y-125800500D01*
X96894646Y-125800500D01*
X96902286Y-125798876D01*
X96902287Y-125798876D01*
X97072164Y-125762768D01*
X97072167Y-125762767D01*
X97079803Y-125761144D01*
X97252730Y-125684151D01*
X97405871Y-125572888D01*
X97475882Y-125495133D01*
X97527307Y-125438021D01*
X97527311Y-125438016D01*
X97532533Y-125432216D01*
X97627179Y-125268284D01*
X97685674Y-125088256D01*
X97700500Y-124947192D01*
X97700500Y-124502808D01*
X97689396Y-124397159D01*
X97686491Y-124369514D01*
X97686490Y-124369511D01*
X97685674Y-124361744D01*
X97627179Y-124181716D01*
X97572635Y-124087244D01*
X97536438Y-124024547D01*
X97536436Y-124024544D01*
X97532533Y-124017784D01*
X97527311Y-124011984D01*
X97527307Y-124011979D01*
X97461597Y-123939002D01*
X97405871Y-123877112D01*
X97252730Y-123765849D01*
X97079803Y-123688856D01*
X97072167Y-123687233D01*
X97072164Y-123687232D01*
X96902287Y-123651124D01*
X96902286Y-123651124D01*
X96894646Y-123649500D01*
X96705354Y-123649500D01*
X96697714Y-123651124D01*
X96697713Y-123651124D01*
X96527836Y-123687232D01*
X96527833Y-123687233D01*
X96520197Y-123688856D01*
X96347270Y-123765849D01*
X96194129Y-123877112D01*
X96138403Y-123939002D01*
X96072693Y-124011979D01*
X96072689Y-124011984D01*
X96067467Y-124017784D01*
X96063564Y-124024544D01*
X96063562Y-124024547D01*
X96027365Y-124087244D01*
X95972821Y-124181716D01*
X95914326Y-124361744D01*
X95913510Y-124369511D01*
X95913509Y-124369514D01*
X95910604Y-124397159D01*
X95899500Y-124502808D01*
X95899500Y-124947192D01*
X94700500Y-124947192D01*
X94700500Y-124502808D01*
X94689396Y-124397159D01*
X94686491Y-124369514D01*
X94686490Y-124369511D01*
X94685674Y-124361744D01*
X94627179Y-124181716D01*
X94572635Y-124087244D01*
X94536438Y-124024547D01*
X94536436Y-124024544D01*
X94532533Y-124017784D01*
X94527311Y-124011984D01*
X94527307Y-124011979D01*
X94461597Y-123939002D01*
X94405871Y-123877112D01*
X94252730Y-123765849D01*
X94079803Y-123688856D01*
X94072167Y-123687233D01*
X94072164Y-123687232D01*
X93902287Y-123651124D01*
X93902286Y-123651124D01*
X93894646Y-123649500D01*
X93705354Y-123649500D01*
X93697714Y-123651124D01*
X93697713Y-123651124D01*
X93527836Y-123687232D01*
X93527833Y-123687233D01*
X93520197Y-123688856D01*
X93347270Y-123765849D01*
X93194129Y-123877112D01*
X93138403Y-123939002D01*
X93072693Y-124011979D01*
X93072689Y-124011984D01*
X93067467Y-124017784D01*
X93063564Y-124024544D01*
X93063562Y-124024547D01*
X93027365Y-124087244D01*
X92972821Y-124181716D01*
X92914326Y-124361744D01*
X92913510Y-124369511D01*
X92913509Y-124369514D01*
X92910604Y-124397159D01*
X92899500Y-124502808D01*
X92899500Y-124947192D01*
X91699794Y-124947192D01*
X91700000Y-124943262D01*
X91700000Y-124894616D01*
X91695855Y-124879145D01*
X91680384Y-124875000D01*
X90969616Y-124875000D01*
X90954145Y-124879145D01*
X90950000Y-124894616D01*
X90950000Y-125768607D01*
X90650000Y-125768607D01*
X90650000Y-124894616D01*
X90645855Y-124879145D01*
X90630384Y-124875000D01*
X89919616Y-124875000D01*
X89904145Y-124879145D01*
X89900000Y-124894616D01*
X89900000Y-124943262D01*
X84450500Y-124943262D01*
X84450500Y-124555384D01*
X89900000Y-124555384D01*
X89904145Y-124570855D01*
X89919616Y-124575000D01*
X90630384Y-124575000D01*
X90645855Y-124570855D01*
X90650000Y-124555384D01*
X90950000Y-124555384D01*
X90954145Y-124570855D01*
X90969616Y-124575000D01*
X91680384Y-124575000D01*
X91695855Y-124570855D01*
X91700000Y-124555384D01*
X91700000Y-124506739D01*
X91699592Y-124498957D01*
X91685999Y-124369619D01*
X91682767Y-124354417D01*
X91629132Y-124189348D01*
X91622815Y-124175159D01*
X91536031Y-124024843D01*
X91526900Y-124012275D01*
X91410758Y-123883288D01*
X91399218Y-123872897D01*
X91258794Y-123770872D01*
X91245346Y-123763108D01*
X91086781Y-123692511D01*
X91072013Y-123687712D01*
X90969187Y-123665855D01*
X90953193Y-123666694D01*
X90950000Y-123672959D01*
X90950000Y-124555384D01*
X90650000Y-124555384D01*
X90650000Y-123681393D01*
X90645855Y-123665922D01*
X90639061Y-123664102D01*
X90527993Y-123687711D01*
X90513216Y-123692513D01*
X90354656Y-123763108D01*
X90341203Y-123770875D01*
X90200786Y-123872894D01*
X90189240Y-123883290D01*
X90073100Y-124012275D01*
X90063969Y-124024843D01*
X89977185Y-124175159D01*
X89970868Y-124189348D01*
X89917233Y-124354417D01*
X89914001Y-124369619D01*
X89900408Y-124498957D01*
X89900000Y-124506739D01*
X89900000Y-124555384D01*
X84450500Y-124555384D01*
X84450500Y-124502808D01*
X84439396Y-124397159D01*
X84436491Y-124369514D01*
X84436490Y-124369511D01*
X84435674Y-124361744D01*
X84377179Y-124181716D01*
X84322635Y-124087244D01*
X84286438Y-124024547D01*
X84286436Y-124024544D01*
X84282533Y-124017784D01*
X84277311Y-124011984D01*
X84277307Y-124011979D01*
X84211597Y-123939002D01*
X84155871Y-123877112D01*
X84002730Y-123765849D01*
X83829803Y-123688856D01*
X83822167Y-123687233D01*
X83822164Y-123687232D01*
X83652287Y-123651124D01*
X83652286Y-123651124D01*
X83644646Y-123649500D01*
X83455354Y-123649500D01*
X83447714Y-123651124D01*
X83447713Y-123651124D01*
X83277836Y-123687232D01*
X83277833Y-123687233D01*
X83270197Y-123688856D01*
X83097270Y-123765849D01*
X82944129Y-123877112D01*
X82888403Y-123939002D01*
X82822693Y-124011979D01*
X82822689Y-124011984D01*
X82817467Y-124017784D01*
X82813564Y-124024544D01*
X82813562Y-124024547D01*
X82777365Y-124087244D01*
X82722821Y-124181716D01*
X82664326Y-124361744D01*
X82663510Y-124369511D01*
X82663509Y-124369514D01*
X82660604Y-124397159D01*
X82649500Y-124502808D01*
X82649500Y-124947192D01*
X81449794Y-124947192D01*
X81450000Y-124943262D01*
X81450000Y-124894616D01*
X81445855Y-124879145D01*
X81430384Y-124875000D01*
X80719616Y-124875000D01*
X80704145Y-124879145D01*
X80700000Y-124894616D01*
X80700000Y-125768607D01*
X80400000Y-125768607D01*
X80400000Y-124894616D01*
X80395855Y-124879145D01*
X80380384Y-124875000D01*
X79669616Y-124875000D01*
X79654145Y-124879145D01*
X79650000Y-124894616D01*
X79650000Y-124943262D01*
X72281211Y-124943262D01*
X72669089Y-124555384D01*
X79650000Y-124555384D01*
X79654145Y-124570855D01*
X79669616Y-124575000D01*
X80380384Y-124575000D01*
X80395855Y-124570855D01*
X80400000Y-124555384D01*
X80700000Y-124555384D01*
X80704145Y-124570855D01*
X80719616Y-124575000D01*
X81430384Y-124575000D01*
X81445855Y-124570855D01*
X81450000Y-124555384D01*
X81450000Y-124506739D01*
X81449592Y-124498957D01*
X81435999Y-124369619D01*
X81432767Y-124354417D01*
X81379132Y-124189348D01*
X81372815Y-124175159D01*
X81286031Y-124024843D01*
X81276900Y-124012275D01*
X81160758Y-123883288D01*
X81149218Y-123872897D01*
X81008794Y-123770872D01*
X80995346Y-123763108D01*
X80836781Y-123692511D01*
X80822013Y-123687712D01*
X80719187Y-123665855D01*
X80703193Y-123666694D01*
X80700000Y-123672959D01*
X80700000Y-124555384D01*
X80400000Y-124555384D01*
X80400000Y-123681393D01*
X80395855Y-123665922D01*
X80389061Y-123664102D01*
X80277993Y-123687711D01*
X80263216Y-123692513D01*
X80104656Y-123763108D01*
X80091203Y-123770875D01*
X79950786Y-123872894D01*
X79939240Y-123883290D01*
X79823100Y-124012275D01*
X79813969Y-124024843D01*
X79727185Y-124175159D01*
X79720868Y-124189348D01*
X79667233Y-124354417D01*
X79664001Y-124369619D01*
X79650408Y-124498957D01*
X79650000Y-124506739D01*
X79650000Y-124555384D01*
X72669089Y-124555384D01*
X72788355Y-124436118D01*
X72855150Y-124397554D01*
X72913162Y-124393752D01*
X72990315Y-124403909D01*
X73000000Y-124405184D01*
X73009685Y-124403909D01*
X73147079Y-124385821D01*
X73147081Y-124385821D01*
X73156762Y-124384546D01*
X73192799Y-124369619D01*
X73293817Y-124327776D01*
X73293818Y-124327776D01*
X73302841Y-124324038D01*
X73428282Y-124227784D01*
X73524536Y-124102343D01*
X73561844Y-124012275D01*
X73581307Y-123965286D01*
X73585044Y-123956264D01*
X73594652Y-123883288D01*
X73604407Y-123809187D01*
X73605682Y-123799502D01*
X73591597Y-123692513D01*
X73586319Y-123652423D01*
X73586319Y-123652421D01*
X73585044Y-123642740D01*
X73556110Y-123572888D01*
X73528274Y-123505685D01*
X73528274Y-123505684D01*
X73524536Y-123496661D01*
X73428282Y-123371220D01*
X73302841Y-123274966D01*
X73286710Y-123268284D01*
X73165784Y-123218195D01*
X73156762Y-123214458D01*
X73147081Y-123213183D01*
X73147079Y-123213183D01*
X73009685Y-123195095D01*
X73000000Y-123193820D01*
X72990315Y-123195095D01*
X72852921Y-123213183D01*
X72852919Y-123213183D01*
X72843238Y-123214458D01*
X72834216Y-123218195D01*
X72713291Y-123268284D01*
X72697159Y-123274966D01*
X72571718Y-123371220D01*
X72475464Y-123496661D01*
X72471726Y-123505684D01*
X72471726Y-123505685D01*
X72443890Y-123572888D01*
X72414956Y-123642740D01*
X72413681Y-123652421D01*
X72413681Y-123652423D01*
X72408403Y-123692513D01*
X72394318Y-123799502D01*
X72395593Y-123809187D01*
X72405750Y-123886340D01*
X72395683Y-123962809D01*
X72363384Y-124011147D01*
X71904859Y-124469672D01*
X71838064Y-124508236D01*
X71760936Y-124508236D01*
X71694141Y-124469672D01*
X71655577Y-124402877D01*
X71650500Y-124364313D01*
X71650500Y-123461445D01*
X71670462Y-123386945D01*
X71708794Y-123343236D01*
X71720532Y-123334229D01*
X71720533Y-123334228D01*
X71728282Y-123328282D01*
X71824536Y-123202841D01*
X71863109Y-123109719D01*
X71881307Y-123065784D01*
X71885044Y-123056762D01*
X71891075Y-123010956D01*
X71904407Y-122909685D01*
X71905682Y-122900000D01*
X71898334Y-122844184D01*
X71886319Y-122752921D01*
X71886319Y-122752919D01*
X71885044Y-122743238D01*
X71859635Y-122681896D01*
X71828274Y-122606183D01*
X71828274Y-122606182D01*
X71824536Y-122597159D01*
X71728282Y-122471718D01*
X71602841Y-122375464D01*
X71593745Y-122371696D01*
X71465784Y-122318693D01*
X71456762Y-122314956D01*
X71447081Y-122313681D01*
X71447079Y-122313681D01*
X71309685Y-122295593D01*
X71300000Y-122294318D01*
X71290315Y-122295593D01*
X71152921Y-122313681D01*
X71152919Y-122313681D01*
X71143238Y-122314956D01*
X71134216Y-122318693D01*
X71006256Y-122371696D01*
X70997159Y-122375464D01*
X70871718Y-122471718D01*
X70775464Y-122597159D01*
X70771726Y-122606182D01*
X70771726Y-122606183D01*
X70740365Y-122681896D01*
X70714956Y-122743238D01*
X70713681Y-122752919D01*
X70713681Y-122752921D01*
X70701666Y-122844184D01*
X70694318Y-122900000D01*
X70695593Y-122909685D01*
X70708926Y-123010956D01*
X70714956Y-123056762D01*
X70718693Y-123065784D01*
X70736892Y-123109719D01*
X70775464Y-123202841D01*
X70871718Y-123328282D01*
X70879467Y-123334228D01*
X70879468Y-123334229D01*
X70891206Y-123343236D01*
X70938158Y-123404426D01*
X70949500Y-123461445D01*
X70949500Y-124293101D01*
X70929538Y-124367601D01*
X70905858Y-124398460D01*
X70798458Y-124505859D01*
X70731663Y-124544423D01*
X70693100Y-124549500D01*
X65787196Y-124549500D01*
X65712696Y-124529538D01*
X65658158Y-124475000D01*
X65649538Y-124457519D01*
X65628275Y-124406185D01*
X65628274Y-124406183D01*
X65624536Y-124397159D01*
X65528282Y-124271718D01*
X65402841Y-124175464D01*
X65379489Y-124165791D01*
X65265784Y-124118693D01*
X65256762Y-124114956D01*
X65247081Y-124113681D01*
X65247079Y-124113681D01*
X65109685Y-124095593D01*
X65100000Y-124094318D01*
X65090315Y-124095593D01*
X64952921Y-124113681D01*
X64952919Y-124113681D01*
X64943238Y-124114956D01*
X64934216Y-124118693D01*
X64820512Y-124165791D01*
X64797159Y-124175464D01*
X64671718Y-124271718D01*
X64575464Y-124397159D01*
X64514956Y-124543238D01*
X64513681Y-124552919D01*
X64513681Y-124552921D01*
X64512605Y-124561094D01*
X64494318Y-124700000D01*
X57400500Y-124700000D01*
X57400500Y-124451395D01*
X57400606Y-124449958D01*
X57402425Y-124444658D01*
X57400605Y-124396171D01*
X57400500Y-124390582D01*
X57400500Y-124372052D01*
X57399570Y-124367057D01*
X57399433Y-124364945D01*
X57399410Y-124364313D01*
X57398226Y-124332792D01*
X57392795Y-124320150D01*
X57390873Y-124311623D01*
X57387728Y-124303473D01*
X57385209Y-124289947D01*
X57373156Y-124270393D01*
X57363104Y-124251042D01*
X57354036Y-124229937D01*
X57350022Y-124225051D01*
X57347450Y-124222479D01*
X57345001Y-124219778D01*
X57345470Y-124219353D01*
X57343119Y-124216379D01*
X57342927Y-124216553D01*
X57333686Y-124206361D01*
X57326468Y-124194652D01*
X57305932Y-124179036D01*
X57290762Y-124165791D01*
X55866135Y-122741164D01*
X55827571Y-122674369D01*
X55824328Y-122659113D01*
X55822677Y-122648688D01*
X55809719Y-122566874D01*
X55748528Y-122446780D01*
X55653220Y-122351472D01*
X55579051Y-122313681D01*
X55543573Y-122295604D01*
X55533126Y-122290281D01*
X55400000Y-122269196D01*
X55266874Y-122290281D01*
X55253661Y-122297013D01*
X55252150Y-122297783D01*
X55176707Y-122313818D01*
X55103354Y-122289983D01*
X55051746Y-122232665D01*
X55035509Y-122164242D01*
X55035922Y-122085373D01*
X55035969Y-122076395D01*
X55020504Y-122011979D01*
X54998485Y-121920265D01*
X54998484Y-121920262D01*
X54996388Y-121911532D01*
X54976253Y-121872520D01*
X54922746Y-121768853D01*
X54922745Y-121768852D01*
X54918625Y-121760869D01*
X54912721Y-121754102D01*
X54912719Y-121754098D01*
X54813074Y-121639873D01*
X54807169Y-121633104D01*
X54668453Y-121535613D01*
X54510487Y-121474024D01*
X54451720Y-121466287D01*
X54386016Y-121457637D01*
X54386009Y-121457637D01*
X54381174Y-121457000D01*
X53292484Y-121457000D01*
X53166680Y-121472224D01*
X53008077Y-121532155D01*
X52868349Y-121628188D01*
X52862374Y-121634895D01*
X52862372Y-121634896D01*
X52761535Y-121748072D01*
X52761532Y-121748076D01*
X52755560Y-121754779D01*
X52751357Y-121762717D01*
X52751355Y-121762720D01*
X52680429Y-121896677D01*
X52676224Y-121904619D01*
X52634919Y-122069059D01*
X52634031Y-122238605D01*
X52636127Y-122247335D01*
X52666889Y-122375464D01*
X52673612Y-122403468D01*
X52677730Y-122411447D01*
X52677731Y-122411449D01*
X52708838Y-122471718D01*
X52751375Y-122554131D01*
X52757279Y-122560898D01*
X52757281Y-122560902D01*
X52802641Y-122612899D01*
X52862831Y-122681896D01*
X53001547Y-122779387D01*
X53159513Y-122840976D01*
X53218280Y-122848713D01*
X53283984Y-122857363D01*
X53283991Y-122857363D01*
X53288826Y-122858000D01*
X54069010Y-122858000D01*
X54143510Y-122877962D01*
X54198048Y-122932500D01*
X54218010Y-123007000D01*
X54198048Y-123081500D01*
X54143510Y-123136038D01*
X54078755Y-123155681D01*
X53947404Y-123164290D01*
X53947401Y-123164290D01*
X53942540Y-123164609D01*
X53937761Y-123165560D01*
X53937758Y-123165560D01*
X53645120Y-123223769D01*
X53645114Y-123223771D01*
X53640341Y-123224720D01*
X53348573Y-123323762D01*
X53072229Y-123460040D01*
X53068182Y-123462744D01*
X53068177Y-123462747D01*
X53003916Y-123505685D01*
X52816036Y-123631222D01*
X52584380Y-123834380D01*
X52381222Y-124066036D01*
X52210040Y-124322228D01*
X52073762Y-124598573D01*
X51974720Y-124890341D01*
X51973771Y-124895114D01*
X51973769Y-124895120D01*
X51916275Y-125184165D01*
X51914609Y-125192540D01*
X51914290Y-125197401D01*
X51914290Y-125197404D01*
X51910810Y-125250500D01*
X51894457Y-125500000D01*
X51894776Y-125504867D01*
X51913929Y-125797079D01*
X51914609Y-125807460D01*
X51915560Y-125812239D01*
X51915560Y-125812242D01*
X51968479Y-126078282D01*
X51974720Y-126109659D01*
X52073762Y-126401427D01*
X52210040Y-126677771D01*
X52212744Y-126681818D01*
X52212747Y-126681823D01*
X52239582Y-126721984D01*
X52381222Y-126933964D01*
X52584380Y-127165620D01*
X52816036Y-127368778D01*
X52944756Y-127454786D01*
X53068177Y-127537253D01*
X53068182Y-127537256D01*
X53072229Y-127539960D01*
X53348573Y-127676238D01*
X53640341Y-127775280D01*
X53645114Y-127776229D01*
X53645120Y-127776231D01*
X53937758Y-127834440D01*
X53937761Y-127834440D01*
X53942540Y-127835391D01*
X53947401Y-127835710D01*
X53947404Y-127835710D01*
X54132826Y-127847863D01*
X54173059Y-127850500D01*
X54326941Y-127850500D01*
X54367174Y-127847863D01*
X54552596Y-127835710D01*
X54552599Y-127835710D01*
X54557460Y-127835391D01*
X54562239Y-127834440D01*
X54562242Y-127834440D01*
X54854880Y-127776231D01*
X54854886Y-127776229D01*
X54859659Y-127775280D01*
X55151427Y-127676238D01*
X55427771Y-127539960D01*
X55431818Y-127537256D01*
X55431823Y-127537253D01*
X55555244Y-127454786D01*
X55683964Y-127368778D01*
X55915620Y-127165620D01*
X56118778Y-126933964D01*
X56289960Y-126677772D01*
X56426238Y-126401427D01*
X56482285Y-126236319D01*
X56509407Y-126156420D01*
X56552257Y-126092290D01*
X56621432Y-126058177D01*
X56698394Y-126063221D01*
X56762524Y-126106071D01*
X56796637Y-126175246D01*
X56799500Y-126204314D01*
X56799500Y-126948605D01*
X56799394Y-126950042D01*
X56797575Y-126955342D01*
X56798059Y-126968233D01*
X56799395Y-127003829D01*
X56799500Y-127009418D01*
X56799500Y-127027948D01*
X56800430Y-127032943D01*
X56800566Y-127035047D01*
X56801774Y-127067208D01*
X56807205Y-127079850D01*
X56809127Y-127088377D01*
X56812272Y-127096527D01*
X56814791Y-127110053D01*
X56826844Y-127129607D01*
X56836896Y-127148958D01*
X56845964Y-127170063D01*
X56849978Y-127174949D01*
X56852550Y-127177521D01*
X56854999Y-127180222D01*
X56854530Y-127180647D01*
X56856881Y-127183621D01*
X56857073Y-127183447D01*
X56866314Y-127193639D01*
X56873532Y-127205348D01*
X56884480Y-127213673D01*
X56884481Y-127213674D01*
X56894067Y-127220963D01*
X56909238Y-127234209D01*
X57551173Y-127876144D01*
X57552114Y-127877234D01*
X57554575Y-127882269D01*
X57564030Y-127891040D01*
X57564031Y-127891041D01*
X57590145Y-127915265D01*
X57594172Y-127919143D01*
X57607277Y-127932248D01*
X57611466Y-127935122D01*
X57613052Y-127936515D01*
X57636646Y-127958401D01*
X57649423Y-127963499D01*
X57656817Y-127968173D01*
X57664804Y-127971712D01*
X57676146Y-127979493D01*
X57689528Y-127982669D01*
X57689531Y-127982670D01*
X57698494Y-127984797D01*
X57719298Y-127991376D01*
X57725417Y-127993817D01*
X57740622Y-127999883D01*
X57746915Y-128000500D01*
X57750550Y-128000500D01*
X57754193Y-128000678D01*
X57754162Y-128001311D01*
X57757929Y-128001752D01*
X57757942Y-128001492D01*
X57761745Y-128001678D01*
X57764297Y-128002497D01*
X57781638Y-128004527D01*
X57785068Y-128005341D01*
X57784224Y-128008895D01*
X57784949Y-128009128D01*
X57803279Y-128002861D01*
X57810632Y-128001861D01*
X57830722Y-128000500D01*
X59800189Y-128000500D01*
X59874689Y-128020462D01*
X59918417Y-128058819D01*
X59919184Y-128059819D01*
X59948685Y-128131082D01*
X59938602Y-128207548D01*
X59891637Y-128268728D01*
X59820374Y-128298229D01*
X59800956Y-128299500D01*
X57823375Y-128299500D01*
X57790679Y-128290739D01*
X57754466Y-128299500D01*
X54289690Y-128299500D01*
X54277563Y-128298124D01*
X54266715Y-128298105D01*
X54250359Y-128294344D01*
X54233992Y-128298048D01*
X54227871Y-128298037D01*
X54219789Y-128297803D01*
X53944906Y-128282366D01*
X53928303Y-128280495D01*
X53922671Y-128279538D01*
X53834969Y-128264637D01*
X53635306Y-128230713D01*
X53619015Y-128226995D01*
X53333421Y-128144716D01*
X53317650Y-128139197D01*
X53043070Y-128025463D01*
X53028016Y-128018213D01*
X52767905Y-127874454D01*
X52753757Y-127865565D01*
X52511360Y-127693576D01*
X52498296Y-127683157D01*
X52276694Y-127485120D01*
X52264880Y-127473306D01*
X52066843Y-127251704D01*
X52056424Y-127238640D01*
X51884435Y-126996243D01*
X51875546Y-126982095D01*
X51731787Y-126721984D01*
X51724537Y-126706930D01*
X51610803Y-126432350D01*
X51605284Y-126416579D01*
X51523005Y-126130985D01*
X51519287Y-126114694D01*
X51469505Y-125821697D01*
X51467634Y-125805093D01*
X51452618Y-125537705D01*
X51453361Y-125512317D01*
X51453750Y-125508937D01*
X51455655Y-125500718D01*
X51455656Y-125500000D01*
X51453785Y-125491796D01*
X51452849Y-125483436D01*
X51453066Y-125483412D01*
X51450500Y-125460620D01*
X51450500Y-110702244D01*
X51845819Y-110702244D01*
X51846241Y-110710301D01*
X51846241Y-110710306D01*
X51850258Y-110786943D01*
X51855490Y-110886781D01*
X51904562Y-111064936D01*
X51908324Y-111072072D01*
X51908326Y-111072076D01*
X51946849Y-111145141D01*
X51990746Y-111228398D01*
X52110020Y-111369540D01*
X52116429Y-111374440D01*
X52116430Y-111374441D01*
X52144096Y-111395593D01*
X52256820Y-111481777D01*
X52424297Y-111559873D01*
X52432162Y-111561631D01*
X52432165Y-111561632D01*
X52598673Y-111598850D01*
X52604637Y-111600183D01*
X52610307Y-111600500D01*
X52746164Y-111600500D01*
X52750157Y-111600066D01*
X52750161Y-111600066D01*
X52875691Y-111586429D01*
X52883709Y-111585558D01*
X52973848Y-111555223D01*
X53051197Y-111529192D01*
X53051198Y-111529191D01*
X53058848Y-111526617D01*
X53146988Y-111473657D01*
X53221128Y-111452398D01*
X53295965Y-111471057D01*
X53351447Y-111524634D01*
X53362349Y-111546939D01*
X53364792Y-111560054D01*
X53376845Y-111579608D01*
X53386897Y-111598959D01*
X53395965Y-111620064D01*
X53399979Y-111624950D01*
X53402551Y-111627522D01*
X53405000Y-111630223D01*
X53404531Y-111630648D01*
X53406882Y-111633622D01*
X53407074Y-111633448D01*
X53416315Y-111643640D01*
X53423533Y-111655349D01*
X53434481Y-111663674D01*
X53434482Y-111663675D01*
X53444068Y-111670964D01*
X53459239Y-111684210D01*
X53951173Y-112176144D01*
X53952114Y-112177234D01*
X53954575Y-112182269D01*
X53964030Y-112191040D01*
X53964031Y-112191041D01*
X53990145Y-112215265D01*
X53994172Y-112219143D01*
X54007277Y-112232248D01*
X54011466Y-112235122D01*
X54013052Y-112236515D01*
X54031997Y-112254088D01*
X54036647Y-112258402D01*
X54035986Y-112259114D01*
X54073549Y-112298217D01*
X54075464Y-112302841D01*
X54171718Y-112428282D01*
X54297159Y-112524536D01*
X54306179Y-112528272D01*
X54306182Y-112528274D01*
X54311176Y-112530342D01*
X54372365Y-112577294D01*
X54401881Y-112648551D01*
X54391814Y-112725020D01*
X54344862Y-112786209D01*
X54273605Y-112815725D01*
X54254156Y-112817000D01*
X53292484Y-112817000D01*
X53166680Y-112832224D01*
X53008077Y-112892155D01*
X52868349Y-112988188D01*
X52862374Y-112994895D01*
X52862372Y-112994896D01*
X52761535Y-113108072D01*
X52761532Y-113108076D01*
X52755560Y-113114779D01*
X52751357Y-113122717D01*
X52751355Y-113122720D01*
X52680429Y-113256677D01*
X52676224Y-113264619D01*
X52674035Y-113273332D01*
X52674035Y-113273333D01*
X52666507Y-113303304D01*
X52634919Y-113429059D01*
X52634031Y-113598605D01*
X52636127Y-113607335D01*
X52670379Y-113750000D01*
X52673612Y-113763468D01*
X52677730Y-113771447D01*
X52677731Y-113771449D01*
X52747254Y-113906147D01*
X52751375Y-113914131D01*
X52757279Y-113920898D01*
X52757281Y-113920902D01*
X52814702Y-113986725D01*
X52862831Y-114041896D01*
X53001547Y-114139387D01*
X53159513Y-114200976D01*
X53218280Y-114208713D01*
X53283984Y-114217363D01*
X53283991Y-114217363D01*
X53288826Y-114218000D01*
X54377516Y-114218000D01*
X54503320Y-114202776D01*
X54661923Y-114142845D01*
X54801651Y-114046812D01*
X54812062Y-114035127D01*
X54908465Y-113926928D01*
X54908468Y-113926924D01*
X54914440Y-113920221D01*
X54918819Y-113911951D01*
X54919034Y-113911719D01*
X54923768Y-113904908D01*
X54924737Y-113905582D01*
X54971318Y-113855452D01*
X55045036Y-113832771D01*
X55120218Y-113849988D01*
X55176719Y-113902489D01*
X55199500Y-113981671D01*
X55199500Y-115570573D01*
X55199155Y-115580705D01*
X55195322Y-115636930D01*
X55206075Y-115698541D01*
X55207210Y-115706226D01*
X55214724Y-115768320D01*
X55217899Y-115776722D01*
X55220041Y-115785444D01*
X55219857Y-115785489D01*
X55220150Y-115786561D01*
X55220332Y-115786506D01*
X55222929Y-115795106D01*
X55224473Y-115803954D01*
X55249613Y-115861225D01*
X55252550Y-115868424D01*
X55274655Y-115926923D01*
X55279741Y-115934324D01*
X55283904Y-115942287D01*
X55283736Y-115942375D01*
X55284273Y-115943340D01*
X55284436Y-115943244D01*
X55289013Y-115950983D01*
X55292621Y-115959202D01*
X55298085Y-115966323D01*
X55298087Y-115966326D01*
X55330689Y-116008813D01*
X55335267Y-116015114D01*
X55370688Y-116066651D01*
X55391332Y-116085044D01*
X55416162Y-116107167D01*
X55422401Y-116113057D01*
X56355859Y-117046515D01*
X56394423Y-117113310D01*
X56399500Y-117151874D01*
X56399500Y-118870573D01*
X56399155Y-118880705D01*
X56395322Y-118936930D01*
X56406075Y-118998541D01*
X56407210Y-119006226D01*
X56414724Y-119068320D01*
X56417899Y-119076722D01*
X56420041Y-119085444D01*
X56419857Y-119085489D01*
X56420150Y-119086561D01*
X56420332Y-119086506D01*
X56422929Y-119095106D01*
X56424473Y-119103954D01*
X56449613Y-119161225D01*
X56452550Y-119168424D01*
X56474655Y-119226923D01*
X56479741Y-119234324D01*
X56483904Y-119242287D01*
X56483736Y-119242375D01*
X56484273Y-119243340D01*
X56484436Y-119243244D01*
X56489013Y-119250983D01*
X56492621Y-119259202D01*
X56498085Y-119266323D01*
X56498087Y-119266326D01*
X56530689Y-119308813D01*
X56535267Y-119315114D01*
X56570688Y-119366651D01*
X56616162Y-119407167D01*
X56622401Y-119413057D01*
X57223100Y-120013757D01*
X57261664Y-120080552D01*
X57261664Y-120157680D01*
X57223100Y-120224475D01*
X57208458Y-120237317D01*
X57104549Y-120317049D01*
X57012302Y-120437267D01*
X56954313Y-120577264D01*
X56953038Y-120586945D01*
X56953038Y-120586947D01*
X56949445Y-120614237D01*
X56934534Y-120727500D01*
X56935809Y-120737185D01*
X56944565Y-120803689D01*
X56954313Y-120877736D01*
X57012302Y-121017733D01*
X57104549Y-121137951D01*
X57112298Y-121143897D01*
X57224767Y-121230198D01*
X57223982Y-121231221D01*
X57271544Y-121278788D01*
X57291502Y-121353289D01*
X57271536Y-121427788D01*
X57216995Y-121482323D01*
X57193339Y-121493340D01*
X57171077Y-121501421D01*
X57162939Y-121504375D01*
X57155704Y-121509119D01*
X57155703Y-121509119D01*
X57112809Y-121537242D01*
X57021460Y-121597133D01*
X56905115Y-121719950D01*
X56900767Y-121727436D01*
X56900766Y-121727437D01*
X56851491Y-121812271D01*
X56820144Y-121866238D01*
X56817636Y-121874519D01*
X56774245Y-122017784D01*
X56771105Y-122028150D01*
X56770569Y-122036787D01*
X56770569Y-122036788D01*
X56764468Y-122135132D01*
X56760630Y-122197001D01*
X56789280Y-122363733D01*
X56792667Y-122371694D01*
X56792668Y-122371696D01*
X56848457Y-122502808D01*
X56855518Y-122519402D01*
X56955791Y-122655658D01*
X57084720Y-122765192D01*
X57235389Y-122842127D01*
X57399717Y-122882338D01*
X57406335Y-122882749D01*
X57406338Y-122882749D01*
X57408096Y-122882858D01*
X57408102Y-122882858D01*
X57410388Y-122883000D01*
X58582363Y-122883000D01*
X58586640Y-122882501D01*
X58586646Y-122882501D01*
X58637530Y-122876568D01*
X58708037Y-122868348D01*
X58867061Y-122810625D01*
X58904590Y-122786020D01*
X59001303Y-122722612D01*
X59001304Y-122722611D01*
X59008540Y-122717867D01*
X59124885Y-122595050D01*
X59144720Y-122560902D01*
X59205510Y-122456245D01*
X59205511Y-122456242D01*
X59209856Y-122448762D01*
X59249251Y-122318693D01*
X59256387Y-122295132D01*
X59256388Y-122295129D01*
X59258895Y-122286850D01*
X59259877Y-122271030D01*
X59268834Y-122126639D01*
X59269370Y-122117999D01*
X59240720Y-121951267D01*
X59227529Y-121920265D01*
X59177871Y-121803562D01*
X59177870Y-121803560D01*
X59174482Y-121795598D01*
X59074209Y-121659342D01*
X59062625Y-121649500D01*
X59031549Y-121623099D01*
X58945280Y-121549808D01*
X58794611Y-121472873D01*
X58630283Y-121432662D01*
X58623665Y-121432251D01*
X58623662Y-121432251D01*
X58621904Y-121432142D01*
X58621898Y-121432142D01*
X58619612Y-121432000D01*
X57981179Y-121432000D01*
X57906679Y-121412038D01*
X57852141Y-121357500D01*
X57832179Y-121283000D01*
X57852141Y-121208500D01*
X57890473Y-121164791D01*
X57917702Y-121143897D01*
X57925451Y-121137951D01*
X58017698Y-121017733D01*
X58075687Y-120877736D01*
X58076962Y-120868053D01*
X58079489Y-120858621D01*
X58081451Y-120859147D01*
X58106105Y-120799627D01*
X58167295Y-120752675D01*
X58243763Y-120742608D01*
X58276619Y-120750815D01*
X58299876Y-120759534D01*
X58310895Y-120764178D01*
X58342548Y-120779039D01*
X58342550Y-120779040D01*
X58352163Y-120783553D01*
X58362659Y-120785187D01*
X58371974Y-120788035D01*
X58381475Y-120790124D01*
X58391419Y-120793852D01*
X58402006Y-120794639D01*
X58402007Y-120794639D01*
X58436888Y-120797231D01*
X58448766Y-120798594D01*
X58455328Y-120799616D01*
X58455333Y-120799616D01*
X58461009Y-120800500D01*
X58475361Y-120800500D01*
X58486400Y-120800910D01*
X58534391Y-120804476D01*
X58544773Y-120802260D01*
X58555363Y-120801538D01*
X58555388Y-120801910D01*
X58568742Y-120800500D01*
X59418153Y-120800500D01*
X59491420Y-120820132D01*
X59497159Y-120824536D01*
X59643238Y-120885044D01*
X59652919Y-120886319D01*
X59652921Y-120886319D01*
X59790315Y-120904407D01*
X59800000Y-120905682D01*
X59809685Y-120904407D01*
X59947079Y-120886319D01*
X59947081Y-120886319D01*
X59956762Y-120885044D01*
X60086982Y-120831105D01*
X71499031Y-120831105D01*
X71538612Y-120995968D01*
X71542730Y-121003947D01*
X71542731Y-121003949D01*
X71553845Y-121025481D01*
X71616375Y-121146631D01*
X71622279Y-121153398D01*
X71622281Y-121153402D01*
X71689275Y-121230198D01*
X71727831Y-121274396D01*
X71866547Y-121371887D01*
X72024513Y-121433476D01*
X72083280Y-121441213D01*
X72148984Y-121449863D01*
X72148991Y-121449863D01*
X72153826Y-121450500D01*
X81604565Y-121450500D01*
X81679065Y-121470462D01*
X81733603Y-121525000D01*
X81753565Y-121599500D01*
X81733603Y-121674000D01*
X81679065Y-121728538D01*
X81665168Y-121735618D01*
X81597270Y-121765849D01*
X81444129Y-121877112D01*
X81405274Y-121920265D01*
X81322693Y-122011979D01*
X81322689Y-122011984D01*
X81317467Y-122017784D01*
X81313564Y-122024544D01*
X81313562Y-122024547D01*
X81292892Y-122060349D01*
X81222821Y-122181716D01*
X81220408Y-122189143D01*
X81167664Y-122351472D01*
X81164326Y-122361744D01*
X81163510Y-122369511D01*
X81163509Y-122369514D01*
X81159941Y-122403468D01*
X81149500Y-122502808D01*
X81149500Y-122947192D01*
X81149908Y-122951071D01*
X81163485Y-123080250D01*
X81164326Y-123088256D01*
X81166741Y-123095688D01*
X81166741Y-123095689D01*
X81185619Y-123153789D01*
X81222821Y-123268284D01*
X81277365Y-123362756D01*
X81297173Y-123397065D01*
X81317467Y-123432216D01*
X81322689Y-123438016D01*
X81322693Y-123438021D01*
X81344957Y-123462747D01*
X81444129Y-123572888D01*
X81450447Y-123577479D01*
X81450449Y-123577480D01*
X81524419Y-123631222D01*
X81597270Y-123684151D01*
X81770197Y-123761144D01*
X81777833Y-123762767D01*
X81777836Y-123762768D01*
X81947713Y-123798876D01*
X81947714Y-123798876D01*
X81955354Y-123800500D01*
X82144646Y-123800500D01*
X82152286Y-123798876D01*
X82152287Y-123798876D01*
X82322164Y-123762768D01*
X82322167Y-123762767D01*
X82329803Y-123761144D01*
X82502730Y-123684151D01*
X82575581Y-123631222D01*
X82649551Y-123577480D01*
X82649553Y-123577479D01*
X82655871Y-123572888D01*
X82755043Y-123462747D01*
X82777307Y-123438021D01*
X82777311Y-123438016D01*
X82782533Y-123432216D01*
X82802828Y-123397065D01*
X82822635Y-123362756D01*
X82877179Y-123268284D01*
X82914381Y-123153789D01*
X82933259Y-123095689D01*
X82933259Y-123095688D01*
X82935674Y-123088256D01*
X82936516Y-123080250D01*
X82950092Y-122951071D01*
X82950500Y-122947192D01*
X82950500Y-122502808D01*
X82940059Y-122403468D01*
X82936491Y-122369514D01*
X82936490Y-122369511D01*
X82935674Y-122361744D01*
X82932337Y-122351472D01*
X82879592Y-122189143D01*
X82877179Y-122181716D01*
X82807108Y-122060349D01*
X82786438Y-122024547D01*
X82786436Y-122024544D01*
X82782533Y-122017784D01*
X82777311Y-122011984D01*
X82777307Y-122011979D01*
X82694726Y-121920265D01*
X82655871Y-121877112D01*
X82502730Y-121765849D01*
X82434831Y-121735618D01*
X82374891Y-121687079D01*
X82347251Y-121615074D01*
X82359317Y-121538896D01*
X82407856Y-121478956D01*
X82479861Y-121451316D01*
X82495435Y-121450500D01*
X84262909Y-121450500D01*
X84337409Y-121470462D01*
X84391947Y-121525000D01*
X84411909Y-121599500D01*
X84391947Y-121674000D01*
X84345689Y-121723389D01*
X84306186Y-121749784D01*
X84249784Y-121806186D01*
X84245719Y-121812270D01*
X84245718Y-121812271D01*
X84209659Y-121866238D01*
X84194529Y-121888881D01*
X84191728Y-121895642D01*
X84191728Y-121895643D01*
X84188010Y-121904619D01*
X84164005Y-121962573D01*
X84149500Y-122035494D01*
X84144602Y-122060118D01*
X84144602Y-122139882D01*
X84145248Y-122143128D01*
X84145572Y-122149733D01*
X84145572Y-122900267D01*
X84145248Y-122906872D01*
X84144602Y-122910118D01*
X84144602Y-122989882D01*
X84164005Y-123087428D01*
X84166804Y-123094185D01*
X84166805Y-123094189D01*
X84191729Y-123154361D01*
X84191731Y-123154365D01*
X84194530Y-123161122D01*
X84235835Y-123222938D01*
X84249783Y-123243813D01*
X84306185Y-123300215D01*
X84308940Y-123302056D01*
X84313843Y-123306500D01*
X84643500Y-123636157D01*
X84647944Y-123641060D01*
X84649785Y-123643815D01*
X84706186Y-123700216D01*
X84788881Y-123755471D01*
X84795642Y-123758272D01*
X84795643Y-123758272D01*
X84807318Y-123763108D01*
X84862573Y-123785995D01*
X84935494Y-123800500D01*
X84960118Y-123805398D01*
X85039882Y-123805398D01*
X85043128Y-123804752D01*
X85049733Y-123804428D01*
X85450267Y-123804428D01*
X85456872Y-123804752D01*
X85460118Y-123805398D01*
X85539882Y-123805398D01*
X85547055Y-123803971D01*
X85547057Y-123803971D01*
X85564506Y-123800500D01*
X85630245Y-123787424D01*
X85630249Y-123787423D01*
X85637427Y-123785995D01*
X85644188Y-123783194D01*
X85644193Y-123783193D01*
X85704357Y-123758272D01*
X85704358Y-123758272D01*
X85711119Y-123755471D01*
X85793814Y-123700216D01*
X85850216Y-123643814D01*
X85905471Y-123561119D01*
X85935995Y-123487427D01*
X85955398Y-123389882D01*
X85955398Y-123310118D01*
X85954752Y-123306872D01*
X85954428Y-123300267D01*
X85954428Y-122149733D01*
X85954752Y-122143128D01*
X85955398Y-122139882D01*
X85955398Y-122060118D01*
X85950500Y-122035494D01*
X85949039Y-122028150D01*
X85937424Y-121969755D01*
X85937422Y-121969749D01*
X85935995Y-121962573D01*
X85933194Y-121955811D01*
X85933193Y-121955807D01*
X85908272Y-121895643D01*
X85908272Y-121895642D01*
X85905471Y-121888881D01*
X85890342Y-121866238D01*
X85854282Y-121812271D01*
X85854281Y-121812270D01*
X85850216Y-121806186D01*
X85793814Y-121749784D01*
X85754311Y-121723389D01*
X85703457Y-121665401D01*
X85688410Y-121589755D01*
X85713202Y-121516720D01*
X85771190Y-121465866D01*
X85837091Y-121450500D01*
X91854565Y-121450500D01*
X91929065Y-121470462D01*
X91983603Y-121525000D01*
X92003565Y-121599500D01*
X91983603Y-121674000D01*
X91929065Y-121728538D01*
X91915168Y-121735618D01*
X91847270Y-121765849D01*
X91694129Y-121877112D01*
X91655274Y-121920265D01*
X91572693Y-122011979D01*
X91572689Y-122011984D01*
X91567467Y-122017784D01*
X91563564Y-122024544D01*
X91563562Y-122024547D01*
X91542892Y-122060349D01*
X91472821Y-122181716D01*
X91470408Y-122189143D01*
X91417664Y-122351472D01*
X91414326Y-122361744D01*
X91413510Y-122369511D01*
X91413509Y-122369514D01*
X91409941Y-122403468D01*
X91399500Y-122502808D01*
X91399500Y-122947192D01*
X91399908Y-122951071D01*
X91413485Y-123080250D01*
X91414326Y-123088256D01*
X91416741Y-123095688D01*
X91416741Y-123095689D01*
X91435619Y-123153789D01*
X91472821Y-123268284D01*
X91527365Y-123362756D01*
X91547173Y-123397065D01*
X91567467Y-123432216D01*
X91572689Y-123438016D01*
X91572693Y-123438021D01*
X91594957Y-123462747D01*
X91694129Y-123572888D01*
X91700447Y-123577479D01*
X91700449Y-123577480D01*
X91774419Y-123631222D01*
X91847270Y-123684151D01*
X92020197Y-123761144D01*
X92027833Y-123762767D01*
X92027836Y-123762768D01*
X92197713Y-123798876D01*
X92197714Y-123798876D01*
X92205354Y-123800500D01*
X92394646Y-123800500D01*
X92402286Y-123798876D01*
X92402287Y-123798876D01*
X92572164Y-123762768D01*
X92572167Y-123762767D01*
X92579803Y-123761144D01*
X92752730Y-123684151D01*
X92825581Y-123631222D01*
X92899551Y-123577480D01*
X92899553Y-123577479D01*
X92905871Y-123572888D01*
X93005043Y-123462747D01*
X93027307Y-123438021D01*
X93027311Y-123438016D01*
X93032533Y-123432216D01*
X93052828Y-123397065D01*
X93072635Y-123362756D01*
X93127179Y-123268284D01*
X93164381Y-123153789D01*
X93183259Y-123095689D01*
X93183259Y-123095688D01*
X93185674Y-123088256D01*
X93186516Y-123080250D01*
X93200092Y-122951071D01*
X93200500Y-122947192D01*
X93200500Y-122502808D01*
X93190059Y-122403468D01*
X93186491Y-122369514D01*
X93186490Y-122369511D01*
X93185674Y-122361744D01*
X93182337Y-122351472D01*
X93129592Y-122189143D01*
X93127179Y-122181716D01*
X93057108Y-122060349D01*
X93036438Y-122024547D01*
X93036436Y-122024544D01*
X93032533Y-122017784D01*
X93027311Y-122011984D01*
X93027307Y-122011979D01*
X92944726Y-121920265D01*
X92905871Y-121877112D01*
X92752730Y-121765849D01*
X92684831Y-121735618D01*
X92624891Y-121687079D01*
X92597251Y-121615074D01*
X92609317Y-121538896D01*
X92657856Y-121478956D01*
X92729861Y-121451316D01*
X92745435Y-121450500D01*
X94854565Y-121450500D01*
X94929065Y-121470462D01*
X94983603Y-121525000D01*
X95003565Y-121599500D01*
X94983603Y-121674000D01*
X94929065Y-121728538D01*
X94915168Y-121735618D01*
X94847270Y-121765849D01*
X94694129Y-121877112D01*
X94655274Y-121920265D01*
X94572693Y-122011979D01*
X94572689Y-122011984D01*
X94567467Y-122017784D01*
X94563564Y-122024544D01*
X94563562Y-122024547D01*
X94542892Y-122060349D01*
X94472821Y-122181716D01*
X94470408Y-122189143D01*
X94417664Y-122351472D01*
X94414326Y-122361744D01*
X94413510Y-122369511D01*
X94413509Y-122369514D01*
X94409941Y-122403468D01*
X94399500Y-122502808D01*
X94399500Y-122947192D01*
X94399908Y-122951071D01*
X94413485Y-123080250D01*
X94414326Y-123088256D01*
X94416741Y-123095688D01*
X94416741Y-123095689D01*
X94435619Y-123153789D01*
X94472821Y-123268284D01*
X94527365Y-123362756D01*
X94547173Y-123397065D01*
X94567467Y-123432216D01*
X94572689Y-123438016D01*
X94572693Y-123438021D01*
X94594957Y-123462747D01*
X94694129Y-123572888D01*
X94700447Y-123577479D01*
X94700449Y-123577480D01*
X94774419Y-123631222D01*
X94847270Y-123684151D01*
X95020197Y-123761144D01*
X95027833Y-123762767D01*
X95027836Y-123762768D01*
X95197713Y-123798876D01*
X95197714Y-123798876D01*
X95205354Y-123800500D01*
X95394646Y-123800500D01*
X95402286Y-123798876D01*
X95402287Y-123798876D01*
X95572164Y-123762768D01*
X95572167Y-123762767D01*
X95579803Y-123761144D01*
X95752730Y-123684151D01*
X95825581Y-123631222D01*
X95899551Y-123577480D01*
X95899553Y-123577479D01*
X95905871Y-123572888D01*
X96005043Y-123462747D01*
X96027307Y-123438021D01*
X96027311Y-123438016D01*
X96032533Y-123432216D01*
X96052828Y-123397065D01*
X96072635Y-123362756D01*
X96127179Y-123268284D01*
X96164381Y-123153789D01*
X96183259Y-123095689D01*
X96183259Y-123095688D01*
X96185674Y-123088256D01*
X96186516Y-123080250D01*
X96200092Y-122951071D01*
X96200500Y-122947192D01*
X96200500Y-122502808D01*
X96190059Y-122403468D01*
X96186491Y-122369514D01*
X96186490Y-122369511D01*
X96185674Y-122361744D01*
X96182337Y-122351472D01*
X96129592Y-122189143D01*
X96127179Y-122181716D01*
X96057108Y-122060349D01*
X96036438Y-122024547D01*
X96036436Y-122024544D01*
X96032533Y-122017784D01*
X96027311Y-122011984D01*
X96027307Y-122011979D01*
X95944726Y-121920265D01*
X95905871Y-121877112D01*
X95752730Y-121765849D01*
X95684831Y-121735618D01*
X95624891Y-121687079D01*
X95597251Y-121615074D01*
X95609317Y-121538896D01*
X95657856Y-121478956D01*
X95729861Y-121451316D01*
X95745435Y-121450500D01*
X95973126Y-121450500D01*
X96047626Y-121470462D01*
X96078485Y-121494141D01*
X97197235Y-122612892D01*
X97197238Y-122612894D01*
X97351931Y-122767587D01*
X97390495Y-122834382D01*
X97395572Y-122872946D01*
X97395572Y-122900267D01*
X97395248Y-122906872D01*
X97394602Y-122910118D01*
X97394602Y-122989882D01*
X97414005Y-123087428D01*
X97416804Y-123094185D01*
X97416805Y-123094189D01*
X97441729Y-123154361D01*
X97441731Y-123154365D01*
X97444530Y-123161122D01*
X97485835Y-123222938D01*
X97499783Y-123243813D01*
X97556185Y-123300215D01*
X97558940Y-123302056D01*
X97563843Y-123306500D01*
X97893500Y-123636157D01*
X97897944Y-123641060D01*
X97899785Y-123643815D01*
X97956186Y-123700216D01*
X98038881Y-123755471D01*
X98045642Y-123758272D01*
X98045643Y-123758272D01*
X98057318Y-123763108D01*
X98112573Y-123785995D01*
X98185494Y-123800500D01*
X98210118Y-123805398D01*
X98289882Y-123805398D01*
X98293128Y-123804752D01*
X98299733Y-123804428D01*
X98700267Y-123804428D01*
X98706872Y-123804752D01*
X98710118Y-123805398D01*
X98789882Y-123805398D01*
X98797055Y-123803971D01*
X98797057Y-123803971D01*
X98814506Y-123800500D01*
X98880245Y-123787424D01*
X98880249Y-123787423D01*
X98887427Y-123785995D01*
X98894188Y-123783194D01*
X98894193Y-123783193D01*
X98954357Y-123758272D01*
X98954358Y-123758272D01*
X98961119Y-123755471D01*
X99043814Y-123700216D01*
X99100216Y-123643814D01*
X99155471Y-123561119D01*
X99185995Y-123487427D01*
X99205398Y-123389882D01*
X99205398Y-123310118D01*
X99204752Y-123306872D01*
X99204428Y-123300267D01*
X99204428Y-122149733D01*
X99204752Y-122143128D01*
X99205398Y-122139882D01*
X99205398Y-122060118D01*
X99200500Y-122035494D01*
X99199039Y-122028150D01*
X99187424Y-121969755D01*
X99187422Y-121969749D01*
X99185995Y-121962573D01*
X99183194Y-121955811D01*
X99183193Y-121955807D01*
X99158272Y-121895643D01*
X99158272Y-121895642D01*
X99155471Y-121888881D01*
X99140342Y-121866238D01*
X99104282Y-121812271D01*
X99104281Y-121812270D01*
X99100216Y-121806186D01*
X99043814Y-121749784D01*
X99012017Y-121728538D01*
X98967203Y-121698594D01*
X98967202Y-121698593D01*
X98961119Y-121694529D01*
X98887427Y-121664005D01*
X98789882Y-121644602D01*
X98710118Y-121644602D01*
X98706872Y-121645248D01*
X98700267Y-121645572D01*
X98272947Y-121645572D01*
X98198447Y-121625610D01*
X98167588Y-121601931D01*
X96841131Y-120275474D01*
X96834209Y-120268064D01*
X96803073Y-120232372D01*
X96797169Y-120225604D01*
X96746005Y-120189645D01*
X96739772Y-120185017D01*
X96690543Y-120146416D01*
X96682355Y-120142719D01*
X96674668Y-120138064D01*
X96674766Y-120137902D01*
X96673810Y-120137356D01*
X96673720Y-120137523D01*
X96665797Y-120133275D01*
X96658453Y-120128113D01*
X96650088Y-120124851D01*
X96650085Y-120124850D01*
X96600188Y-120105395D01*
X96593000Y-120102374D01*
X96536016Y-120076645D01*
X96527183Y-120075008D01*
X96518610Y-120072321D01*
X96518667Y-120072140D01*
X96517605Y-120071838D01*
X96517558Y-120072021D01*
X96508857Y-120069787D01*
X96500487Y-120066524D01*
X96491580Y-120065351D01*
X96491578Y-120065351D01*
X96438501Y-120058364D01*
X96430794Y-120057144D01*
X96399986Y-120051434D01*
X96369308Y-120045748D01*
X96360341Y-120046265D01*
X96308515Y-120049253D01*
X96299939Y-120049500D01*
X72157484Y-120049500D01*
X72031680Y-120064724D01*
X71873077Y-120124655D01*
X71733349Y-120220688D01*
X71727374Y-120227395D01*
X71727372Y-120227396D01*
X71626535Y-120340572D01*
X71626532Y-120340576D01*
X71620560Y-120347279D01*
X71541224Y-120497119D01*
X71499919Y-120661559D01*
X71499031Y-120831105D01*
X60086982Y-120831105D01*
X60102841Y-120824536D01*
X60228282Y-120728282D01*
X60324536Y-120602841D01*
X60338868Y-120568242D01*
X60381307Y-120465784D01*
X60385044Y-120456762D01*
X60403438Y-120317049D01*
X60404407Y-120309685D01*
X60405682Y-120300000D01*
X60395739Y-120224475D01*
X60386319Y-120152921D01*
X60386319Y-120152919D01*
X60385044Y-120143238D01*
X60352522Y-120064724D01*
X60328274Y-120006183D01*
X60328274Y-120006182D01*
X60324536Y-119997159D01*
X60228282Y-119871718D01*
X60102841Y-119775464D01*
X60055511Y-119755859D01*
X59965784Y-119718693D01*
X59956762Y-119714956D01*
X59947081Y-119713681D01*
X59947079Y-119713681D01*
X59809685Y-119695593D01*
X59800000Y-119694318D01*
X59790315Y-119695593D01*
X59652921Y-119713681D01*
X59652919Y-119713681D01*
X59643238Y-119714956D01*
X59497159Y-119775464D01*
X59491420Y-119779868D01*
X59418153Y-119799500D01*
X58769032Y-119799500D01*
X58694532Y-119779538D01*
X58663673Y-119755859D01*
X58645143Y-119737329D01*
X58606579Y-119670534D01*
X58603721Y-119657588D01*
X58577072Y-119504900D01*
X58575527Y-119496046D01*
X58537764Y-119410019D01*
X58510992Y-119349028D01*
X58510991Y-119349026D01*
X58507379Y-119340798D01*
X58427978Y-119237322D01*
X58136436Y-118945780D01*
X57844141Y-118653484D01*
X57805577Y-118586689D01*
X57800500Y-118548125D01*
X57800500Y-117151874D01*
X57820462Y-117077374D01*
X57844141Y-117046515D01*
X58149836Y-116740821D01*
X58475392Y-116415265D01*
X58553584Y-116315543D01*
X58623355Y-116161016D01*
X58630522Y-116122346D01*
X58663727Y-116052732D01*
X58727290Y-116009046D01*
X58777027Y-116000500D01*
X59418153Y-116000500D01*
X59491420Y-116020132D01*
X59497159Y-116024536D01*
X59643238Y-116085044D01*
X59652919Y-116086319D01*
X59652921Y-116086319D01*
X59790315Y-116104407D01*
X59800000Y-116105682D01*
X59809685Y-116104407D01*
X59947079Y-116086319D01*
X59947081Y-116086319D01*
X59956762Y-116085044D01*
X60102841Y-116024536D01*
X60228282Y-115928282D01*
X60324536Y-115802841D01*
X60331280Y-115786561D01*
X60381307Y-115665784D01*
X60385044Y-115656762D01*
X60394336Y-115586186D01*
X60404407Y-115509685D01*
X60405682Y-115500000D01*
X60399685Y-115454448D01*
X60386319Y-115352921D01*
X60386319Y-115352919D01*
X60385044Y-115343238D01*
X60331441Y-115213829D01*
X60328274Y-115206183D01*
X60328274Y-115206182D01*
X60324536Y-115197159D01*
X60228282Y-115071718D01*
X60102841Y-114975464D01*
X60076010Y-114964350D01*
X59965784Y-114918693D01*
X59956762Y-114914956D01*
X59947081Y-114913681D01*
X59947079Y-114913681D01*
X59809685Y-114895593D01*
X59800000Y-114894318D01*
X59790315Y-114895593D01*
X59652921Y-114913681D01*
X59652919Y-114913681D01*
X59643238Y-114914956D01*
X59497159Y-114975464D01*
X59491420Y-114979868D01*
X59418153Y-114999500D01*
X58471509Y-114999500D01*
X58459560Y-114999020D01*
X58450906Y-114998324D01*
X58440553Y-114995981D01*
X58429961Y-114996638D01*
X58429958Y-114996638D01*
X58388446Y-114999214D01*
X58379219Y-114999500D01*
X58364060Y-114999500D01*
X58354866Y-115000817D01*
X58342975Y-115002035D01*
X58297462Y-115004859D01*
X58287480Y-115008463D01*
X58277940Y-115010438D01*
X58277056Y-115010697D01*
X58276129Y-115010718D01*
X58263177Y-115013947D01*
X58259530Y-115014470D01*
X58258097Y-115014675D01*
X58257590Y-115011138D01*
X58199947Y-115012443D01*
X58132297Y-114975401D01*
X58092230Y-114909497D01*
X58087518Y-114887132D01*
X58076962Y-114806947D01*
X58076962Y-114806945D01*
X58075687Y-114797264D01*
X58017698Y-114657267D01*
X57985249Y-114614978D01*
X57931397Y-114544798D01*
X57925451Y-114537049D01*
X57913897Y-114528183D01*
X57890473Y-114510209D01*
X57843521Y-114449019D01*
X57833454Y-114372550D01*
X57862970Y-114301294D01*
X57924160Y-114254342D01*
X57981179Y-114243000D01*
X58582363Y-114243000D01*
X58586640Y-114242501D01*
X58586646Y-114242501D01*
X58637530Y-114236568D01*
X58708037Y-114228348D01*
X58867061Y-114170625D01*
X58880898Y-114161553D01*
X59001303Y-114082612D01*
X59001304Y-114082611D01*
X59008540Y-114077867D01*
X59124885Y-113955050D01*
X59129234Y-113947563D01*
X59205510Y-113816245D01*
X59205511Y-113816242D01*
X59209856Y-113808762D01*
X59227654Y-113750000D01*
X66819196Y-113750000D01*
X66840281Y-113883126D01*
X66901472Y-114003220D01*
X66996780Y-114098528D01*
X67116874Y-114159719D01*
X67250000Y-114180804D01*
X67383126Y-114159719D01*
X67503220Y-114098528D01*
X67598528Y-114003220D01*
X67603850Y-113992775D01*
X67610745Y-113983285D01*
X67613741Y-113985462D01*
X67651153Y-113943914D01*
X67724507Y-113920083D01*
X67799949Y-113936121D01*
X67857265Y-113987732D01*
X67881300Y-114068879D01*
X67881300Y-114363092D01*
X67880733Y-114376079D01*
X67879548Y-114389627D01*
X67877536Y-114412619D01*
X67886160Y-114444802D01*
X67887029Y-114448044D01*
X67889842Y-114460735D01*
X67893948Y-114484019D01*
X67896212Y-114496857D01*
X67902523Y-114507787D01*
X67903097Y-114509609D01*
X67903979Y-114511303D01*
X67907246Y-114523496D01*
X67928291Y-114553551D01*
X67935261Y-114564492D01*
X67953606Y-114596267D01*
X67963593Y-114604647D01*
X67981705Y-114619845D01*
X67991288Y-114628626D01*
X68327012Y-114964350D01*
X68365576Y-115031145D01*
X68368818Y-115046400D01*
X68374939Y-115085047D01*
X68374941Y-115085052D01*
X68376775Y-115096632D01*
X68437966Y-115216726D01*
X68533274Y-115312034D01*
X68653368Y-115373225D01*
X68786494Y-115394310D01*
X68919620Y-115373225D01*
X69039714Y-115312034D01*
X69135022Y-115216726D01*
X69196213Y-115096632D01*
X69217298Y-114963506D01*
X69196213Y-114830380D01*
X69135022Y-114710286D01*
X69039714Y-114614978D01*
X68919620Y-114553787D01*
X68908042Y-114551953D01*
X68908035Y-114551951D01*
X68869388Y-114545830D01*
X68798928Y-114514459D01*
X68787338Y-114504024D01*
X68575941Y-114292627D01*
X68537377Y-114225832D01*
X68532300Y-114187268D01*
X68532300Y-114037008D01*
X68552050Y-113963298D01*
X68555328Y-113960020D01*
X68616519Y-113839926D01*
X68637604Y-113706800D01*
X68635770Y-113695221D01*
X68635770Y-113683491D01*
X68639298Y-113683491D01*
X68645209Y-113627228D01*
X68690542Y-113564828D01*
X68761000Y-113533454D01*
X68784315Y-113531619D01*
X69169292Y-113531619D01*
X69243002Y-113551369D01*
X69246280Y-113554647D01*
X69366374Y-113615838D01*
X69499500Y-113636923D01*
X69632626Y-113615838D01*
X69752720Y-113554647D01*
X69848028Y-113459339D01*
X69909219Y-113339245D01*
X69930304Y-113206119D01*
X69909219Y-113072993D01*
X69848028Y-112952899D01*
X69752720Y-112857591D01*
X69632626Y-112796400D01*
X69499500Y-112775315D01*
X69366374Y-112796400D01*
X69246280Y-112857591D01*
X69245699Y-112856451D01*
X69184866Y-112879803D01*
X69169292Y-112880619D01*
X68728201Y-112880619D01*
X68715214Y-112880052D01*
X68691660Y-112877991D01*
X68691659Y-112877991D01*
X68678674Y-112876855D01*
X68666083Y-112880229D01*
X68660320Y-112880733D01*
X68647334Y-112881300D01*
X67813920Y-112881300D01*
X67800933Y-112880733D01*
X67777381Y-112878672D01*
X67777379Y-112878672D01*
X67764393Y-112877536D01*
X67728961Y-112887030D01*
X67716277Y-112889842D01*
X67692993Y-112893948D01*
X67692991Y-112893949D01*
X67680155Y-112896212D01*
X67669225Y-112902523D01*
X67667403Y-112903097D01*
X67665709Y-112903979D01*
X67653516Y-112907246D01*
X67623461Y-112928291D01*
X67612520Y-112935261D01*
X67580745Y-112953606D01*
X67572364Y-112963593D01*
X67572365Y-112963593D01*
X67557167Y-112981705D01*
X67548386Y-112991288D01*
X67249156Y-113290518D01*
X67182361Y-113329082D01*
X67167106Y-113332324D01*
X67128459Y-113338445D01*
X67128452Y-113338447D01*
X67116874Y-113340281D01*
X66996780Y-113401472D01*
X66901472Y-113496780D01*
X66840281Y-113616874D01*
X66819196Y-113750000D01*
X59227654Y-113750000D01*
X59256387Y-113655132D01*
X59256388Y-113655129D01*
X59258895Y-113646850D01*
X59269370Y-113477999D01*
X59240720Y-113311267D01*
X59193696Y-113200752D01*
X59177871Y-113163562D01*
X59177870Y-113163560D01*
X59174482Y-113155598D01*
X59074209Y-113019342D01*
X58945280Y-112909808D01*
X58935332Y-112904728D01*
X58865595Y-112869119D01*
X58808508Y-112839969D01*
X58751237Y-112788312D01*
X58727466Y-112714938D01*
X58743568Y-112639509D01*
X58752987Y-112626556D01*
X58760000Y-112600384D01*
X58760000Y-112600383D01*
X59060000Y-112600383D01*
X59064145Y-112615854D01*
X59079570Y-112619987D01*
X59089082Y-112619363D01*
X59121742Y-112615064D01*
X59143371Y-112608760D01*
X59228299Y-112569157D01*
X59249329Y-112554432D01*
X59314432Y-112489329D01*
X59329157Y-112468299D01*
X59368760Y-112383372D01*
X59375065Y-112361739D01*
X59379363Y-112329096D01*
X59380000Y-112319374D01*
X59380000Y-112269616D01*
X59375855Y-112254145D01*
X59360384Y-112250000D01*
X59079616Y-112250000D01*
X59064145Y-112254145D01*
X59060000Y-112269616D01*
X59060000Y-112600383D01*
X58760000Y-112600383D01*
X58760000Y-111930384D01*
X59060000Y-111930384D01*
X59064145Y-111945855D01*
X59079616Y-111950000D01*
X59360383Y-111950000D01*
X59375854Y-111945855D01*
X59379999Y-111930384D01*
X59379999Y-111880618D01*
X59379363Y-111870918D01*
X59375064Y-111838258D01*
X59368760Y-111816629D01*
X59329157Y-111731701D01*
X59314432Y-111710671D01*
X59249329Y-111645568D01*
X59228299Y-111630843D01*
X59143372Y-111591240D01*
X59121739Y-111584935D01*
X59089096Y-111580637D01*
X59079569Y-111580013D01*
X59064145Y-111584145D01*
X59060000Y-111599616D01*
X59060000Y-111930384D01*
X58760000Y-111930384D01*
X58760000Y-111599617D01*
X58755855Y-111584146D01*
X58740430Y-111580013D01*
X58730918Y-111580637D01*
X58698258Y-111584936D01*
X58676629Y-111591240D01*
X58591701Y-111630843D01*
X58570671Y-111645568D01*
X58505713Y-111710526D01*
X58438918Y-111749090D01*
X58361790Y-111749090D01*
X58294995Y-111710526D01*
X58220404Y-111635935D01*
X58113173Y-111585932D01*
X58093008Y-111583277D01*
X58069158Y-111580137D01*
X58069151Y-111580137D01*
X58064316Y-111579500D01*
X57715684Y-111579500D01*
X57710849Y-111580137D01*
X57710842Y-111580137D01*
X57686992Y-111583277D01*
X57666827Y-111585932D01*
X57559596Y-111635935D01*
X57475935Y-111719596D01*
X57425932Y-111826827D01*
X57419500Y-111875684D01*
X57419500Y-112324316D01*
X57425932Y-112373173D01*
X57430750Y-112383505D01*
X57433547Y-112393101D01*
X57439500Y-112434796D01*
X57439500Y-112662013D01*
X57419538Y-112736513D01*
X57365000Y-112791051D01*
X57327246Y-112806036D01*
X57321963Y-112806652D01*
X57313831Y-112809604D01*
X57313830Y-112809604D01*
X57291970Y-112817539D01*
X57162939Y-112864375D01*
X57155704Y-112869119D01*
X57155703Y-112869119D01*
X57036780Y-112947089D01*
X57021460Y-112957133D01*
X56905115Y-113079950D01*
X56900767Y-113087436D01*
X56900766Y-113087437D01*
X56878342Y-113126043D01*
X56823662Y-113180437D01*
X56749110Y-113200204D01*
X56674662Y-113180047D01*
X56620268Y-113125367D01*
X56600500Y-113051205D01*
X56600500Y-111329427D01*
X56600845Y-111319292D01*
X56604067Y-111272034D01*
X56604067Y-111272033D01*
X56604678Y-111263070D01*
X56593928Y-111201475D01*
X56592790Y-111193770D01*
X56586355Y-111140599D01*
X56585276Y-111131680D01*
X56582100Y-111123274D01*
X56579958Y-111114555D01*
X56580143Y-111114510D01*
X56579850Y-111113439D01*
X56579668Y-111113494D01*
X56577073Y-111104898D01*
X56575528Y-111096047D01*
X56550385Y-111038770D01*
X56547448Y-111031571D01*
X56547160Y-111030807D01*
X56525345Y-110973077D01*
X56520257Y-110965674D01*
X56516096Y-110957715D01*
X56516263Y-110957628D01*
X56515725Y-110956661D01*
X56515563Y-110956757D01*
X56510991Y-110949027D01*
X56507379Y-110940798D01*
X56469311Y-110891187D01*
X56464727Y-110884878D01*
X56463937Y-110883728D01*
X56429312Y-110833349D01*
X56383838Y-110792833D01*
X56377599Y-110786943D01*
X56040156Y-110449500D01*
X83473818Y-110449500D01*
X83475093Y-110459185D01*
X83486278Y-110544140D01*
X83494456Y-110606262D01*
X83498193Y-110615284D01*
X83537553Y-110710306D01*
X83554964Y-110752341D01*
X83651218Y-110877782D01*
X83776659Y-110974036D01*
X83922738Y-111034544D01*
X83932419Y-111035819D01*
X83932421Y-111035819D01*
X84069815Y-111053907D01*
X84079500Y-111055182D01*
X84089185Y-111053907D01*
X84226579Y-111035819D01*
X84226581Y-111035819D01*
X84236262Y-111034544D01*
X84382341Y-110974036D01*
X84507782Y-110877782D01*
X84604036Y-110752341D01*
X84621448Y-110710306D01*
X84660806Y-110615286D01*
X84660807Y-110615284D01*
X84664544Y-110606262D01*
X84664646Y-110606304D01*
X84700537Y-110544140D01*
X84767332Y-110505577D01*
X84805895Y-110500500D01*
X85448605Y-110500500D01*
X85450042Y-110500606D01*
X85455342Y-110502425D01*
X85503828Y-110500605D01*
X85509418Y-110500500D01*
X85527948Y-110500500D01*
X85532943Y-110499570D01*
X85535047Y-110499434D01*
X85567208Y-110498226D01*
X85579850Y-110492795D01*
X85588377Y-110490873D01*
X85596527Y-110487728D01*
X85610053Y-110485209D01*
X85629607Y-110473156D01*
X85648958Y-110463104D01*
X85670063Y-110454036D01*
X85674949Y-110450022D01*
X85677521Y-110447450D01*
X85680222Y-110445001D01*
X85680647Y-110445470D01*
X85683621Y-110443119D01*
X85683447Y-110442927D01*
X85693639Y-110433686D01*
X85705348Y-110426468D01*
X85720964Y-110405932D01*
X85734209Y-110390762D01*
X86061134Y-110063837D01*
X86062224Y-110062896D01*
X86067259Y-110060435D01*
X86100255Y-110024865D01*
X86104133Y-110020838D01*
X86117238Y-110007733D01*
X86120112Y-110003544D01*
X86121510Y-110001952D01*
X86134034Y-109988451D01*
X86143391Y-109978364D01*
X86148490Y-109965583D01*
X86153162Y-109958193D01*
X86156701Y-109950207D01*
X86164482Y-109938864D01*
X86169784Y-109916519D01*
X86176365Y-109895712D01*
X86176880Y-109894423D01*
X86184873Y-109874388D01*
X86185490Y-109868095D01*
X86185490Y-109864456D01*
X86185668Y-109860817D01*
X86186301Y-109860848D01*
X86186742Y-109857083D01*
X86186482Y-109857070D01*
X86187154Y-109843327D01*
X86190330Y-109829944D01*
X86186851Y-109804380D01*
X86185490Y-109784288D01*
X86185490Y-108307901D01*
X86205452Y-108233401D01*
X86243785Y-108189691D01*
X86335543Y-108119283D01*
X86343292Y-108113337D01*
X86439546Y-107987896D01*
X86500054Y-107841817D01*
X86520692Y-107685055D01*
X86503635Y-107555492D01*
X86501329Y-107537976D01*
X86501329Y-107537974D01*
X86500054Y-107528293D01*
X86439546Y-107382214D01*
X86343292Y-107256773D01*
X86217851Y-107160519D01*
X86071772Y-107100011D01*
X86062091Y-107098736D01*
X86062089Y-107098736D01*
X85924695Y-107080648D01*
X85915010Y-107079373D01*
X85905325Y-107080648D01*
X85767931Y-107098736D01*
X85767929Y-107098736D01*
X85758248Y-107100011D01*
X85612169Y-107160519D01*
X85486728Y-107256773D01*
X85390474Y-107382214D01*
X85329966Y-107528293D01*
X85328691Y-107537974D01*
X85328691Y-107537976D01*
X85326385Y-107555492D01*
X85309328Y-107685055D01*
X85329966Y-107841817D01*
X85390474Y-107987896D01*
X85486728Y-108113337D01*
X85494477Y-108119283D01*
X85526195Y-108143621D01*
X85573148Y-108204811D01*
X85584490Y-108261831D01*
X85584490Y-109628821D01*
X85564528Y-109703321D01*
X85540849Y-109734180D01*
X85419170Y-109855859D01*
X85352375Y-109894423D01*
X85313811Y-109899500D01*
X84380395Y-109899500D01*
X84378958Y-109899394D01*
X84373658Y-109897575D01*
X84353524Y-109898331D01*
X84290915Y-109887094D01*
X84245284Y-109868193D01*
X84236262Y-109864456D01*
X84226581Y-109863181D01*
X84226579Y-109863181D01*
X84089185Y-109845093D01*
X84079500Y-109843818D01*
X84069815Y-109845093D01*
X83932421Y-109863181D01*
X83932419Y-109863181D01*
X83922738Y-109864456D01*
X83913716Y-109868193D01*
X83840957Y-109898331D01*
X83776659Y-109924964D01*
X83651218Y-110021218D01*
X83554964Y-110146659D01*
X83494456Y-110292738D01*
X83493181Y-110302419D01*
X83493181Y-110302421D01*
X83488011Y-110341690D01*
X83473818Y-110449500D01*
X56040156Y-110449500D01*
X55369232Y-109778575D01*
X55330668Y-109711780D01*
X55330668Y-109634652D01*
X55334007Y-109623848D01*
X55344512Y-109593934D01*
X55344513Y-109593928D01*
X55347519Y-109585369D01*
X55350500Y-109553834D01*
X55350500Y-107946166D01*
X55347519Y-107914631D01*
X55302634Y-107786816D01*
X55222150Y-107677850D01*
X55113184Y-107597366D01*
X54985369Y-107552481D01*
X54976326Y-107551626D01*
X54976325Y-107551626D01*
X54973605Y-107551369D01*
X54953834Y-107549500D01*
X53646166Y-107549500D01*
X53626395Y-107551369D01*
X53623675Y-107551626D01*
X53623674Y-107551626D01*
X53614631Y-107552481D01*
X53486816Y-107597366D01*
X53377850Y-107677850D01*
X53297366Y-107786816D01*
X53252481Y-107914631D01*
X53249500Y-107946166D01*
X53249500Y-108651398D01*
X53229538Y-108725898D01*
X53175000Y-108780436D01*
X53100500Y-108800398D01*
X53026000Y-108780436D01*
X52982290Y-108742103D01*
X52934228Y-108679467D01*
X52928282Y-108671718D01*
X52802841Y-108575464D01*
X52656762Y-108514956D01*
X52647081Y-108513681D01*
X52647079Y-108513681D01*
X52509685Y-108495593D01*
X52500000Y-108494318D01*
X52490315Y-108495593D01*
X52352921Y-108513681D01*
X52352919Y-108513681D01*
X52343238Y-108514956D01*
X52197159Y-108575464D01*
X52071718Y-108671718D01*
X51975464Y-108797159D01*
X51914956Y-108943238D01*
X51894318Y-109100000D01*
X51914956Y-109256762D01*
X51975464Y-109402841D01*
X52071718Y-109528282D01*
X52197159Y-109624536D01*
X52206182Y-109628274D01*
X52206183Y-109628274D01*
X52334218Y-109681308D01*
X52334219Y-109681308D01*
X52343238Y-109685044D01*
X52347117Y-109685555D01*
X52411356Y-109722642D01*
X52449921Y-109789436D01*
X52449922Y-109866564D01*
X52411359Y-109933359D01*
X52353528Y-109969218D01*
X52341152Y-109973383D01*
X52334236Y-109977538D01*
X52334235Y-109977539D01*
X52283984Y-110007733D01*
X52182756Y-110068557D01*
X52048493Y-110195524D01*
X51944625Y-110348360D01*
X51876000Y-110519935D01*
X51845819Y-110702244D01*
X51450500Y-110702244D01*
X51450500Y-102956753D01*
X82937565Y-102956753D01*
X82938840Y-102966438D01*
X82955791Y-103095191D01*
X82958203Y-103113515D01*
X83018711Y-103259594D01*
X83114965Y-103385035D01*
X83240406Y-103481289D01*
X83386485Y-103541797D01*
X83396166Y-103543072D01*
X83396168Y-103543072D01*
X83533562Y-103561160D01*
X83543247Y-103562435D01*
X83552932Y-103561160D01*
X83690326Y-103543072D01*
X83690328Y-103543072D01*
X83700009Y-103541797D01*
X83846088Y-103481289D01*
X83971529Y-103385035D01*
X84067783Y-103259594D01*
X84128291Y-103113515D01*
X84130704Y-103095191D01*
X84147654Y-102966438D01*
X84148929Y-102956753D01*
X84128291Y-102799991D01*
X84098585Y-102728274D01*
X84071521Y-102662936D01*
X84071521Y-102662935D01*
X84067783Y-102653912D01*
X83971529Y-102528471D01*
X83902042Y-102475152D01*
X83855089Y-102413962D01*
X83843747Y-102356942D01*
X83843747Y-102200000D01*
X85594318Y-102200000D01*
X85595593Y-102209685D01*
X85610892Y-102325890D01*
X85614956Y-102356762D01*
X85618693Y-102365784D01*
X85647044Y-102434228D01*
X85675464Y-102502841D01*
X85771718Y-102628282D01*
X85897159Y-102724536D01*
X86043238Y-102785044D01*
X86052919Y-102786319D01*
X86052921Y-102786319D01*
X86190315Y-102804407D01*
X86200000Y-102805682D01*
X86209685Y-102804407D01*
X86347079Y-102786319D01*
X86347081Y-102786319D01*
X86356762Y-102785044D01*
X86502841Y-102724536D01*
X86628282Y-102628282D01*
X86724536Y-102502841D01*
X86752957Y-102434228D01*
X86781307Y-102365784D01*
X86785044Y-102356762D01*
X86789109Y-102325890D01*
X86804407Y-102209685D01*
X86805682Y-102200000D01*
X86798715Y-102147079D01*
X86786319Y-102052921D01*
X86786319Y-102052919D01*
X86785044Y-102043238D01*
X86724536Y-101897159D01*
X86628282Y-101771718D01*
X86558795Y-101718399D01*
X86511842Y-101657209D01*
X86500500Y-101600189D01*
X86500500Y-101080384D01*
X97300000Y-101080384D01*
X97304145Y-101095855D01*
X97319616Y-101100000D01*
X97830384Y-101100000D01*
X97845855Y-101095855D01*
X97850000Y-101080384D01*
X97850000Y-100569616D01*
X97845855Y-100554145D01*
X97830384Y-100550000D01*
X97487617Y-100550000D01*
X97473127Y-100551427D01*
X97436356Y-100558741D01*
X97409763Y-100569756D01*
X97368010Y-100597655D01*
X97347655Y-100618010D01*
X97319756Y-100659763D01*
X97308741Y-100686356D01*
X97301427Y-100723127D01*
X97300000Y-100737617D01*
X97300000Y-101080384D01*
X86500500Y-101080384D01*
X86500500Y-99499811D01*
X86520462Y-99425311D01*
X86558795Y-99381601D01*
X86620533Y-99334228D01*
X86628282Y-99328282D01*
X86724536Y-99202841D01*
X86785044Y-99056762D01*
X86791177Y-99010182D01*
X86804407Y-98909685D01*
X86805682Y-98900000D01*
X86785044Y-98743238D01*
X86764075Y-98692615D01*
X86728274Y-98606183D01*
X86728274Y-98606182D01*
X86724536Y-98597159D01*
X86628282Y-98471718D01*
X86502841Y-98375464D01*
X86493798Y-98371718D01*
X86365784Y-98318693D01*
X86356762Y-98314956D01*
X86347081Y-98313681D01*
X86347079Y-98313681D01*
X86209685Y-98295593D01*
X86200000Y-98294318D01*
X86190315Y-98295593D01*
X86052921Y-98313681D01*
X86052919Y-98313681D01*
X86043238Y-98314956D01*
X86034216Y-98318693D01*
X85906203Y-98371718D01*
X85897159Y-98375464D01*
X85771718Y-98471718D01*
X85675464Y-98597159D01*
X85671726Y-98606182D01*
X85671726Y-98606183D01*
X85635925Y-98692615D01*
X85614956Y-98743238D01*
X85594318Y-98900000D01*
X85595593Y-98909685D01*
X85608824Y-99010182D01*
X85614956Y-99056762D01*
X85675464Y-99202841D01*
X85771718Y-99328282D01*
X85779467Y-99334228D01*
X85841205Y-99381601D01*
X85888158Y-99442791D01*
X85899500Y-99499811D01*
X85899500Y-101600189D01*
X85879538Y-101674689D01*
X85841205Y-101718399D01*
X85771718Y-101771718D01*
X85675464Y-101897159D01*
X85614956Y-102043238D01*
X85613681Y-102052919D01*
X85613681Y-102052921D01*
X85601285Y-102147079D01*
X85594318Y-102200000D01*
X83843747Y-102200000D01*
X83843747Y-101528338D01*
X83863709Y-101453838D01*
X83918247Y-101399300D01*
X83950758Y-101385834D01*
X83956762Y-101385044D01*
X83965781Y-101381308D01*
X83965782Y-101381308D01*
X84093817Y-101328274D01*
X84093818Y-101328274D01*
X84102841Y-101324536D01*
X84228282Y-101228282D01*
X84324536Y-101102841D01*
X84371339Y-100989850D01*
X84381307Y-100965784D01*
X84385044Y-100956762D01*
X84405682Y-100800000D01*
X84392143Y-100697159D01*
X84386319Y-100652921D01*
X84386319Y-100652919D01*
X84385044Y-100643238D01*
X84363521Y-100591278D01*
X84328274Y-100506183D01*
X84328274Y-100506182D01*
X84324536Y-100497159D01*
X84228282Y-100371718D01*
X84102841Y-100275464D01*
X84050277Y-100253691D01*
X83965784Y-100218693D01*
X83956762Y-100214956D01*
X83947081Y-100213681D01*
X83947079Y-100213681D01*
X83809685Y-100195593D01*
X83800000Y-100194318D01*
X83790315Y-100195593D01*
X83652921Y-100213681D01*
X83652919Y-100213681D01*
X83643238Y-100214956D01*
X83634216Y-100218693D01*
X83549724Y-100253691D01*
X83497159Y-100275464D01*
X83371718Y-100371718D01*
X83275464Y-100497159D01*
X83271726Y-100506182D01*
X83271726Y-100506183D01*
X83236479Y-100591278D01*
X83214956Y-100643238D01*
X83213681Y-100652919D01*
X83213681Y-100652921D01*
X83207857Y-100697159D01*
X83194318Y-100800000D01*
X83214956Y-100956762D01*
X83228662Y-100989853D01*
X83237690Y-101041849D01*
X83237907Y-101041819D01*
X83239762Y-101055450D01*
X83239762Y-101055452D01*
X83241386Y-101067382D01*
X83242747Y-101087475D01*
X83242747Y-102356942D01*
X83222785Y-102431442D01*
X83184452Y-102475152D01*
X83114965Y-102528471D01*
X83018711Y-102653912D01*
X83014973Y-102662935D01*
X83014973Y-102662936D01*
X82987909Y-102728274D01*
X82958203Y-102799991D01*
X82937565Y-102956753D01*
X51450500Y-102956753D01*
X51450500Y-97200000D01*
X63794318Y-97200000D01*
X63795593Y-97209683D01*
X63795593Y-97209685D01*
X63813460Y-97345395D01*
X63814956Y-97356762D01*
X63818693Y-97365784D01*
X63850810Y-97443320D01*
X63875464Y-97502841D01*
X63971718Y-97628282D01*
X64097159Y-97724536D01*
X64106182Y-97728274D01*
X64106183Y-97728274D01*
X64168074Y-97753910D01*
X64243238Y-97785044D01*
X64252919Y-97786319D01*
X64252921Y-97786319D01*
X64390315Y-97804407D01*
X64400000Y-97805682D01*
X64451635Y-97798884D01*
X64528101Y-97808951D01*
X64589291Y-97855903D01*
X64618807Y-97927160D01*
X64618808Y-97966052D01*
X64617374Y-97976944D01*
X64638012Y-98133706D01*
X64698520Y-98279785D01*
X64794774Y-98405226D01*
X64920215Y-98501480D01*
X64929238Y-98505218D01*
X64929239Y-98505218D01*
X65043600Y-98552588D01*
X65066294Y-98561988D01*
X65075975Y-98563263D01*
X65075977Y-98563263D01*
X65213371Y-98581351D01*
X65223056Y-98582626D01*
X65232741Y-98581351D01*
X65370135Y-98563263D01*
X65370137Y-98563263D01*
X65379818Y-98561988D01*
X65402512Y-98552588D01*
X65516873Y-98505218D01*
X65516874Y-98505218D01*
X65525897Y-98501480D01*
X65651338Y-98405226D01*
X65747592Y-98279785D01*
X65808100Y-98133706D01*
X65828738Y-97976944D01*
X65821419Y-97921347D01*
X65831486Y-97844879D01*
X65863785Y-97796541D01*
X66510823Y-97149503D01*
X69919818Y-97149503D01*
X69921093Y-97159188D01*
X69936484Y-97276091D01*
X69940456Y-97306265D01*
X69944193Y-97315287D01*
X69995175Y-97438367D01*
X70000964Y-97452344D01*
X70097218Y-97577785D01*
X70222659Y-97674039D01*
X70231682Y-97677777D01*
X70231683Y-97677777D01*
X70268804Y-97693153D01*
X70368738Y-97734547D01*
X70378419Y-97735822D01*
X70378421Y-97735822D01*
X70515815Y-97753910D01*
X70525500Y-97755185D01*
X70535185Y-97753910D01*
X70672579Y-97735822D01*
X70672581Y-97735822D01*
X70682262Y-97734547D01*
X70782196Y-97693153D01*
X70819317Y-97677777D01*
X70819318Y-97677777D01*
X70828341Y-97674039D01*
X70953782Y-97577785D01*
X71050036Y-97452344D01*
X71056833Y-97435936D01*
X71064477Y-97417481D01*
X71111429Y-97356291D01*
X71182686Y-97326775D01*
X71202135Y-97325500D01*
X71928605Y-97325500D01*
X72003105Y-97345462D01*
X72057643Y-97400000D01*
X72077605Y-97474500D01*
X72057643Y-97549000D01*
X72006371Y-97600272D01*
X72005721Y-97600446D01*
X71975662Y-97621493D01*
X71964728Y-97628459D01*
X71932950Y-97646806D01*
X71915088Y-97668093D01*
X71909377Y-97674899D01*
X71900596Y-97684482D01*
X71420525Y-98164553D01*
X71353730Y-98203117D01*
X71295718Y-98206919D01*
X71209685Y-98195593D01*
X71200000Y-98194318D01*
X71190315Y-98195593D01*
X71052921Y-98213681D01*
X71052919Y-98213681D01*
X71043238Y-98214956D01*
X71034216Y-98218693D01*
X70908465Y-98270781D01*
X70897159Y-98275464D01*
X70771718Y-98371718D01*
X70675464Y-98497159D01*
X70671726Y-98506182D01*
X70671726Y-98506183D01*
X70651505Y-98555002D01*
X70614956Y-98643238D01*
X70613681Y-98652919D01*
X70613681Y-98652921D01*
X70601791Y-98743238D01*
X70594318Y-98800000D01*
X70595593Y-98809685D01*
X70601351Y-98853418D01*
X70614956Y-98956762D01*
X70618693Y-98965784D01*
X70652367Y-99047079D01*
X70675464Y-99102841D01*
X70771718Y-99228282D01*
X70897159Y-99324536D01*
X70906182Y-99328274D01*
X70906183Y-99328274D01*
X70951515Y-99347051D01*
X71043238Y-99385044D01*
X71052919Y-99386319D01*
X71052921Y-99386319D01*
X71190315Y-99404407D01*
X71200000Y-99405682D01*
X71209685Y-99404407D01*
X71347079Y-99386319D01*
X71347081Y-99386319D01*
X71356762Y-99385044D01*
X71495437Y-99327603D01*
X71571904Y-99317536D01*
X71643161Y-99347051D01*
X71690114Y-99408241D01*
X71700181Y-99484709D01*
X71681494Y-99539760D01*
X71681408Y-99539909D01*
X71675464Y-99547656D01*
X71614956Y-99693735D01*
X71594318Y-99850497D01*
X71614956Y-100007259D01*
X71675464Y-100153338D01*
X71681408Y-100161084D01*
X71681410Y-100161088D01*
X71737774Y-100234542D01*
X71767290Y-100305799D01*
X71757223Y-100382268D01*
X71737775Y-100415953D01*
X71692851Y-100474500D01*
X71675464Y-100497159D01*
X71671726Y-100506182D01*
X71671726Y-100506183D01*
X71636479Y-100591278D01*
X71614956Y-100643238D01*
X71613681Y-100652919D01*
X71613681Y-100652921D01*
X71607857Y-100697159D01*
X71594318Y-100800000D01*
X71614956Y-100956762D01*
X71618693Y-100965784D01*
X71628662Y-100989850D01*
X71675464Y-101102841D01*
X71771718Y-101228282D01*
X71897159Y-101324536D01*
X72043238Y-101385044D01*
X72052919Y-101386319D01*
X72052921Y-101386319D01*
X72190315Y-101404407D01*
X72200000Y-101405682D01*
X72209685Y-101404407D01*
X72347079Y-101386319D01*
X72347081Y-101386319D01*
X72356762Y-101385044D01*
X72502841Y-101324536D01*
X72628282Y-101228282D01*
X72662418Y-101183795D01*
X72723608Y-101136842D01*
X72780628Y-101125500D01*
X75603456Y-101125500D01*
X75677956Y-101145462D01*
X75708815Y-101169141D01*
X76236832Y-101697159D01*
X76755191Y-102215518D01*
X76763973Y-102225102D01*
X76787545Y-102253194D01*
X76819323Y-102271541D01*
X76830257Y-102278507D01*
X76860316Y-102299554D01*
X76872511Y-102302822D01*
X76874200Y-102303701D01*
X76876019Y-102304275D01*
X76886955Y-102310588D01*
X76899790Y-102312851D01*
X76899792Y-102312852D01*
X76916303Y-102315763D01*
X76923071Y-102316957D01*
X76935757Y-102319769D01*
X76958601Y-102325890D01*
X76958605Y-102325890D01*
X76971193Y-102329263D01*
X77007725Y-102326067D01*
X77020711Y-102325500D01*
X78419372Y-102325500D01*
X78493872Y-102345462D01*
X78537582Y-102383795D01*
X78571718Y-102428282D01*
X78697159Y-102524536D01*
X78706182Y-102528274D01*
X78706183Y-102528274D01*
X78834216Y-102581307D01*
X78843238Y-102585044D01*
X78852919Y-102586319D01*
X78852921Y-102586319D01*
X78990315Y-102604407D01*
X79000000Y-102605682D01*
X79009685Y-102604407D01*
X79147079Y-102586319D01*
X79147081Y-102586319D01*
X79156762Y-102585044D01*
X79165784Y-102581307D01*
X79293817Y-102528274D01*
X79293818Y-102528274D01*
X79302841Y-102524536D01*
X79428282Y-102428282D01*
X79524536Y-102302841D01*
X79542402Y-102259710D01*
X79581307Y-102165784D01*
X79585044Y-102156762D01*
X79605682Y-102000000D01*
X79585044Y-101843238D01*
X79555419Y-101771718D01*
X79528274Y-101706183D01*
X79528274Y-101706182D01*
X79524536Y-101697159D01*
X79442851Y-101590704D01*
X79413336Y-101519448D01*
X79423403Y-101442980D01*
X79442851Y-101409295D01*
X79445624Y-101405682D01*
X79524536Y-101302841D01*
X79552957Y-101234228D01*
X79581307Y-101165784D01*
X79585044Y-101156762D01*
X79595495Y-101077383D01*
X79604407Y-101009685D01*
X79605682Y-101000000D01*
X79585044Y-100843238D01*
X79524536Y-100697159D01*
X79518592Y-100689413D01*
X79518590Y-100689409D01*
X79448184Y-100597655D01*
X79442794Y-100590630D01*
X79413278Y-100519374D01*
X79423345Y-100442906D01*
X79442793Y-100409220D01*
X79449101Y-100401000D01*
X79513207Y-100317455D01*
X79518094Y-100311086D01*
X79518095Y-100311085D01*
X79524039Y-100303338D01*
X79544604Y-100253691D01*
X79580810Y-100166281D01*
X79584547Y-100157259D01*
X79605185Y-100000497D01*
X79584547Y-99843735D01*
X79524039Y-99697656D01*
X79442354Y-99591201D01*
X79412839Y-99519945D01*
X79422906Y-99443477D01*
X79442354Y-99409792D01*
X79460366Y-99386319D01*
X79524039Y-99303338D01*
X79544604Y-99253691D01*
X79580810Y-99166281D01*
X79584547Y-99157259D01*
X79605185Y-99000497D01*
X79599427Y-98956762D01*
X79585822Y-98853418D01*
X79585822Y-98853416D01*
X79584547Y-98843735D01*
X79539152Y-98734141D01*
X79527777Y-98706680D01*
X79527777Y-98706679D01*
X79524039Y-98697656D01*
X79442878Y-98591884D01*
X79413363Y-98520628D01*
X79423430Y-98444160D01*
X79442878Y-98410475D01*
X79522596Y-98306584D01*
X79528542Y-98298835D01*
X79549107Y-98249188D01*
X79585313Y-98161778D01*
X79589050Y-98152756D01*
X79609688Y-97995994D01*
X79589050Y-97839232D01*
X79554237Y-97755185D01*
X79532280Y-97702177D01*
X79532280Y-97702176D01*
X79528542Y-97693153D01*
X79446390Y-97586090D01*
X79416876Y-97514836D01*
X79426943Y-97438367D01*
X79446391Y-97404682D01*
X79518590Y-97310590D01*
X79524536Y-97302841D01*
X79568162Y-97197520D01*
X79581307Y-97165784D01*
X79585044Y-97156762D01*
X79588794Y-97128282D01*
X79604407Y-97009685D01*
X79605682Y-97000000D01*
X79588832Y-96872013D01*
X79586319Y-96852921D01*
X79586319Y-96852919D01*
X79585044Y-96843238D01*
X79554371Y-96769187D01*
X79528274Y-96706183D01*
X79528274Y-96706182D01*
X79524536Y-96697159D01*
X79428282Y-96571718D01*
X79302841Y-96475464D01*
X79194009Y-96430384D01*
X79165784Y-96418693D01*
X79156762Y-96414956D01*
X79147081Y-96413681D01*
X79147079Y-96413681D01*
X79009685Y-96395593D01*
X79000000Y-96394318D01*
X78990315Y-96395593D01*
X78852921Y-96413681D01*
X78852919Y-96413681D01*
X78843238Y-96414956D01*
X78834216Y-96418693D01*
X78805992Y-96430384D01*
X78697159Y-96475464D01*
X78571718Y-96571718D01*
X78565772Y-96579467D01*
X78537582Y-96616205D01*
X78476392Y-96663158D01*
X78419372Y-96674500D01*
X77196544Y-96674500D01*
X77122044Y-96654538D01*
X77091185Y-96630859D01*
X76444814Y-95984488D01*
X76436032Y-95974904D01*
X76420833Y-95956790D01*
X76420831Y-95956789D01*
X76412455Y-95946806D01*
X76380680Y-95928461D01*
X76369739Y-95921491D01*
X76339684Y-95900446D01*
X76327491Y-95897179D01*
X76325797Y-95896297D01*
X76323975Y-95895723D01*
X76313045Y-95889412D01*
X76300209Y-95887149D01*
X76300207Y-95887148D01*
X76276923Y-95883042D01*
X76264239Y-95880230D01*
X76228807Y-95870736D01*
X76215821Y-95871872D01*
X76215819Y-95871872D01*
X76192267Y-95873933D01*
X76179280Y-95874500D01*
X71106128Y-95874500D01*
X71031628Y-95854538D01*
X70987918Y-95816205D01*
X70959728Y-95779467D01*
X70953782Y-95771718D01*
X70828341Y-95675464D01*
X70773918Y-95652921D01*
X70691284Y-95618693D01*
X70682262Y-95614956D01*
X70672581Y-95613681D01*
X70672579Y-95613681D01*
X70535185Y-95595593D01*
X70525500Y-95594318D01*
X70515815Y-95595593D01*
X70378421Y-95613681D01*
X70378419Y-95613681D01*
X70368738Y-95614956D01*
X70359716Y-95618693D01*
X70277083Y-95652921D01*
X70222659Y-95675464D01*
X70097218Y-95771718D01*
X70000964Y-95897159D01*
X69997226Y-95906182D01*
X69997226Y-95906183D01*
X69976264Y-95956790D01*
X69940456Y-96043238D01*
X69939181Y-96052919D01*
X69939181Y-96052921D01*
X69923853Y-96169350D01*
X69919818Y-96200000D01*
X69921093Y-96209685D01*
X69936669Y-96327993D01*
X69940456Y-96356762D01*
X69944193Y-96365784D01*
X69990151Y-96476735D01*
X70000964Y-96502841D01*
X70006910Y-96510590D01*
X70063275Y-96584047D01*
X70092790Y-96655304D01*
X70082723Y-96731772D01*
X70063274Y-96765457D01*
X70058470Y-96771718D01*
X70006910Y-96838912D01*
X70006908Y-96838916D01*
X70000964Y-96846662D01*
X69997226Y-96855685D01*
X69997226Y-96855686D01*
X69957757Y-96950972D01*
X69940456Y-96992741D01*
X69939181Y-97002422D01*
X69939181Y-97002424D01*
X69922612Y-97128282D01*
X69919818Y-97149503D01*
X66510823Y-97149503D01*
X68465681Y-95194646D01*
X94474500Y-95194646D01*
X94476124Y-95202286D01*
X94476124Y-95202287D01*
X94510874Y-95365772D01*
X94513856Y-95379803D01*
X94590849Y-95552730D01*
X94702112Y-95705871D01*
X94764002Y-95761597D01*
X94836979Y-95827307D01*
X94836984Y-95827311D01*
X94842784Y-95832533D01*
X94849544Y-95836436D01*
X94849547Y-95836438D01*
X94880898Y-95854538D01*
X95006716Y-95927179D01*
X95085320Y-95952719D01*
X95168937Y-95979888D01*
X95186744Y-95985674D01*
X95194511Y-95986490D01*
X95194514Y-95986491D01*
X95264116Y-95993806D01*
X95327808Y-96000500D01*
X95772192Y-96000500D01*
X95835884Y-95993806D01*
X95905486Y-95986491D01*
X95905489Y-95986490D01*
X95913256Y-95985674D01*
X95931064Y-95979888D01*
X96014680Y-95952719D01*
X96093284Y-95927179D01*
X96219102Y-95854538D01*
X96250453Y-95836438D01*
X96250456Y-95836436D01*
X96257216Y-95832533D01*
X96263016Y-95827311D01*
X96263021Y-95827307D01*
X96335998Y-95761597D01*
X96397888Y-95705871D01*
X96509151Y-95552730D01*
X96586144Y-95379803D01*
X96589127Y-95365772D01*
X96623876Y-95202287D01*
X96623876Y-95202286D01*
X96625500Y-95194646D01*
X96625500Y-95005354D01*
X96620389Y-94981307D01*
X96587768Y-94827836D01*
X96587767Y-94827833D01*
X96586144Y-94820197D01*
X96509151Y-94647270D01*
X96397888Y-94494129D01*
X96304104Y-94409685D01*
X96263021Y-94372693D01*
X96263016Y-94372689D01*
X96257216Y-94367467D01*
X96250456Y-94363564D01*
X96250453Y-94363562D01*
X96187657Y-94327307D01*
X96093284Y-94272821D01*
X95913256Y-94214326D01*
X95905489Y-94213510D01*
X95905486Y-94213509D01*
X95832810Y-94205871D01*
X95772192Y-94199500D01*
X95327808Y-94199500D01*
X95267190Y-94205871D01*
X95194514Y-94213509D01*
X95194511Y-94213510D01*
X95186744Y-94214326D01*
X95006716Y-94272821D01*
X94912343Y-94327307D01*
X94849547Y-94363562D01*
X94849544Y-94363564D01*
X94842784Y-94367467D01*
X94836984Y-94372689D01*
X94836979Y-94372693D01*
X94795896Y-94409685D01*
X94702112Y-94494129D01*
X94590849Y-94647270D01*
X94513856Y-94820197D01*
X94512233Y-94827833D01*
X94512232Y-94827836D01*
X94479611Y-94981307D01*
X94474500Y-95005354D01*
X94474500Y-95194646D01*
X68465681Y-95194646D01*
X68896039Y-94764288D01*
X68962834Y-94725724D01*
X69020846Y-94721922D01*
X69081501Y-94729907D01*
X69091186Y-94731182D01*
X69100871Y-94729907D01*
X69238265Y-94711819D01*
X69238267Y-94711819D01*
X69247948Y-94710544D01*
X69266545Y-94702841D01*
X69385003Y-94653774D01*
X69385004Y-94653774D01*
X69394027Y-94650036D01*
X69519468Y-94553782D01*
X69615722Y-94428341D01*
X69627461Y-94400000D01*
X90194318Y-94400000D01*
X90195593Y-94409685D01*
X90213544Y-94546033D01*
X90214956Y-94556762D01*
X90218693Y-94565784D01*
X90249830Y-94640954D01*
X90275464Y-94702841D01*
X90371718Y-94828282D01*
X90497159Y-94924536D01*
X90643238Y-94985044D01*
X90652919Y-94986319D01*
X90652921Y-94986319D01*
X90790315Y-95004407D01*
X90800000Y-95005682D01*
X90809685Y-95004407D01*
X90947079Y-94986319D01*
X90947081Y-94986319D01*
X90956762Y-94985044D01*
X91102841Y-94924536D01*
X91228282Y-94828282D01*
X91254981Y-94793487D01*
X91316170Y-94746535D01*
X91373190Y-94735193D01*
X91849689Y-94735193D01*
X91924189Y-94755155D01*
X91967899Y-94793488D01*
X92021218Y-94862975D01*
X92146659Y-94959229D01*
X92292738Y-95019737D01*
X92302419Y-95021012D01*
X92302421Y-95021012D01*
X92439815Y-95039100D01*
X92449500Y-95040375D01*
X92459185Y-95039100D01*
X92596579Y-95021012D01*
X92596581Y-95021012D01*
X92606262Y-95019737D01*
X92752341Y-94959229D01*
X92877782Y-94862975D01*
X92974036Y-94737534D01*
X92984476Y-94712331D01*
X93030807Y-94600477D01*
X93034544Y-94591455D01*
X93039112Y-94556762D01*
X93053907Y-94444378D01*
X93055182Y-94434693D01*
X93046332Y-94367467D01*
X93035819Y-94287614D01*
X93035819Y-94287612D01*
X93034544Y-94277931D01*
X93008198Y-94214326D01*
X92977774Y-94140876D01*
X92977774Y-94140875D01*
X92974036Y-94131852D01*
X92877782Y-94006411D01*
X92752341Y-93910157D01*
X92696286Y-93886938D01*
X92615284Y-93853386D01*
X92606262Y-93849649D01*
X92596581Y-93848374D01*
X92596579Y-93848374D01*
X92459185Y-93830286D01*
X92449500Y-93829011D01*
X92439815Y-93830286D01*
X92302421Y-93848374D01*
X92302419Y-93848374D01*
X92292738Y-93849649D01*
X92283716Y-93853386D01*
X92202715Y-93886938D01*
X92146659Y-93910157D01*
X92021218Y-94006411D01*
X92015272Y-94014160D01*
X91967899Y-94075898D01*
X91906709Y-94122851D01*
X91849689Y-94134193D01*
X91426432Y-94134193D01*
X91351932Y-94114231D01*
X91308222Y-94075898D01*
X91234228Y-93979467D01*
X91228282Y-93971718D01*
X91102841Y-93875464D01*
X90997145Y-93831683D01*
X90965784Y-93818693D01*
X90956762Y-93814956D01*
X90947081Y-93813681D01*
X90947079Y-93813681D01*
X90809685Y-93795593D01*
X90800000Y-93794318D01*
X90790315Y-93795593D01*
X90652921Y-93813681D01*
X90652919Y-93813681D01*
X90643238Y-93814956D01*
X90634216Y-93818693D01*
X90602856Y-93831683D01*
X90497159Y-93875464D01*
X90371718Y-93971718D01*
X90275464Y-94097159D01*
X90271726Y-94106182D01*
X90271726Y-94106183D01*
X90233073Y-94199500D01*
X90214956Y-94243238D01*
X90213681Y-94252919D01*
X90213681Y-94252921D01*
X90203888Y-94327307D01*
X90194318Y-94400000D01*
X69627461Y-94400000D01*
X69676230Y-94282262D01*
X69682556Y-94234216D01*
X69695593Y-94135185D01*
X69695593Y-94135184D01*
X69696868Y-94125500D01*
X69687288Y-94052730D01*
X69677505Y-93978421D01*
X69677505Y-93978419D01*
X69676230Y-93968738D01*
X69615722Y-93822659D01*
X69519468Y-93697218D01*
X69516116Y-93694646D01*
X96474500Y-93694646D01*
X96476124Y-93702286D01*
X96476124Y-93702287D01*
X96507447Y-93849649D01*
X96513856Y-93879803D01*
X96590849Y-94052730D01*
X96623128Y-94097159D01*
X96654891Y-94140876D01*
X96702112Y-94205871D01*
X96743145Y-94242817D01*
X96836979Y-94327307D01*
X96836984Y-94327311D01*
X96842784Y-94332533D01*
X96849544Y-94336436D01*
X96849547Y-94336438D01*
X96912244Y-94372635D01*
X97006716Y-94427179D01*
X97186744Y-94485674D01*
X97194511Y-94486490D01*
X97194514Y-94486491D01*
X97264116Y-94493806D01*
X97327808Y-94500500D01*
X97772192Y-94500500D01*
X97835884Y-94493806D01*
X97905486Y-94486491D01*
X97905489Y-94486490D01*
X97913256Y-94485674D01*
X98093284Y-94427179D01*
X98187756Y-94372635D01*
X98250453Y-94336438D01*
X98250456Y-94336436D01*
X98257216Y-94332533D01*
X98263016Y-94327311D01*
X98263021Y-94327307D01*
X98356855Y-94242817D01*
X98397888Y-94205871D01*
X98445110Y-94140876D01*
X98476872Y-94097159D01*
X98509151Y-94052730D01*
X98586144Y-93879803D01*
X98592554Y-93849649D01*
X98623876Y-93702287D01*
X98623876Y-93702286D01*
X98625500Y-93694646D01*
X98625500Y-93505354D01*
X98586144Y-93320197D01*
X98509151Y-93147270D01*
X98464268Y-93085494D01*
X98402480Y-93000449D01*
X98402479Y-93000447D01*
X98397888Y-92994129D01*
X98335998Y-92938403D01*
X98263021Y-92872693D01*
X98263016Y-92872689D01*
X98257216Y-92867467D01*
X98250456Y-92863564D01*
X98250453Y-92863562D01*
X98187756Y-92827365D01*
X98093284Y-92772821D01*
X97913256Y-92714326D01*
X97905489Y-92713510D01*
X97905486Y-92713509D01*
X97835884Y-92706194D01*
X97772192Y-92699500D01*
X97327808Y-92699500D01*
X97264116Y-92706194D01*
X97194514Y-92713509D01*
X97194511Y-92713510D01*
X97186744Y-92714326D01*
X97006716Y-92772821D01*
X96912244Y-92827365D01*
X96849547Y-92863562D01*
X96849544Y-92863564D01*
X96842784Y-92867467D01*
X96836984Y-92872689D01*
X96836979Y-92872693D01*
X96764002Y-92938403D01*
X96702112Y-92994129D01*
X96697521Y-93000447D01*
X96697520Y-93000449D01*
X96635732Y-93085493D01*
X96590849Y-93147270D01*
X96513856Y-93320197D01*
X96474500Y-93505354D01*
X96474500Y-93694646D01*
X69516116Y-93694646D01*
X69394027Y-93600964D01*
X69247948Y-93540456D01*
X69238267Y-93539181D01*
X69238265Y-93539181D01*
X69100871Y-93521093D01*
X69091186Y-93519818D01*
X69081501Y-93521093D01*
X68944107Y-93539181D01*
X68944105Y-93539181D01*
X68934424Y-93540456D01*
X68788345Y-93600964D01*
X68662904Y-93697218D01*
X68566650Y-93822659D01*
X68506142Y-93968738D01*
X68504867Y-93978419D01*
X68504867Y-93978421D01*
X68495084Y-94052730D01*
X68485504Y-94125500D01*
X68486779Y-94135184D01*
X68490882Y-94166349D01*
X68480815Y-94242817D01*
X68448516Y-94291157D01*
X66750260Y-95989413D01*
X66683465Y-96027977D01*
X66606337Y-96027977D01*
X66539542Y-95989413D01*
X66500978Y-95922618D01*
X66497176Y-95864608D01*
X66505682Y-95800000D01*
X66492458Y-95699551D01*
X66486319Y-95652921D01*
X66486319Y-95652919D01*
X66485044Y-95643238D01*
X66464781Y-95594318D01*
X66428274Y-95506183D01*
X66428274Y-95506182D01*
X66424536Y-95497159D01*
X66328282Y-95371718D01*
X66202841Y-95275464D01*
X66056762Y-95214956D01*
X66047081Y-95213681D01*
X66047079Y-95213681D01*
X65909685Y-95195593D01*
X65900000Y-95194318D01*
X65890315Y-95195593D01*
X65752921Y-95213681D01*
X65752919Y-95213681D01*
X65743238Y-95214956D01*
X65597159Y-95275464D01*
X65471718Y-95371718D01*
X65375464Y-95497159D01*
X65371726Y-95506182D01*
X65371726Y-95506183D01*
X65335219Y-95594318D01*
X65314956Y-95643238D01*
X65313681Y-95652919D01*
X65313681Y-95652921D01*
X65307542Y-95699551D01*
X65294318Y-95800000D01*
X65295593Y-95809683D01*
X65295593Y-95817718D01*
X65275631Y-95892218D01*
X65251952Y-95923077D01*
X64611645Y-96563384D01*
X64544850Y-96601948D01*
X64486838Y-96605750D01*
X64409685Y-96595593D01*
X64400000Y-96594318D01*
X64390315Y-96595593D01*
X64252921Y-96613681D01*
X64252919Y-96613681D01*
X64243238Y-96614956D01*
X64234216Y-96618693D01*
X64168818Y-96645782D01*
X64097159Y-96675464D01*
X63971718Y-96771718D01*
X63875464Y-96897159D01*
X63871726Y-96906182D01*
X63871726Y-96906183D01*
X63839610Y-96983719D01*
X63814956Y-97043238D01*
X63813681Y-97052919D01*
X63813681Y-97052921D01*
X63803760Y-97128282D01*
X63794318Y-97200000D01*
X51450500Y-97200000D01*
X51450500Y-91204959D01*
X67520000Y-91204959D01*
X67520637Y-91214681D01*
X67525031Y-91248051D01*
X67531338Y-91269689D01*
X67571682Y-91356208D01*
X67586411Y-91377243D01*
X67652757Y-91443589D01*
X67673792Y-91458318D01*
X67760311Y-91498662D01*
X67781949Y-91504969D01*
X67815319Y-91509363D01*
X67825041Y-91510000D01*
X67830384Y-91510000D01*
X67845855Y-91505855D01*
X67850000Y-91490384D01*
X68150000Y-91490384D01*
X68154145Y-91505855D01*
X68169616Y-91510000D01*
X68174959Y-91510000D01*
X68184681Y-91509363D01*
X68218051Y-91504969D01*
X68239687Y-91498663D01*
X68292868Y-91473864D01*
X68368824Y-91460471D01*
X68441301Y-91486850D01*
X68490879Y-91545933D01*
X68504272Y-91621889D01*
X68484878Y-91683402D01*
X68481408Y-91689413D01*
X68475464Y-91697159D01*
X68414956Y-91843238D01*
X68394318Y-92000000D01*
X68395593Y-92009685D01*
X68411921Y-92133706D01*
X68414956Y-92156762D01*
X68418693Y-92165784D01*
X68469124Y-92287534D01*
X68475464Y-92302841D01*
X68571718Y-92428282D01*
X68697159Y-92524536D01*
X68843238Y-92585044D01*
X68852919Y-92586319D01*
X68852921Y-92586319D01*
X68990315Y-92604407D01*
X69000000Y-92605682D01*
X69009685Y-92604407D01*
X69147079Y-92586319D01*
X69147081Y-92586319D01*
X69156762Y-92585044D01*
X69302841Y-92524536D01*
X69401296Y-92448989D01*
X69412791Y-92440169D01*
X69484048Y-92410654D01*
X69560516Y-92420721D01*
X69594200Y-92440168D01*
X69674103Y-92501480D01*
X69683126Y-92505218D01*
X69683127Y-92505218D01*
X69715410Y-92518590D01*
X69820182Y-92561988D01*
X69829863Y-92563263D01*
X69829865Y-92563263D01*
X69967259Y-92581351D01*
X69976944Y-92582626D01*
X69986629Y-92581351D01*
X70124023Y-92563263D01*
X70124025Y-92563263D01*
X70133706Y-92561988D01*
X70238478Y-92518590D01*
X70270761Y-92505218D01*
X70270762Y-92505218D01*
X70279785Y-92501480D01*
X70405226Y-92405226D01*
X70501480Y-92279785D01*
X70528520Y-92214506D01*
X70558251Y-92142728D01*
X70561988Y-92133706D01*
X70565094Y-92110118D01*
X70581351Y-91986629D01*
X70582626Y-91976944D01*
X70566298Y-91852921D01*
X70563263Y-91829865D01*
X70563263Y-91829863D01*
X70561988Y-91820182D01*
X70508016Y-91689882D01*
X70505218Y-91683127D01*
X70505218Y-91683126D01*
X70501480Y-91674103D01*
X70495536Y-91666357D01*
X70495534Y-91666353D01*
X70475295Y-91639978D01*
X70445779Y-91568721D01*
X70455846Y-91492253D01*
X70502798Y-91431063D01*
X70574055Y-91401547D01*
X70656474Y-91414232D01*
X70730310Y-91448662D01*
X70751949Y-91454969D01*
X70785319Y-91459363D01*
X70795041Y-91460000D01*
X70830384Y-91460000D01*
X70845855Y-91455855D01*
X70850000Y-91440384D01*
X70850000Y-90979000D01*
X70869962Y-90904500D01*
X70924500Y-90849962D01*
X70999000Y-90830000D01*
X71001000Y-90830000D01*
X71075500Y-90849962D01*
X71130038Y-90904500D01*
X71150000Y-90979000D01*
X71150000Y-91440384D01*
X71154145Y-91455855D01*
X71169616Y-91460000D01*
X71204959Y-91460000D01*
X71214681Y-91459363D01*
X71248051Y-91454969D01*
X71269689Y-91448662D01*
X71356209Y-91408317D01*
X71364597Y-91402444D01*
X71437073Y-91376063D01*
X71513030Y-91389455D01*
X71557416Y-91425079D01*
X71558867Y-91423628D01*
X71565772Y-91430533D01*
X71571718Y-91438282D01*
X71697159Y-91534536D01*
X71706182Y-91538274D01*
X71706183Y-91538274D01*
X71786924Y-91571718D01*
X71843238Y-91595044D01*
X71852919Y-91596319D01*
X71852921Y-91596319D01*
X71990315Y-91614407D01*
X72000000Y-91615682D01*
X72009685Y-91614407D01*
X72147079Y-91596319D01*
X72147081Y-91596319D01*
X72156762Y-91595044D01*
X72213076Y-91571718D01*
X72293817Y-91538274D01*
X72293818Y-91538274D01*
X72302841Y-91534536D01*
X72428282Y-91438282D01*
X72434228Y-91430533D01*
X72441133Y-91423628D01*
X72442800Y-91425295D01*
X72492917Y-91386838D01*
X72569385Y-91376771D01*
X72635403Y-91402444D01*
X72643791Y-91408317D01*
X72730311Y-91448662D01*
X72751949Y-91454969D01*
X72785319Y-91459363D01*
X72795041Y-91460000D01*
X72830384Y-91460000D01*
X72845855Y-91455855D01*
X72850000Y-91440384D01*
X72850000Y-90979000D01*
X72869962Y-90904500D01*
X72924500Y-90849962D01*
X72999000Y-90830000D01*
X73001000Y-90830000D01*
X73075500Y-90849962D01*
X73130038Y-90904500D01*
X73150000Y-90979000D01*
X73150000Y-91440384D01*
X73154145Y-91455855D01*
X73169616Y-91460000D01*
X73204959Y-91460000D01*
X73214681Y-91459363D01*
X73248051Y-91454969D01*
X73269689Y-91448662D01*
X73356208Y-91408318D01*
X73377246Y-91393587D01*
X73377828Y-91393005D01*
X73379247Y-91392186D01*
X73387920Y-91386113D01*
X73388452Y-91386872D01*
X73444625Y-91354444D01*
X73521753Y-91354448D01*
X73588541Y-91393010D01*
X73619596Y-91424065D01*
X73726827Y-91474068D01*
X73746992Y-91476723D01*
X73770842Y-91479863D01*
X73770849Y-91479863D01*
X73775684Y-91480500D01*
X74224316Y-91480500D01*
X74229151Y-91479863D01*
X74229158Y-91479863D01*
X74253008Y-91476723D01*
X74273173Y-91474068D01*
X74380404Y-91424065D01*
X74464065Y-91340404D01*
X74469575Y-91328588D01*
X74469577Y-91328585D01*
X74500808Y-91261611D01*
X74550385Y-91202528D01*
X74622862Y-91176149D01*
X74698818Y-91189543D01*
X74757901Y-91239120D01*
X74770887Y-91261613D01*
X74791681Y-91306206D01*
X74806411Y-91327243D01*
X74872757Y-91393589D01*
X74893792Y-91408318D01*
X74980311Y-91448662D01*
X75001949Y-91454969D01*
X75035319Y-91459363D01*
X75045041Y-91460000D01*
X75080384Y-91460000D01*
X75095855Y-91455855D01*
X75100000Y-91440384D01*
X75100000Y-90979000D01*
X75119962Y-90904500D01*
X75174500Y-90849962D01*
X75249000Y-90830000D01*
X75251000Y-90830000D01*
X75325500Y-90849962D01*
X75380038Y-90904500D01*
X75400000Y-90979000D01*
X75400000Y-91440384D01*
X75404145Y-91455855D01*
X75419616Y-91460000D01*
X75454959Y-91460000D01*
X75464681Y-91459363D01*
X75498051Y-91454969D01*
X75519689Y-91448662D01*
X75606208Y-91408318D01*
X75627243Y-91393589D01*
X75693589Y-91327243D01*
X75708319Y-91306206D01*
X75729113Y-91261613D01*
X75778689Y-91202529D01*
X75851166Y-91176149D01*
X75927122Y-91189542D01*
X75986206Y-91239118D01*
X75999192Y-91261611D01*
X76030423Y-91328585D01*
X76030425Y-91328588D01*
X76035935Y-91340404D01*
X76065026Y-91369495D01*
X76103590Y-91436290D01*
X76103590Y-91513418D01*
X76070479Y-91570768D01*
X76071718Y-91571718D01*
X75995827Y-91670622D01*
X75975464Y-91697159D01*
X75914956Y-91843238D01*
X75894318Y-92000000D01*
X75895593Y-92009685D01*
X75911921Y-92133706D01*
X75914956Y-92156762D01*
X75918693Y-92165784D01*
X75969124Y-92287534D01*
X75975464Y-92302841D01*
X76071718Y-92428282D01*
X76197159Y-92524536D01*
X76343238Y-92585044D01*
X76352919Y-92586319D01*
X76352921Y-92586319D01*
X76490315Y-92604407D01*
X76500000Y-92605682D01*
X76509685Y-92604407D01*
X76620015Y-92589882D01*
X94469602Y-92589882D01*
X94489005Y-92687427D01*
X94519529Y-92761119D01*
X94523593Y-92767202D01*
X94523594Y-92767203D01*
X94569668Y-92836157D01*
X94574784Y-92843814D01*
X94631186Y-92900216D01*
X94637270Y-92904281D01*
X94637271Y-92904282D01*
X94652064Y-92914166D01*
X94713881Y-92955471D01*
X94787573Y-92985995D01*
X94860494Y-93000500D01*
X94885118Y-93005398D01*
X94964882Y-93005398D01*
X94968128Y-93004752D01*
X94974733Y-93004428D01*
X95725267Y-93004428D01*
X95731872Y-93004752D01*
X95735118Y-93005398D01*
X95814882Y-93005398D01*
X95822055Y-93003971D01*
X95822057Y-93003971D01*
X95905250Y-92987423D01*
X95905252Y-92987422D01*
X95912428Y-92985995D01*
X95919185Y-92983196D01*
X95919189Y-92983195D01*
X95979361Y-92958271D01*
X95979365Y-92958269D01*
X95986122Y-92955470D01*
X96047938Y-92914165D01*
X96068813Y-92900217D01*
X96125215Y-92843815D01*
X96127056Y-92841060D01*
X96131500Y-92836157D01*
X96461157Y-92506500D01*
X96466060Y-92502056D01*
X96468815Y-92500215D01*
X96525216Y-92443814D01*
X96551547Y-92404407D01*
X96576406Y-92367203D01*
X96576407Y-92367202D01*
X96580471Y-92361119D01*
X96589918Y-92338313D01*
X96608194Y-92294189D01*
X96610995Y-92287427D01*
X96625500Y-92214506D01*
X96630398Y-92189882D01*
X96630398Y-92110118D01*
X96629752Y-92106872D01*
X96629428Y-92100267D01*
X96629428Y-91699733D01*
X96629752Y-91693128D01*
X96630398Y-91689882D01*
X96630398Y-91610118D01*
X96625500Y-91585494D01*
X96617631Y-91545933D01*
X96612424Y-91519755D01*
X96612422Y-91519749D01*
X96610995Y-91512573D01*
X96608194Y-91505811D01*
X96608193Y-91505807D01*
X96583272Y-91445643D01*
X96583272Y-91445642D01*
X96580471Y-91438881D01*
X96565320Y-91416205D01*
X96529282Y-91362271D01*
X96529281Y-91362270D01*
X96525216Y-91356186D01*
X96468814Y-91299784D01*
X96442893Y-91282464D01*
X96392203Y-91248594D01*
X96392202Y-91248593D01*
X96386119Y-91244529D01*
X96373061Y-91239120D01*
X96349273Y-91229267D01*
X96312427Y-91214005D01*
X96214882Y-91194602D01*
X96135118Y-91194602D01*
X96131872Y-91195248D01*
X96125267Y-91195572D01*
X94974733Y-91195572D01*
X94968128Y-91195248D01*
X94964882Y-91194602D01*
X94885118Y-91194602D01*
X94877945Y-91196029D01*
X94877943Y-91196029D01*
X94860494Y-91199500D01*
X94794755Y-91212576D01*
X94794751Y-91212577D01*
X94787573Y-91214005D01*
X94780812Y-91216806D01*
X94780807Y-91216807D01*
X94720643Y-91241728D01*
X94713881Y-91244529D01*
X94707798Y-91248593D01*
X94707797Y-91248594D01*
X94657107Y-91282464D01*
X94631186Y-91299784D01*
X94574784Y-91356186D01*
X94570719Y-91362270D01*
X94570718Y-91362271D01*
X94534681Y-91416205D01*
X94519529Y-91438881D01*
X94516728Y-91445642D01*
X94516728Y-91445643D01*
X94509473Y-91463158D01*
X94489005Y-91512573D01*
X94469602Y-91610118D01*
X94469602Y-91689882D01*
X94470248Y-91693128D01*
X94470572Y-91699733D01*
X94470572Y-92500267D01*
X94470248Y-92506872D01*
X94469602Y-92510118D01*
X94469602Y-92589882D01*
X76620015Y-92589882D01*
X76647079Y-92586319D01*
X76647081Y-92586319D01*
X76656762Y-92585044D01*
X76802841Y-92524536D01*
X76928282Y-92428282D01*
X77024536Y-92302841D01*
X77030877Y-92287534D01*
X77081307Y-92165784D01*
X77085044Y-92156762D01*
X77088080Y-92133706D01*
X77104407Y-92009685D01*
X77105682Y-92000000D01*
X77085044Y-91843238D01*
X77067134Y-91800000D01*
X90144818Y-91800000D01*
X90165456Y-91956762D01*
X90225964Y-92102841D01*
X90322218Y-92228282D01*
X90447659Y-92324536D01*
X90456682Y-92328274D01*
X90456683Y-92328274D01*
X90519653Y-92354357D01*
X90593738Y-92385044D01*
X90603419Y-92386319D01*
X90603421Y-92386319D01*
X90740815Y-92404407D01*
X90750500Y-92405682D01*
X90760185Y-92404407D01*
X90897579Y-92386319D01*
X90897581Y-92386319D01*
X90907262Y-92385044D01*
X90981347Y-92354357D01*
X91044317Y-92328274D01*
X91044318Y-92328274D01*
X91053341Y-92324536D01*
X91178782Y-92228282D01*
X91212918Y-92183795D01*
X91274108Y-92136842D01*
X91331128Y-92125500D01*
X91819372Y-92125500D01*
X91893872Y-92145462D01*
X91937582Y-92183795D01*
X91971718Y-92228282D01*
X92097159Y-92324536D01*
X92106182Y-92328274D01*
X92106183Y-92328274D01*
X92169153Y-92354357D01*
X92243238Y-92385044D01*
X92252919Y-92386319D01*
X92252921Y-92386319D01*
X92390315Y-92404407D01*
X92400000Y-92405682D01*
X92409685Y-92404407D01*
X92547079Y-92386319D01*
X92547081Y-92386319D01*
X92556762Y-92385044D01*
X92630847Y-92354357D01*
X92693817Y-92328274D01*
X92693818Y-92328274D01*
X92702841Y-92324536D01*
X92828282Y-92228282D01*
X92924536Y-92102841D01*
X92985044Y-91956762D01*
X93005682Y-91800000D01*
X92991123Y-91689410D01*
X92986319Y-91652921D01*
X92986319Y-91652919D01*
X92985044Y-91643238D01*
X92968350Y-91602935D01*
X92928274Y-91506183D01*
X92928274Y-91506182D01*
X92924536Y-91497159D01*
X92828282Y-91371718D01*
X92702841Y-91275464D01*
X92628158Y-91244529D01*
X92565784Y-91218693D01*
X92556762Y-91214956D01*
X92547081Y-91213681D01*
X92547079Y-91213681D01*
X92409685Y-91195593D01*
X92400000Y-91194318D01*
X92390315Y-91195593D01*
X92252921Y-91213681D01*
X92252919Y-91213681D01*
X92243238Y-91214956D01*
X92234216Y-91218693D01*
X92171843Y-91244529D01*
X92097159Y-91275464D01*
X91971718Y-91371718D01*
X91965772Y-91379467D01*
X91937582Y-91416205D01*
X91876392Y-91463158D01*
X91819372Y-91474500D01*
X91331128Y-91474500D01*
X91256628Y-91454538D01*
X91212918Y-91416205D01*
X91184728Y-91379467D01*
X91178782Y-91371718D01*
X91053341Y-91275464D01*
X90978658Y-91244529D01*
X90916284Y-91218693D01*
X90907262Y-91214956D01*
X90897581Y-91213681D01*
X90897579Y-91213681D01*
X90760185Y-91195593D01*
X90750500Y-91194318D01*
X90740815Y-91195593D01*
X90603421Y-91213681D01*
X90603419Y-91213681D01*
X90593738Y-91214956D01*
X90584716Y-91218693D01*
X90522343Y-91244529D01*
X90447659Y-91275464D01*
X90322218Y-91371718D01*
X90225964Y-91497159D01*
X90222226Y-91506182D01*
X90222226Y-91506183D01*
X90182150Y-91602935D01*
X90165456Y-91643238D01*
X90164181Y-91652919D01*
X90164181Y-91652921D01*
X90159377Y-91689410D01*
X90144818Y-91800000D01*
X77067134Y-91800000D01*
X77024536Y-91697159D01*
X77004174Y-91670622D01*
X76928282Y-91571718D01*
X76929521Y-91570768D01*
X76896410Y-91513418D01*
X76896410Y-91436290D01*
X76934974Y-91369495D01*
X76964065Y-91340404D01*
X77014068Y-91233173D01*
X77017132Y-91209900D01*
X77019863Y-91189158D01*
X77019863Y-91189151D01*
X77020500Y-91184316D01*
X77020500Y-90835684D01*
X77019803Y-90830384D01*
X77015556Y-90798131D01*
X77014068Y-90786827D01*
X76964065Y-90679596D01*
X76889828Y-90605359D01*
X76851264Y-90538564D01*
X76851264Y-90461436D01*
X76889828Y-90394641D01*
X76964065Y-90320404D01*
X77014068Y-90213173D01*
X77016723Y-90193008D01*
X77019863Y-90169158D01*
X77019863Y-90169151D01*
X77020500Y-90164316D01*
X77020500Y-89991544D01*
X77040462Y-89917044D01*
X77064141Y-89886185D01*
X77285371Y-89664956D01*
X77540518Y-89409809D01*
X77550102Y-89401027D01*
X77568208Y-89385834D01*
X77578194Y-89377455D01*
X77596541Y-89345677D01*
X77603507Y-89334743D01*
X77624554Y-89304684D01*
X77627822Y-89292489D01*
X77628701Y-89290800D01*
X77629275Y-89288981D01*
X77635588Y-89278045D01*
X77641957Y-89241929D01*
X77644769Y-89229243D01*
X77650890Y-89206399D01*
X77650890Y-89206395D01*
X77654263Y-89193807D01*
X77653126Y-89180804D01*
X77651067Y-89157275D01*
X77650500Y-89144289D01*
X77650500Y-88750000D01*
X79819196Y-88750000D01*
X79840281Y-88883126D01*
X79901472Y-89003220D01*
X79996780Y-89098528D01*
X80007225Y-89103850D01*
X80067823Y-89134726D01*
X80116874Y-89159719D01*
X80250000Y-89180804D01*
X80383126Y-89159719D01*
X80467477Y-89116740D01*
X80535122Y-89100500D01*
X83543100Y-89100500D01*
X83617600Y-89120462D01*
X83648459Y-89144141D01*
X85014490Y-90510172D01*
X85022191Y-90519708D01*
X85022205Y-90519696D01*
X85030495Y-90528807D01*
X85037175Y-90539152D01*
X85046846Y-90546776D01*
X85046847Y-90546777D01*
X85061001Y-90557935D01*
X85065077Y-90561267D01*
X85068405Y-90564087D01*
X85072746Y-90568428D01*
X85077737Y-90571995D01*
X85077747Y-90572003D01*
X85086623Y-90578345D01*
X85092241Y-90582563D01*
X85119138Y-90603767D01*
X85119141Y-90603769D01*
X85128811Y-90611392D01*
X85136787Y-90614193D01*
X85143669Y-90619111D01*
X85155461Y-90622637D01*
X85155464Y-90622639D01*
X85188302Y-90632459D01*
X85194979Y-90634629D01*
X85230060Y-90646949D01*
X85230064Y-90646950D01*
X85238906Y-90650055D01*
X85244044Y-90650500D01*
X85247258Y-90650500D01*
X85248860Y-90650569D01*
X85255464Y-90652544D01*
X85267767Y-90652061D01*
X85267770Y-90652061D01*
X85304561Y-90650615D01*
X85310411Y-90650500D01*
X85538555Y-90650500D01*
X85613055Y-90670462D01*
X85656764Y-90708794D01*
X85671718Y-90728282D01*
X85797159Y-90824536D01*
X85806182Y-90828274D01*
X85806183Y-90828274D01*
X85934216Y-90881307D01*
X85943238Y-90885044D01*
X85952919Y-90886319D01*
X85952921Y-90886319D01*
X86090315Y-90904407D01*
X86100000Y-90905682D01*
X86109685Y-90904407D01*
X86247079Y-90886319D01*
X86247081Y-90886319D01*
X86256762Y-90885044D01*
X86265784Y-90881307D01*
X86393817Y-90828274D01*
X86393818Y-90828274D01*
X86402841Y-90824536D01*
X86528282Y-90728282D01*
X86624536Y-90602841D01*
X86632936Y-90582563D01*
X86681307Y-90465784D01*
X86685044Y-90456762D01*
X86686827Y-90443224D01*
X86704407Y-90309685D01*
X86705682Y-90300000D01*
X86701709Y-90269819D01*
X86686319Y-90152921D01*
X86686319Y-90152919D01*
X86685044Y-90143238D01*
X86673096Y-90114394D01*
X86628274Y-90006183D01*
X86628274Y-90006182D01*
X86624536Y-89997159D01*
X86528282Y-89871718D01*
X86402841Y-89775464D01*
X86296486Y-89731410D01*
X86265784Y-89718693D01*
X86256762Y-89714956D01*
X86247081Y-89713681D01*
X86247079Y-89713681D01*
X86109685Y-89695593D01*
X86100000Y-89694318D01*
X86090315Y-89695593D01*
X85952921Y-89713681D01*
X85952919Y-89713681D01*
X85943238Y-89714956D01*
X85934216Y-89718693D01*
X85903515Y-89731410D01*
X85797159Y-89775464D01*
X85671718Y-89871718D01*
X85665772Y-89879467D01*
X85665771Y-89879468D01*
X85656764Y-89891206D01*
X85595574Y-89938158D01*
X85538555Y-89949500D01*
X85506900Y-89949500D01*
X85432400Y-89929538D01*
X85401541Y-89905859D01*
X84035510Y-88539828D01*
X84027809Y-88530292D01*
X84027795Y-88530304D01*
X84019505Y-88521193D01*
X84012825Y-88510848D01*
X83988999Y-88492065D01*
X83984923Y-88488733D01*
X83981595Y-88485913D01*
X83977254Y-88481572D01*
X83972263Y-88478005D01*
X83972253Y-88477997D01*
X83963377Y-88471655D01*
X83957759Y-88467437D01*
X83930862Y-88446233D01*
X83930859Y-88446231D01*
X83921189Y-88438608D01*
X83913213Y-88435807D01*
X83906331Y-88430889D01*
X83894539Y-88427363D01*
X83894536Y-88427361D01*
X83861698Y-88417541D01*
X83855021Y-88415371D01*
X83819940Y-88403051D01*
X83819936Y-88403050D01*
X83811094Y-88399945D01*
X83805956Y-88399500D01*
X83802742Y-88399500D01*
X83801140Y-88399431D01*
X83794536Y-88397456D01*
X83782233Y-88397939D01*
X83782230Y-88397939D01*
X83745439Y-88399385D01*
X83739589Y-88399500D01*
X80535122Y-88399500D01*
X80467477Y-88383260D01*
X80393573Y-88345604D01*
X80383126Y-88340281D01*
X80250000Y-88319196D01*
X80116874Y-88340281D01*
X79996780Y-88401472D01*
X79901472Y-88496780D01*
X79840281Y-88616874D01*
X79819196Y-88750000D01*
X77650500Y-88750000D01*
X77650500Y-88180023D01*
X77651067Y-88167036D01*
X77653127Y-88143494D01*
X77653127Y-88143492D01*
X77654263Y-88130507D01*
X77644773Y-88095091D01*
X77641960Y-88082402D01*
X77637853Y-88059110D01*
X77637851Y-88059105D01*
X77635588Y-88046269D01*
X77629274Y-88035332D01*
X77628701Y-88033515D01*
X77627821Y-88031824D01*
X77624553Y-88019630D01*
X77603520Y-87989591D01*
X77596537Y-87978630D01*
X77584711Y-87958147D01*
X77578194Y-87946859D01*
X77568210Y-87938482D01*
X77568209Y-87938480D01*
X77550101Y-87923286D01*
X77540518Y-87914505D01*
X75610500Y-85984488D01*
X75601718Y-85974904D01*
X75586519Y-85956790D01*
X75586517Y-85956789D01*
X75578141Y-85946806D01*
X75546366Y-85928461D01*
X75535425Y-85921491D01*
X75505370Y-85900446D01*
X75493177Y-85897179D01*
X75491483Y-85896297D01*
X75489661Y-85895723D01*
X75478731Y-85889412D01*
X75465895Y-85887149D01*
X75465893Y-85887148D01*
X75442609Y-85883042D01*
X75429925Y-85880230D01*
X75394493Y-85870736D01*
X75381507Y-85871872D01*
X75381505Y-85871872D01*
X75357953Y-85873933D01*
X75344966Y-85874500D01*
X70365720Y-85874500D01*
X70352733Y-85873933D01*
X70329181Y-85871872D01*
X70329179Y-85871872D01*
X70316193Y-85870736D01*
X70280761Y-85880230D01*
X70268077Y-85883042D01*
X70244793Y-85887148D01*
X70244791Y-85887149D01*
X70231955Y-85889412D01*
X70221025Y-85895723D01*
X70219203Y-85896297D01*
X70217509Y-85897179D01*
X70205316Y-85900446D01*
X70175261Y-85921491D01*
X70164320Y-85928461D01*
X70132545Y-85946806D01*
X70124164Y-85956793D01*
X70124165Y-85956793D01*
X70108967Y-85974905D01*
X70100186Y-85984488D01*
X68878815Y-87205859D01*
X68812020Y-87244423D01*
X68773456Y-87249500D01*
X68355252Y-87249500D01*
X68348079Y-87250927D01*
X68348077Y-87250927D01*
X68311166Y-87258269D01*
X68311165Y-87258269D01*
X68296769Y-87261133D01*
X68284566Y-87269287D01*
X68284564Y-87269288D01*
X68258519Y-87286691D01*
X68230448Y-87305448D01*
X68186133Y-87371769D01*
X68174500Y-87430252D01*
X68174500Y-88669748D01*
X68186133Y-88728231D01*
X68230448Y-88794552D01*
X68242651Y-88802706D01*
X68282682Y-88829454D01*
X68296769Y-88838867D01*
X68311165Y-88841731D01*
X68311166Y-88841731D01*
X68348077Y-88849073D01*
X68348079Y-88849073D01*
X68355252Y-88850500D01*
X68545500Y-88850500D01*
X68620000Y-88870462D01*
X68674538Y-88925000D01*
X68694500Y-88999500D01*
X68694500Y-89472242D01*
X68674538Y-89546742D01*
X68650859Y-89577601D01*
X68596776Y-89631684D01*
X68546028Y-89740513D01*
X68544540Y-89751817D01*
X68541427Y-89775464D01*
X68539500Y-89790099D01*
X68539501Y-90209900D01*
X68546028Y-90259487D01*
X68596776Y-90368316D01*
X68605992Y-90377532D01*
X68607554Y-90379763D01*
X68633933Y-90452240D01*
X68634500Y-90465225D01*
X68634500Y-90472242D01*
X68614538Y-90546742D01*
X68590859Y-90577601D01*
X68585005Y-90583455D01*
X68518210Y-90622019D01*
X68441082Y-90622019D01*
X68374287Y-90583455D01*
X68347243Y-90556411D01*
X68326208Y-90541682D01*
X68239689Y-90501338D01*
X68218051Y-90495031D01*
X68184681Y-90490637D01*
X68174959Y-90490000D01*
X68169616Y-90490000D01*
X68154145Y-90494145D01*
X68150000Y-90509616D01*
X68150000Y-91490384D01*
X67850000Y-91490384D01*
X67850000Y-91169616D01*
X67845855Y-91154145D01*
X67830384Y-91150000D01*
X67539616Y-91150000D01*
X67524145Y-91154145D01*
X67520000Y-91169616D01*
X67520000Y-91204959D01*
X51450500Y-91204959D01*
X51450500Y-90830384D01*
X67520000Y-90830384D01*
X67524145Y-90845855D01*
X67539616Y-90850000D01*
X67830384Y-90850000D01*
X67845855Y-90845855D01*
X67850000Y-90830384D01*
X67850000Y-90509616D01*
X67845855Y-90494145D01*
X67830384Y-90490000D01*
X67825041Y-90490000D01*
X67815319Y-90490637D01*
X67781949Y-90495031D01*
X67760311Y-90501338D01*
X67673792Y-90541682D01*
X67652757Y-90556411D01*
X67586411Y-90622757D01*
X67571682Y-90643792D01*
X67531338Y-90730311D01*
X67525031Y-90751949D01*
X67520637Y-90785319D01*
X67520000Y-90795041D01*
X67520000Y-90830384D01*
X51450500Y-90830384D01*
X51450500Y-84869748D01*
X64999500Y-84869748D01*
X65011133Y-84928231D01*
X65019288Y-84940435D01*
X65019288Y-84940436D01*
X65047294Y-84982349D01*
X65055448Y-84994552D01*
X65121769Y-85038867D01*
X65136165Y-85041731D01*
X65136166Y-85041731D01*
X65173077Y-85049073D01*
X65173079Y-85049073D01*
X65180252Y-85050500D01*
X66519748Y-85050500D01*
X66526921Y-85049073D01*
X66526923Y-85049073D01*
X66563834Y-85041731D01*
X66563835Y-85041731D01*
X66578231Y-85038867D01*
X66644552Y-84994552D01*
X66652706Y-84982349D01*
X66680712Y-84940436D01*
X66680712Y-84940435D01*
X66688867Y-84928231D01*
X66700500Y-84869748D01*
X66700500Y-83030252D01*
X66695413Y-83004677D01*
X66694483Y-83000000D01*
X73319196Y-83000000D01*
X73340281Y-83133126D01*
X73401472Y-83253220D01*
X73496780Y-83348528D01*
X73616874Y-83409719D01*
X73750000Y-83430804D01*
X73883126Y-83409719D01*
X74003220Y-83348528D01*
X74098528Y-83253220D01*
X74134890Y-83181856D01*
X74186498Y-83124538D01*
X74259851Y-83100704D01*
X74267650Y-83100500D01*
X77150500Y-83100500D01*
X77225000Y-83120462D01*
X77279538Y-83175000D01*
X77299500Y-83249500D01*
X77299500Y-84869748D01*
X77311133Y-84928231D01*
X77319288Y-84940435D01*
X77319288Y-84940436D01*
X77347294Y-84982349D01*
X77355448Y-84994552D01*
X77421769Y-85038867D01*
X77436165Y-85041731D01*
X77436166Y-85041731D01*
X77473077Y-85049073D01*
X77473079Y-85049073D01*
X77480252Y-85050500D01*
X78819748Y-85050500D01*
X78826921Y-85049073D01*
X78826923Y-85049073D01*
X78863834Y-85041731D01*
X78863835Y-85041731D01*
X78878231Y-85038867D01*
X78944552Y-84994552D01*
X78952706Y-84982349D01*
X78980712Y-84940436D01*
X78980712Y-84940435D01*
X78988867Y-84928231D01*
X79000500Y-84869748D01*
X79000500Y-83249500D01*
X79020462Y-83175000D01*
X79075000Y-83120462D01*
X79149500Y-83100500D01*
X79982350Y-83100500D01*
X80056850Y-83120462D01*
X80111388Y-83175000D01*
X80115110Y-83181856D01*
X80151472Y-83253220D01*
X80246780Y-83348528D01*
X80366874Y-83409719D01*
X80500000Y-83430804D01*
X80633126Y-83409719D01*
X80753220Y-83348528D01*
X80848528Y-83253220D01*
X80909719Y-83133126D01*
X80930804Y-83000000D01*
X80909719Y-82866874D01*
X80900867Y-82849500D01*
X80853850Y-82757225D01*
X80848528Y-82746780D01*
X80753220Y-82651472D01*
X80633126Y-82590281D01*
X80500000Y-82569196D01*
X80488420Y-82571030D01*
X80440484Y-82578622D01*
X80388113Y-82577594D01*
X80362502Y-82572500D01*
X80336500Y-82567328D01*
X80322106Y-82570191D01*
X80319268Y-82570191D01*
X80295824Y-82572500D01*
X73954176Y-82572500D01*
X73930732Y-82570191D01*
X73927894Y-82570191D01*
X73913500Y-82567328D01*
X73899106Y-82570191D01*
X73887498Y-82572500D01*
X73887497Y-82572500D01*
X73861891Y-82577593D01*
X73809516Y-82578622D01*
X73761580Y-82571030D01*
X73750000Y-82569196D01*
X73616874Y-82590281D01*
X73496780Y-82651472D01*
X73401472Y-82746780D01*
X73396150Y-82757225D01*
X73349134Y-82849500D01*
X73340281Y-82866874D01*
X73319196Y-83000000D01*
X66694483Y-83000000D01*
X66691731Y-82986166D01*
X66691731Y-82986165D01*
X66688867Y-82971769D01*
X66644552Y-82905448D01*
X66632349Y-82897294D01*
X66590436Y-82869288D01*
X66590435Y-82869288D01*
X66578231Y-82861133D01*
X66563835Y-82858269D01*
X66563834Y-82858269D01*
X66526923Y-82850927D01*
X66526921Y-82850927D01*
X66519748Y-82849500D01*
X65180252Y-82849500D01*
X65173079Y-82850927D01*
X65173077Y-82850927D01*
X65136166Y-82858269D01*
X65136165Y-82858269D01*
X65121769Y-82861133D01*
X65109565Y-82869288D01*
X65109564Y-82869288D01*
X65067651Y-82897294D01*
X65055448Y-82905448D01*
X65011133Y-82971769D01*
X65008269Y-82986165D01*
X65008269Y-82986166D01*
X65004587Y-83004677D01*
X64999500Y-83030252D01*
X64999500Y-84869748D01*
X51450500Y-84869748D01*
X51450500Y-81750000D01*
X73319196Y-81750000D01*
X73340281Y-81883126D01*
X73401472Y-82003220D01*
X73496780Y-82098528D01*
X73616874Y-82159719D01*
X73750000Y-82180804D01*
X73883126Y-82159719D01*
X74003220Y-82098528D01*
X74044107Y-82057641D01*
X74110902Y-82019077D01*
X74149466Y-82014000D01*
X76050534Y-82014000D01*
X76125034Y-82033962D01*
X76155893Y-82057641D01*
X76196780Y-82098528D01*
X76316874Y-82159719D01*
X76450000Y-82180804D01*
X76583126Y-82159719D01*
X76703220Y-82098528D01*
X76798528Y-82003220D01*
X76859719Y-81883126D01*
X76880804Y-81750000D01*
X76859719Y-81616874D01*
X76798528Y-81496780D01*
X76703220Y-81401472D01*
X76583126Y-81340281D01*
X76450000Y-81319196D01*
X76316874Y-81340281D01*
X76196780Y-81401472D01*
X76155893Y-81442359D01*
X76089098Y-81480923D01*
X76050534Y-81486000D01*
X74149466Y-81486000D01*
X74074966Y-81466038D01*
X74044107Y-81442359D01*
X74003220Y-81401472D01*
X73883126Y-81340281D01*
X73750000Y-81319196D01*
X73616874Y-81340281D01*
X73496780Y-81401472D01*
X73401472Y-81496780D01*
X73340281Y-81616874D01*
X73319196Y-81750000D01*
X51450500Y-81750000D01*
X51450500Y-81000000D01*
X81569196Y-81000000D01*
X81590281Y-81133126D01*
X81651472Y-81253220D01*
X81746780Y-81348528D01*
X81866874Y-81409719D01*
X82000000Y-81430804D01*
X82133126Y-81409719D01*
X82253220Y-81348528D01*
X82348528Y-81253220D01*
X82409719Y-81133126D01*
X82411553Y-81121546D01*
X82411554Y-81121544D01*
X82414789Y-81101115D01*
X82446159Y-81030654D01*
X82508556Y-80985318D01*
X82585261Y-80977255D01*
X82655722Y-81008625D01*
X82667314Y-81019062D01*
X82746780Y-81098528D01*
X82757225Y-81103850D01*
X82812889Y-81132212D01*
X82866874Y-81159719D01*
X83000000Y-81180804D01*
X83133126Y-81159719D01*
X83187112Y-81132212D01*
X83242775Y-81103850D01*
X83253220Y-81098528D01*
X83294107Y-81057641D01*
X83360902Y-81019077D01*
X83399466Y-81014000D01*
X84125034Y-81014000D01*
X84199534Y-81033962D01*
X84230393Y-81057641D01*
X84271280Y-81098528D01*
X84281725Y-81103850D01*
X84337389Y-81132212D01*
X84391374Y-81159719D01*
X84524500Y-81180804D01*
X84657626Y-81159719D01*
X84711612Y-81132212D01*
X84767275Y-81103850D01*
X84777720Y-81098528D01*
X84873028Y-81003220D01*
X84934219Y-80883126D01*
X84942899Y-80828320D01*
X84974270Y-80757861D01*
X85036667Y-80712526D01*
X85066756Y-80704463D01*
X85145366Y-80692012D01*
X85188257Y-80685219D01*
X85308351Y-80624028D01*
X85403659Y-80528720D01*
X85464850Y-80408626D01*
X85485935Y-80275500D01*
X85464850Y-80142374D01*
X85439257Y-80092145D01*
X85423221Y-80016702D01*
X85447055Y-79943349D01*
X85504372Y-79891740D01*
X85572017Y-79875500D01*
X86250500Y-79875500D01*
X86325000Y-79895462D01*
X86379538Y-79950000D01*
X86399500Y-80024500D01*
X86399500Y-83467653D01*
X86379868Y-83540920D01*
X86375464Y-83546659D01*
X86314956Y-83692738D01*
X86313681Y-83702419D01*
X86313681Y-83702421D01*
X86306993Y-83753220D01*
X86294318Y-83849500D01*
X86314956Y-84006262D01*
X86318693Y-84015284D01*
X86353193Y-84098573D01*
X86375464Y-84152341D01*
X86471718Y-84277782D01*
X86597159Y-84374036D01*
X86606182Y-84377774D01*
X86606183Y-84377774D01*
X86648060Y-84395120D01*
X86743238Y-84434544D01*
X86752919Y-84435819D01*
X86752921Y-84435819D01*
X86890315Y-84453907D01*
X86900000Y-84455182D01*
X86909685Y-84453907D01*
X87047079Y-84435819D01*
X87047081Y-84435819D01*
X87056762Y-84434544D01*
X87151940Y-84395120D01*
X87193817Y-84377774D01*
X87193818Y-84377774D01*
X87202841Y-84374036D01*
X87210590Y-84368090D01*
X87219046Y-84363208D01*
X87219819Y-84364547D01*
X87281051Y-84339185D01*
X87357520Y-84349252D01*
X87418710Y-84396204D01*
X87448225Y-84467461D01*
X87449500Y-84486910D01*
X87449500Y-84637034D01*
X87429538Y-84711534D01*
X87416322Y-84728758D01*
X87416656Y-84729001D01*
X87409761Y-84738491D01*
X87401472Y-84746780D01*
X87340281Y-84866874D01*
X87319196Y-85000000D01*
X87340281Y-85133126D01*
X87401472Y-85253220D01*
X87496780Y-85348528D01*
X87616874Y-85409719D01*
X87750000Y-85430804D01*
X87883126Y-85409719D01*
X88003220Y-85348528D01*
X88098528Y-85253220D01*
X88127723Y-85195922D01*
X88179332Y-85138605D01*
X88252685Y-85114771D01*
X88328128Y-85130807D01*
X88378693Y-85172862D01*
X88421218Y-85228282D01*
X88428967Y-85234228D01*
X88490705Y-85281601D01*
X88537658Y-85342791D01*
X88549000Y-85399811D01*
X88549000Y-85617189D01*
X88529038Y-85691689D01*
X88490705Y-85735399D01*
X88421218Y-85788718D01*
X88324964Y-85914159D01*
X88321226Y-85923182D01*
X88321226Y-85923183D01*
X88299802Y-85974905D01*
X88264456Y-86060238D01*
X88263181Y-86069919D01*
X88263181Y-86069921D01*
X88248982Y-86177772D01*
X88243818Y-86217000D01*
X88264456Y-86373762D01*
X88268193Y-86382784D01*
X88289393Y-86433964D01*
X88324964Y-86519841D01*
X88421218Y-86645282D01*
X88546659Y-86741536D01*
X88692738Y-86802044D01*
X88702419Y-86803319D01*
X88702421Y-86803319D01*
X88839815Y-86821407D01*
X88849500Y-86822682D01*
X88859185Y-86821407D01*
X88996579Y-86803319D01*
X88996581Y-86803319D01*
X89006262Y-86802044D01*
X89152341Y-86741536D01*
X89277782Y-86645282D01*
X89374036Y-86519841D01*
X89409608Y-86433964D01*
X89430807Y-86382784D01*
X89434544Y-86373762D01*
X89455182Y-86217000D01*
X89450018Y-86177772D01*
X89435819Y-86069921D01*
X89435819Y-86069919D01*
X89434544Y-86060238D01*
X89399198Y-85974905D01*
X89377774Y-85923183D01*
X89377774Y-85923182D01*
X89374036Y-85914159D01*
X89277782Y-85788718D01*
X89208295Y-85735399D01*
X89161342Y-85674209D01*
X89150000Y-85617189D01*
X89150000Y-85399811D01*
X89169962Y-85325311D01*
X89208295Y-85281601D01*
X89270033Y-85234228D01*
X89277782Y-85228282D01*
X89374036Y-85102841D01*
X89396308Y-85049073D01*
X89430807Y-84965784D01*
X89434544Y-84956762D01*
X89436694Y-84940436D01*
X89453907Y-84809685D01*
X89455182Y-84800000D01*
X89449551Y-84757225D01*
X89435819Y-84652921D01*
X89435819Y-84652919D01*
X89434544Y-84643238D01*
X89374036Y-84497159D01*
X89277782Y-84371718D01*
X89152341Y-84275464D01*
X89139230Y-84270033D01*
X89015284Y-84218693D01*
X89006262Y-84214956D01*
X88996581Y-84213681D01*
X88996579Y-84213681D01*
X88859185Y-84195593D01*
X88849500Y-84194318D01*
X88839815Y-84195593D01*
X88702421Y-84213681D01*
X88702419Y-84213681D01*
X88692738Y-84214956D01*
X88683716Y-84218693D01*
X88559771Y-84270033D01*
X88546659Y-84275464D01*
X88421218Y-84371718D01*
X88324964Y-84497159D01*
X88324926Y-84497130D01*
X88273999Y-84548057D01*
X88199498Y-84568018D01*
X88124999Y-84548055D01*
X88070461Y-84493517D01*
X88050500Y-84419018D01*
X88050500Y-83298494D01*
X91030776Y-83298494D01*
X91051414Y-83455256D01*
X91055151Y-83464278D01*
X91095783Y-83562371D01*
X91111922Y-83601335D01*
X91208176Y-83726776D01*
X91333617Y-83823030D01*
X91342640Y-83826768D01*
X91342641Y-83826768D01*
X91397521Y-83849500D01*
X91479696Y-83883538D01*
X91489377Y-83884813D01*
X91489379Y-83884813D01*
X91626773Y-83902901D01*
X91636458Y-83904176D01*
X91646143Y-83902901D01*
X91783537Y-83884813D01*
X91783539Y-83884813D01*
X91793220Y-83883538D01*
X91875395Y-83849500D01*
X91930275Y-83826768D01*
X91930276Y-83826768D01*
X91939299Y-83823030D01*
X92064740Y-83726776D01*
X92118059Y-83657289D01*
X92179249Y-83610336D01*
X92236269Y-83598994D01*
X93481582Y-83598994D01*
X93556082Y-83618956D01*
X93614342Y-83680349D01*
X93634050Y-83719027D01*
X93651472Y-83753220D01*
X93746780Y-83848528D01*
X93866874Y-83909719D01*
X94000000Y-83930804D01*
X94133126Y-83909719D01*
X94253220Y-83848528D01*
X94348528Y-83753220D01*
X94409719Y-83633126D01*
X94430804Y-83500000D01*
X94409719Y-83366874D01*
X94348528Y-83246780D01*
X94253220Y-83151472D01*
X94194487Y-83121546D01*
X94143573Y-83095604D01*
X94133126Y-83090281D01*
X94034572Y-83074672D01*
X93978262Y-83053450D01*
X93971936Y-83049451D01*
X93961848Y-83040093D01*
X93949067Y-83034994D01*
X93941677Y-83030322D01*
X93933691Y-83026783D01*
X93922348Y-83019002D01*
X93900003Y-83013700D01*
X93879202Y-83007121D01*
X93857872Y-82998611D01*
X93851579Y-82997994D01*
X93847942Y-82997994D01*
X93844301Y-82997816D01*
X93844332Y-82997183D01*
X93840567Y-82996742D01*
X93840554Y-82997002D01*
X93826811Y-82996330D01*
X93813428Y-82993154D01*
X93799798Y-82995009D01*
X93787865Y-82996633D01*
X93767772Y-82997994D01*
X92236269Y-82997994D01*
X92161769Y-82978032D01*
X92118059Y-82939699D01*
X92070686Y-82877961D01*
X92064740Y-82870212D01*
X91939299Y-82773958D01*
X91874804Y-82747243D01*
X91802242Y-82717187D01*
X91793220Y-82713450D01*
X91783539Y-82712175D01*
X91783537Y-82712175D01*
X91646143Y-82694087D01*
X91636458Y-82692812D01*
X91626773Y-82694087D01*
X91489379Y-82712175D01*
X91489377Y-82712175D01*
X91479696Y-82713450D01*
X91470674Y-82717187D01*
X91398113Y-82747243D01*
X91333617Y-82773958D01*
X91208176Y-82870212D01*
X91111922Y-82995653D01*
X91108184Y-83004676D01*
X91108184Y-83004677D01*
X91096972Y-83031745D01*
X91051414Y-83141732D01*
X91050139Y-83151413D01*
X91050139Y-83151415D01*
X91037584Y-83246780D01*
X91030776Y-83298494D01*
X88050500Y-83298494D01*
X88050500Y-79434411D01*
X88070462Y-79359911D01*
X88125000Y-79305373D01*
X88199500Y-79285411D01*
X88267143Y-79301651D01*
X88366874Y-79352466D01*
X88500000Y-79373551D01*
X88633126Y-79352466D01*
X88753220Y-79291275D01*
X88848528Y-79195967D01*
X88909719Y-79075873D01*
X88930804Y-78942747D01*
X88909719Y-78809621D01*
X88866019Y-78723854D01*
X88853850Y-78699972D01*
X88848528Y-78689527D01*
X88840239Y-78681238D01*
X88833344Y-78671748D01*
X88835503Y-78670179D01*
X88805577Y-78618345D01*
X88800500Y-78579781D01*
X88800500Y-77862966D01*
X88820462Y-77788466D01*
X88833678Y-77771242D01*
X88833344Y-77770999D01*
X88840239Y-77761509D01*
X88848528Y-77753220D01*
X88909719Y-77633126D01*
X88930804Y-77500000D01*
X88909719Y-77366874D01*
X88848528Y-77246780D01*
X88753220Y-77151472D01*
X88633126Y-77090281D01*
X88500000Y-77069196D01*
X88366874Y-77090281D01*
X88246780Y-77151472D01*
X88151472Y-77246780D01*
X88090281Y-77366874D01*
X88069196Y-77500000D01*
X88090281Y-77633126D01*
X88151472Y-77753220D01*
X88159761Y-77761509D01*
X88166656Y-77770999D01*
X88164497Y-77772568D01*
X88194423Y-77824402D01*
X88199500Y-77862966D01*
X88199500Y-78255023D01*
X88179538Y-78329523D01*
X88125000Y-78384061D01*
X88050500Y-78404023D01*
X87982856Y-78387783D01*
X87886823Y-78338852D01*
X87886820Y-78338851D01*
X87876373Y-78333528D01*
X87743247Y-78312443D01*
X87610121Y-78333528D01*
X87599670Y-78338853D01*
X87595546Y-78340193D01*
X87518523Y-78344230D01*
X87449801Y-78309216D01*
X87407793Y-78244532D01*
X87400500Y-78198486D01*
X87400500Y-76581847D01*
X87420132Y-76508580D01*
X87424536Y-76502841D01*
X87485044Y-76356762D01*
X87488666Y-76329254D01*
X87493925Y-76289310D01*
X89419636Y-76289310D01*
X89443975Y-76422573D01*
X89449108Y-76432454D01*
X89449108Y-76432455D01*
X89501942Y-76534165D01*
X89506421Y-76542788D01*
X89510725Y-76547828D01*
X89730859Y-76767962D01*
X89769423Y-76834757D01*
X89774500Y-76873321D01*
X89774500Y-80789428D01*
X89773467Y-80806941D01*
X89769636Y-80839310D01*
X89771637Y-80850266D01*
X89771637Y-80850269D01*
X89780111Y-80896668D01*
X89780879Y-80901284D01*
X89789551Y-80958962D01*
X89792679Y-80965475D01*
X89793975Y-80972573D01*
X89815495Y-81014000D01*
X89820843Y-81024296D01*
X89822926Y-81028465D01*
X89848191Y-81081079D01*
X89853094Y-81086383D01*
X89856421Y-81092788D01*
X89860725Y-81097828D01*
X89897657Y-81134760D01*
X89901712Y-81138978D01*
X89921898Y-81160815D01*
X89940146Y-81180556D01*
X89946754Y-81184394D01*
X89951902Y-81189005D01*
X90505384Y-81742487D01*
X90586817Y-81802635D01*
X90714631Y-81847520D01*
X90788802Y-81850434D01*
X90838863Y-81852401D01*
X90838865Y-81852401D01*
X90849994Y-81852838D01*
X90870051Y-81847520D01*
X90970171Y-81820974D01*
X90970174Y-81820973D01*
X90980937Y-81818119D01*
X91095882Y-81746433D01*
X91184667Y-81644117D01*
X91191592Y-81628454D01*
X91234938Y-81530405D01*
X91239442Y-81520217D01*
X91255364Y-81385690D01*
X91231026Y-81252427D01*
X91193821Y-81180804D01*
X91172495Y-81139748D01*
X91172493Y-81139745D01*
X91168580Y-81132212D01*
X91164275Y-81127172D01*
X90719141Y-80682038D01*
X90680577Y-80615243D01*
X90675500Y-80576679D01*
X90675500Y-76660572D01*
X90676533Y-76643059D01*
X90676557Y-76642856D01*
X90680364Y-76610690D01*
X90678363Y-76599734D01*
X90678363Y-76599729D01*
X90669889Y-76553328D01*
X90669121Y-76548715D01*
X90662682Y-76505892D01*
X90660449Y-76491038D01*
X90657323Y-76484528D01*
X90656026Y-76477427D01*
X90629137Y-76425662D01*
X90627054Y-76421493D01*
X90621927Y-76410815D01*
X90601809Y-76368921D01*
X90596908Y-76363620D01*
X90593580Y-76357212D01*
X90589275Y-76352172D01*
X90552343Y-76315240D01*
X90548288Y-76311022D01*
X90517415Y-76277623D01*
X90517413Y-76277622D01*
X90509854Y-76269444D01*
X90503246Y-76265606D01*
X90498098Y-76260995D01*
X90169616Y-75932513D01*
X90088184Y-75872366D01*
X90031735Y-75852543D01*
X89970883Y-75831173D01*
X89970882Y-75831173D01*
X89960369Y-75827481D01*
X89882219Y-75824410D01*
X89836136Y-75822599D01*
X89836134Y-75822599D01*
X89825006Y-75822162D01*
X89791021Y-75831173D01*
X89704829Y-75854026D01*
X89704826Y-75854027D01*
X89694063Y-75856881D01*
X89579118Y-75928567D01*
X89490333Y-76030883D01*
X89435558Y-76154783D01*
X89419636Y-76289310D01*
X87493925Y-76289310D01*
X87504407Y-76209685D01*
X87505682Y-76200000D01*
X87497840Y-76140436D01*
X87486319Y-76052921D01*
X87486319Y-76052919D01*
X87485044Y-76043238D01*
X87424536Y-75897159D01*
X87328282Y-75771718D01*
X87202841Y-75675464D01*
X87192649Y-75671242D01*
X87065784Y-75618693D01*
X87056762Y-75614956D01*
X87047081Y-75613681D01*
X87047079Y-75613681D01*
X86909685Y-75595593D01*
X86900000Y-75594318D01*
X86890315Y-75595593D01*
X86752921Y-75613681D01*
X86752919Y-75613681D01*
X86743238Y-75614956D01*
X86734216Y-75618693D01*
X86607352Y-75671242D01*
X86597159Y-75675464D01*
X86471718Y-75771718D01*
X86375464Y-75897159D01*
X86314956Y-76043238D01*
X86313681Y-76052919D01*
X86313681Y-76052921D01*
X86302160Y-76140436D01*
X86294318Y-76200000D01*
X86295593Y-76209685D01*
X86311335Y-76329254D01*
X86314956Y-76356762D01*
X86375464Y-76502841D01*
X86379868Y-76508580D01*
X86399500Y-76581847D01*
X86399500Y-78825500D01*
X86379538Y-78900000D01*
X86325000Y-78954538D01*
X86250500Y-78974500D01*
X84792411Y-78974500D01*
X84717911Y-78954538D01*
X84663373Y-78900000D01*
X84643411Y-78825500D01*
X84661099Y-78764424D01*
X84658403Y-78763348D01*
X84660606Y-78757827D01*
X84665857Y-78747994D01*
X84666470Y-78745876D01*
X84668175Y-78743179D01*
X84671713Y-78735196D01*
X84679493Y-78723854D01*
X84682669Y-78710472D01*
X84682670Y-78710469D01*
X84684797Y-78701506D01*
X84691376Y-78680702D01*
X84695987Y-78669144D01*
X84695987Y-78669143D01*
X84699883Y-78659378D01*
X84700500Y-78653085D01*
X84700500Y-78649450D01*
X84700678Y-78645807D01*
X84701311Y-78645838D01*
X84701752Y-78642072D01*
X84701492Y-78642059D01*
X84702164Y-78628318D01*
X84705340Y-78614934D01*
X84701861Y-78589370D01*
X84700500Y-78569278D01*
X84700500Y-75762966D01*
X84720462Y-75688466D01*
X84733678Y-75671242D01*
X84733344Y-75670999D01*
X84740239Y-75661509D01*
X84748528Y-75653220D01*
X84766120Y-75618693D01*
X84804396Y-75543573D01*
X84809719Y-75533126D01*
X84830804Y-75400000D01*
X84809719Y-75266874D01*
X84748528Y-75146780D01*
X84653220Y-75051472D01*
X84533126Y-74990281D01*
X84400000Y-74969196D01*
X84266874Y-74990281D01*
X84146780Y-75051472D01*
X84051472Y-75146780D01*
X83990281Y-75266874D01*
X83969196Y-75400000D01*
X83990281Y-75533126D01*
X83995604Y-75543573D01*
X84033880Y-75618693D01*
X84051472Y-75653220D01*
X84059761Y-75661509D01*
X84066656Y-75670999D01*
X84064497Y-75672568D01*
X84094423Y-75724402D01*
X84099500Y-75762966D01*
X84099500Y-78282350D01*
X84079538Y-78356850D01*
X84025000Y-78411388D01*
X84018144Y-78415110D01*
X83946780Y-78451472D01*
X83851472Y-78546780D01*
X83790281Y-78666874D01*
X83769196Y-78800000D01*
X83771030Y-78811579D01*
X83771030Y-78823309D01*
X83767323Y-78823309D01*
X83761480Y-78878898D01*
X83716145Y-78941296D01*
X83645684Y-78972666D01*
X83622377Y-78974500D01*
X82723474Y-78974500D01*
X82674105Y-78966083D01*
X82645881Y-78956171D01*
X82645872Y-78956169D01*
X82635369Y-78952481D01*
X82572663Y-78950017D01*
X82511136Y-78947599D01*
X82511134Y-78947599D01*
X82500006Y-78947162D01*
X82458186Y-78958250D01*
X82379829Y-78979026D01*
X82379826Y-78979027D01*
X82369063Y-78981881D01*
X82254118Y-79053567D01*
X82165333Y-79155883D01*
X82160830Y-79166068D01*
X82160829Y-79166070D01*
X82132397Y-79230384D01*
X82110558Y-79279783D01*
X82094636Y-79414310D01*
X82118975Y-79547573D01*
X82181421Y-79667788D01*
X82185725Y-79672828D01*
X82231291Y-79718394D01*
X82242944Y-79731507D01*
X82263128Y-79757110D01*
X82272290Y-79763442D01*
X82272292Y-79763444D01*
X82311090Y-79790259D01*
X82314898Y-79792980D01*
X82352857Y-79821017D01*
X82361816Y-79827634D01*
X82368632Y-79830027D01*
X82374569Y-79834131D01*
X82385190Y-79837490D01*
X82430165Y-79851714D01*
X82434561Y-79853180D01*
X82459548Y-79861955D01*
X82523222Y-79905470D01*
X82556611Y-79974997D01*
X82550763Y-80051903D01*
X82534068Y-80085316D01*
X82529505Y-80092145D01*
X82527595Y-80095003D01*
X82509065Y-80117582D01*
X82099258Y-80527389D01*
X82032463Y-80565953D01*
X82003554Y-80569759D01*
X82000000Y-80569196D01*
X81866874Y-80590281D01*
X81746780Y-80651472D01*
X81651472Y-80746780D01*
X81590281Y-80866874D01*
X81569196Y-81000000D01*
X51450500Y-81000000D01*
X51450500Y-79399000D01*
X51470462Y-79324500D01*
X51525000Y-79269962D01*
X51599500Y-79250000D01*
X57750000Y-79250000D01*
X57750000Y-76069748D01*
X64999500Y-76069748D01*
X65011133Y-76128231D01*
X65055448Y-76194552D01*
X65121769Y-76238867D01*
X65136165Y-76241731D01*
X65136166Y-76241731D01*
X65173077Y-76249073D01*
X65173079Y-76249073D01*
X65180252Y-76250500D01*
X66519748Y-76250500D01*
X66526921Y-76249073D01*
X66526923Y-76249073D01*
X66563834Y-76241731D01*
X66563835Y-76241731D01*
X66578231Y-76238867D01*
X66644552Y-76194552D01*
X66688867Y-76128231D01*
X66700500Y-76069748D01*
X77299500Y-76069748D01*
X77311133Y-76128231D01*
X77355448Y-76194552D01*
X77421769Y-76238867D01*
X77436165Y-76241731D01*
X77436166Y-76241731D01*
X77473077Y-76249073D01*
X77473079Y-76249073D01*
X77480252Y-76250500D01*
X78819748Y-76250500D01*
X78826921Y-76249073D01*
X78826923Y-76249073D01*
X78863834Y-76241731D01*
X78863835Y-76241731D01*
X78878231Y-76238867D01*
X78944552Y-76194552D01*
X78988867Y-76128231D01*
X79000500Y-76069748D01*
X79000500Y-74230252D01*
X78988867Y-74171769D01*
X78944552Y-74105448D01*
X78878231Y-74061133D01*
X78863835Y-74058269D01*
X78863834Y-74058269D01*
X78826923Y-74050927D01*
X78826921Y-74050927D01*
X78819748Y-74049500D01*
X77480252Y-74049500D01*
X77473079Y-74050927D01*
X77473077Y-74050927D01*
X77436166Y-74058269D01*
X77436165Y-74058269D01*
X77421769Y-74061133D01*
X77355448Y-74105448D01*
X77311133Y-74171769D01*
X77299500Y-74230252D01*
X77299500Y-76069748D01*
X66700500Y-76069748D01*
X66700500Y-74230252D01*
X66688867Y-74171769D01*
X66644552Y-74105448D01*
X66578231Y-74061133D01*
X66563835Y-74058269D01*
X66563834Y-74058269D01*
X66526923Y-74050927D01*
X66526921Y-74050927D01*
X66519748Y-74049500D01*
X65180252Y-74049500D01*
X65173079Y-74050927D01*
X65173077Y-74050927D01*
X65136166Y-74058269D01*
X65136165Y-74058269D01*
X65121769Y-74061133D01*
X65055448Y-74105448D01*
X65011133Y-74171769D01*
X64999500Y-74230252D01*
X64999500Y-76069748D01*
X57750000Y-76069748D01*
X57750000Y-73849500D01*
X57769962Y-73775000D01*
X57824500Y-73720462D01*
X57899000Y-73700500D01*
X92351000Y-73700500D01*
X92425500Y-73720462D01*
G37*
%TD.AperFunction*%
%TD*%
M02*
