M48
; DRILL file {KiCad 6.0.11+dfsg-1} date Sat Nov 18 19:22:08 2023
; FORMAT={-:-/ absolute / inch / decimal}
; #@! TF.CreationDate,2023-11-18T19:22:08+05:30
; #@! TF.GenerationSoftware,Kicad,Pcbnew,6.0.11+dfsg-1
; #@! TF.FileFunction,Plated,1,2,PTH
FMAT,2
INCH
; #@! TA.AperFunction,Plated,PTH,ViaDrill
T1C0.0079
; #@! TA.AperFunction,Plated,PTH,ComponentDrill
T2C0.0079
; #@! TA.AperFunction,Plated,PTH,ViaDrill
T3C0.0098
; #@! TA.AperFunction,Plated,PTH,ViaDrill
T4C0.0157
; #@! TA.AperFunction,Plated,PTH,ComponentDrill
T5C0.0236
; #@! TA.AperFunction,Plated,PTH,ComponentDrill
T6C0.0256
; #@! TA.AperFunction,Plated,PTH,ComponentDrill
T7C0.0295
; #@! TA.AperFunction,Plated,PTH,ComponentDrill
T8C0.0394
%
G90
G05
T1
X2.6673Y-4.7343
X2.6673Y-4.7638
X2.6969Y-4.7343
X2.6969Y-4.7638
X2.7264Y-4.7343
X2.7264Y-4.7638
X2.7559Y-4.7343
X2.7559Y-4.7638
X2.7559Y-4.7933
X2.7559Y-4.8228
T2
X2.0571Y-2.9449
X2.0571Y-2.9803
X2.0571Y-3.0217
X2.0571Y-3.061
X2.1024Y-2.9449
X2.1457Y-2.9449
X2.1909Y-2.9449
T3
X2.0374Y-3.1299
X2.0374Y-3.1791
X2.0374Y-3.2283
X2.0374Y-3.2776
X2.0374Y-3.3268
X2.0374Y-3.4744
X2.0374Y-3.5138
X2.0374Y-3.5531
X2.0374Y-3.5925
X2.0374Y-3.6319
X2.0374Y-3.6713
X2.0374Y-3.8091
X2.0374Y-3.8484
X2.0374Y-3.8878
X2.0374Y-3.9272
X2.0374Y-3.9665
X2.0374Y-4.0059
X2.0374Y-4.0453
X2.0374Y-4.0846
X2.0374Y-4.124
X2.0374Y-4.1634
X2.0374Y-4.2028
X2.0374Y-4.2421
X2.0374Y-4.2815
X2.0374Y-4.3307
X2.0374Y-4.3898
X2.0374Y-4.8524
X2.0768Y-3.1299
X2.0768Y-3.3268
X2.0768Y-3.4744
X2.0768Y-3.5138
X2.0768Y-3.5531
X2.0768Y-3.5925
X2.0768Y-3.6319
X2.0768Y-3.6713
X2.0768Y-3.8878
X2.0768Y-3.9272
X2.0768Y-4.0059
X2.0768Y-4.0453
X2.0768Y-4.0846
X2.0768Y-4.124
X2.0768Y-4.1634
X2.0965Y-4.5079
X2.0965Y-4.7047
X2.1161Y-3.1299
X2.1161Y-3.3268
X2.1161Y-3.5925
X2.1161Y-3.6319
X2.1161Y-3.6713
X2.1161Y-4.0453
X2.1161Y-4.0846
X2.1161Y-4.124
X2.1161Y-4.4291
X2.1555Y-3.1299
X2.1555Y-3.3268
X2.1555Y-3.6319
X2.1555Y-3.6713
X2.1555Y-4.0453
X2.1555Y-4.0846
X2.1555Y-4.124
X2.1614Y-4.5
X2.1654Y-3.4744
X2.1654Y-3.5138
X2.1654Y-3.8091
X2.1654Y-3.8484
X2.1654Y-3.8878
X2.1654Y-3.9272
X2.1654Y-3.9665
X2.1811Y-4.8307
X2.1949Y-3.2776
X2.1949Y-3.3268
X2.1949Y-4.0453
X2.1949Y-4.0846
X2.1949Y-4.124
X2.1949Y-4.6063
X2.1969Y-4.7402
X2.2047Y-3.1299
X2.2047Y-3.189
X2.2047Y-3.4744
X2.2047Y-3.5138
X2.2047Y-3.5531
X2.2146Y-3.6713
X2.2146Y-3.7106
X2.2146Y-3.7697
X2.2146Y-3.8091
X2.2146Y-3.8484
X2.2146Y-3.8878
X2.2146Y-3.9272
X2.2146Y-3.9665
X2.2343Y-4.0453
X2.2343Y-4.0846
X2.2343Y-4.124
X2.2343Y-5.0394
X2.2402Y-4.4016
X2.2402Y-4.437
X2.2441Y-3.2776
X2.2441Y-3.3268
X2.2441Y-3.3563
X2.2441Y-3.3957
X2.2441Y-3.435
X2.2441Y-3.4744
X2.2441Y-3.5138
X2.2441Y-3.5531
X2.2441Y-3.5827
X2.2539Y-3.1299
X2.2539Y-3.189
X2.2539Y-3.6713
X2.2539Y-3.7303
X2.2539Y-3.8189
X2.2539Y-3.8976
X2.2539Y-3.9665
X2.2736Y-4.0453
X2.2736Y-4.0846
X2.2736Y-4.124
X2.2736Y-4.9803
X2.2835Y-2.9134
X2.2835Y-3.002
X2.2835Y-3.0413
X2.2835Y-3.0807
X2.2835Y-3.1201
X2.3031Y-3.2776
X2.3031Y-3.3268
X2.3031Y-3.3563
X2.3031Y-3.3957
X2.3031Y-3.435
X2.313Y-4.0453
X2.313Y-4.0846
X2.3228Y-4.378
X2.3327Y-2.9134
X2.3327Y-4.1732
X2.3327Y-4.2717
X2.3524Y-3.1988
X2.3524Y-3.2382
X2.3524Y-3.2776
X2.3524Y-3.3268
X2.3524Y-3.3563
X2.3524Y-3.3957
X2.3524Y-3.435
X2.3524Y-4.0453
X2.3622Y-4.685
X2.372Y-3.1201
X2.372Y-3.1594
X2.372Y-4.2421
X2.372Y-4.311
X2.372Y-4.3602
X2.372Y-4.4193
X2.3819Y-2.9134
X2.3819Y-2.9626
X2.3819Y-3.002
X2.3819Y-3.5433
X2.3819Y-3.6024
X2.3819Y-3.6614
X2.3819Y-4.9114
X2.4114Y-3.0807
X2.4114Y-3.1201
X2.4114Y-3.1594
X2.4114Y-3.1988
X2.4114Y-3.2382
X2.4114Y-3.2776
X2.4114Y-3.3268
X2.4114Y-3.3563
X2.4114Y-3.3957
X2.4114Y-3.435
X2.4114Y-4.0846
X2.4114Y-4.1732
X2.4114Y-4.2323
X2.4114Y-4.6063
X2.4213Y-3.4843
X2.4311Y-2.9134
X2.4311Y-2.9626
X2.4311Y-3.002
X2.4311Y-4.311
X2.4311Y-4.3602
X2.4409Y-3.6614
X2.4508Y-4.5374
X2.4508Y-4.6063
X2.4606Y-3.0807
X2.4606Y-3.1201
X2.4606Y-3.1594
X2.4606Y-3.1988
X2.4606Y-3.2382
X2.4606Y-3.2776
X2.4606Y-3.3268
X2.4606Y-3.6024
X2.4606Y-3.9961
X2.4705Y-3.4744
X2.4705Y-4.5079
X2.4803Y-2.9134
X2.4803Y-2.9626
X2.4803Y-4.5669
X2.4803Y-4.7047
X2.5Y-4.3602
X2.5098Y-3.3563
X2.5197Y-3.0413
X2.5197Y-3.0807
X2.5197Y-3.1201
X2.5197Y-3.1594
X2.5197Y-3.1988
X2.5197Y-3.2382
X2.5197Y-3.2776
X2.5197Y-3.3169
X2.5197Y-3.937
X2.5197Y-3.9961
X2.5197Y-4.5177
X2.5295Y-2.9134
X2.5394Y-3.6811
X2.5394Y-4.4606
X2.5689Y-4.6358
X2.5689Y-4.7047
X2.5886Y-3.4744
X2.5886Y-3.6319
X2.5984Y-3.8878
X2.5984Y-3.937
X2.5984Y-3.9961
X2.6378Y-2.9134
X2.6378Y-2.9528
X2.6378Y-3.0315
X2.6378Y-3.1102
X2.6378Y-3.189
X2.6476Y-4.4783
X2.6575Y-3.8189
X2.6772Y-3.9961
X2.6853Y-4.4766
X2.7081Y-4.5261
X2.7165Y-2.9134
X2.7165Y-2.9528
X2.7165Y-3.0315
X2.7165Y-3.1102
X2.7165Y-3.189
X2.7165Y-3.6614
X2.7165Y-3.878
X2.7264Y-4.498
X2.7264Y-4.5472
X2.7362Y-4.4569
X2.7362Y-4.4094
X2.7559Y-3.9961
X2.7854Y-4.4094
X2.7854Y-4.4882
X2.7953Y-2.9134
X2.7953Y-2.9528
X2.7953Y-3.0315
X2.7953Y-3.1102
X2.7953Y-3.189
X2.7953Y-4.3209
X2.8051Y-4.5866
X2.8248Y-3.9961
X2.8248Y-4.0551
X2.8248Y-4.1437
X2.8346Y-4.4094
X2.8543Y-3.6417
X2.8543Y-3.75
X2.8543Y-4.5866
X2.8642Y-4.5276
X2.874Y-2.9134
X2.874Y-2.9528
X2.874Y-3.0315
X2.874Y-3.1102
X2.874Y-3.189
X2.8839Y-4.3602
X2.8839Y-4.4094
X2.9035Y-3.2185
X2.9035Y-3.2677
X2.9035Y-4.0551
X2.9035Y-4.1437
X2.9035Y-4.5866
X2.9331Y-4.3602
X2.9331Y-4.4094
X2.9528Y-2.9134
X2.9528Y-4.5276
X2.9724Y-4.0551
X2.9724Y-4.1437
X2.9823Y-4.4094
X2.9921Y-3.6516
X2.9921Y-3.7106
X3.002Y-4.3209
X3.0098Y-3.2185
X3.0118Y-3.0413
X3.0118Y-3.1299
X3.0118Y-3.1791
X3.0217Y-3.2874
X3.0217Y-3.3465
X3.0217Y-3.4055
X3.0217Y-4.5276
X3.0315Y-2.9134
X3.0315Y-4.4094
X3.0512Y-3.435
X3.061Y-3.1791
X3.061Y-3.7598
X3.061Y-4.1437
X3.061Y-4.1929
X3.061Y-4.2421
X3.061Y-4.3012
X3.061Y-4.3504
X3.0807Y-3.5236
X3.0807Y-3.622
X3.0807Y-3.6614
X3.0827Y-4.6142
X3.0906Y-3.376
X3.0906Y-4.0551
X3.0906Y-4.1043
X3.0906Y-4.5276
X3.1004Y-3.1791
X3.1004Y-4.4882
X3.1004Y-4.7933
X3.1004Y-4.8524
X3.1004Y-4.9114
X3.1004Y-4.9705
X3.1004Y-5.0394
X3.1024Y-4.7126
X3.1102Y-3.5236
X3.1201Y-3.7205
X3.1201Y-4.2126
X3.1201Y-4.3406
X3.1299Y-3.2382
X3.1299Y-3.3071
X3.1496Y-2.9134
X3.1496Y-3.5827
X3.1496Y-4.124
X3.1496Y-4.1732
X3.1496Y-4.439
X3.1594Y-3.4055
X3.1594Y-3.4941
X3.1693Y-3.1791
X3.1693Y-3.2677
X3.1693Y-3.7894
X3.1693Y-4.7165
X3.1693Y-5.0394
X3.1791Y-3.6516
X3.1791Y-4.6161
X3.1811Y-3.7126
X3.189Y-3.1594
X3.189Y-3.4547
X3.189Y-4.7933
X3.1969Y-4.7165
X3.1988Y-3.2382
X3.1988Y-4.2224
X3.1988Y-4.2717
X3.2087Y-4.3799
X3.2087Y-4.4193
X3.2087Y-4.4587
X3.2087Y-4.5906
X3.2283Y-3.189
X3.2283Y-3.3661
X3.248Y-3.0413
X3.248Y-3.0906
X3.248Y-4.0846
X3.248Y-4.1732
X3.248Y-5.0394
X3.25Y-3.126
X3.2677Y-3.1791
X3.2677Y-3.4055
X3.2677Y-3.4547
X3.2677Y-3.5236
X3.2677Y-3.6122
X3.2677Y-4.7933
X3.2677Y-4.8622
X3.2874Y-4.5079
X3.2972Y-2.9528
X3.2972Y-3.0413
X3.2972Y-4.8228
X3.3071Y-4.1929
X3.315Y-3.1024
X3.3169Y-4.0846
X3.3228Y-2.9685
X3.3268Y-5.0394
X3.3277Y-3.1791
X3.3366Y-2.9134
X3.3465Y-3.0709
X3.3465Y-3.0984
X3.3465Y-4.2421
X3.3486Y-3.1605
X3.3504Y-3.5945
X3.3504Y-3.6535
X3.3504Y-3.7677
X3.3563Y-3.376
X3.3563Y-3.4646
X3.3563Y-3.5039
X3.3661Y-4.5906
X3.376Y-2.9528
X3.378Y-4.4882
X3.3858Y-3.1988
X3.3858Y-3.2559
X3.3858Y-3.3071
X3.3858Y-3.3563
X3.3858Y-3.4843
X3.3858Y-4.1929
X3.3898Y-3.0984
X3.4016Y-4.8543
X3.4055Y-5.0394
X3.4213Y-4.7933
X3.4252Y-2.9528
X3.4545Y-3.1001
X3.4547Y-3.3465
X3.4547Y-3.4843
X3.4547Y-3.5335
X3.4843Y-3.0512
X3.4843Y-3.108
X3.4843Y-3.1496
X3.4843Y-3.9567
X3.4843Y-4.7933
X3.4843Y-4.9409
X3.4843Y-5.0394
X3.4941Y-3.2874
X3.5197Y-3.0512
X3.5236Y-3.1398
X3.5236Y-3.5335
X3.5335Y-4.065
X3.5384Y-3.003
X3.563Y-2.9232
X3.563Y-3.7598
X3.563Y-5.0394
X3.5728Y-3.4646
X3.5728Y-3.6516
X3.5728Y-3.6811
X3.5728Y-3.9961
X3.5728Y-4.065
X3.5748Y-3.2047
X3.5827Y-3.1496
X3.5827Y-4.5965
X3.5925Y-3.0413
X3.6122Y-2.9232
X3.6122Y-3.5138
X3.622Y-3.1102
X3.622Y-3.189
X3.6417Y-3.5728
X3.6417Y-5.0394
X3.6474Y-3.0165
X3.6516Y-4.5472
X3.6516Y-4.5965
X3.6516Y-4.6555
X3.6614Y-3.3661
X3.6614Y-4.872
X3.6713Y-3.5138
X3.6713Y-3.7697
X3.6713Y-4.498
X3.7008Y-3.2874
X3.7205Y-5.0394
X3.7303Y-3.7992
X3.7402Y-3.2776
X3.7402Y-3.3858
X3.7402Y-3.5138
X3.7402Y-3.563
X3.75Y-4.5669
X3.75Y-4.8917
X3.7598Y-3.9075
X3.7598Y-3.9469
X3.7795Y-3.7992
X3.8091Y-3.9075
X3.8091Y-3.9469
X3.8091Y-5.0394
X3.8189Y-4.626
X3.8287Y-3.5138
X3.8287Y-3.563
X3.8287Y-3.5925
X3.8287Y-3.7402
X3.8346Y-4.8622
X3.8524Y-3.4705
X3.8583Y-3.9075
X3.8583Y-3.9469
X3.8583Y-4.626
X3.8681Y-3.7402
X3.878Y-5.0394
X3.8976Y-3.4843
X3.9075Y-4.6949
X3.9173Y-3.8484
X3.9272Y-3.2677
X3.9272Y-3.5728
X3.9469Y-3.5925
X3.9665Y-4.6949
X3.9665Y-4.7441
X3.9665Y-4.7933
X3.9665Y-4.8524
X3.9665Y-4.9114
X3.9665Y-4.9705
X3.9665Y-5.0394
T4
X2.0669Y-4.2953
X2.1496Y-4.4094
X2.3524Y-4.813
X2.3543Y-4.5079
X2.3543Y-4.5472
X2.3543Y-4.7362
X2.3543Y-4.7756
X2.378Y-5.0276
X2.3937Y-3.7835
X2.3937Y-3.8465
X2.3976Y-3.9646
X2.437Y-3.9213
X2.437Y-4.8661
X2.437Y-4.9055
X2.437Y-5.0098
X2.4764Y-4.9409
X2.4803Y-3.7835
X2.4803Y-3.8465
X2.5236Y-4.9409
X2.5354Y-3.8268
X2.5354Y-4.815
X2.563Y-4.9094
X2.5678Y-3.8574
X2.5945Y-3.7717
X2.6043Y-4.9469
X2.6185Y-5.0279
X2.6673Y-3.3071
X2.7165Y-3.622
X2.7201Y-3.7057
X2.7362Y-3.3071
X2.755Y-3.6211
X2.7677Y-5.0157
X2.7766Y-3.7874
X2.7766Y-3.8248
X2.8031Y-3.8898
X2.8051Y-3.3071
X2.8071Y-4.8386
X2.8346Y-3.5831
X2.8425Y-3.8898
X2.8425Y-3.9311
X2.8425Y-3.9685
X2.8445Y-4.7539
X2.874Y-3.3071
X2.874Y-3.3543
X2.874Y-4.874
X2.8839Y-4.7539
X2.9134Y-3.4252
X2.9449Y-4.9882
X2.9528Y-3.3543
X2.9823Y-4.9114
X2.9823Y-4.9508
X3.002Y-3.4902
X3.0118Y-3.622
X3.0315Y-5.0157
X3.1102Y-3.8977
X3.1102Y-3.937
X3.1102Y-3.8189
X3.1102Y-3.9764
X3.1102Y-4.0157
X3.1104Y-3.8581
X3.2891Y-4.0534
X3.2992Y-3.9685
X3.3102Y-4.3484
X3.3465Y-4.1142
X3.3825Y-4.2396
X3.3898Y-3.5551
X3.3937Y-3.8937
X3.3937Y-4.0236
X3.4055Y-4.6949
X3.4213Y-3.0
X3.4213Y-3.3012
X3.4843Y-4.3307
X3.4843Y-4.3898
X3.498Y-3.3386
X3.498Y-3.3944
X3.5354Y-3.8031
X3.5531Y-4.3307
X3.5531Y-4.3898
X3.5729Y-3.6142
X3.5748Y-3.3661
X3.5748Y-3.7165
X3.6077Y-3.2795
X3.6378Y-3.6142
X3.6397Y-3.7179
X3.6811Y-3.8071
X3.7677Y-4.4567
X3.8681Y-4.189
X3.8681Y-4.2717
X3.8702Y-3.8579
X3.8774Y-4.5729
X3.8878Y-4.4094
X3.8976Y-3.5531
X3.9055Y-4.5984
X3.9061Y-4.5421
X3.9075Y-4.2717
T6
X3.8583Y-3.9862
X3.8583Y-4.0362
X3.8583Y-4.0862
X3.8583Y-4.1362
T7
X3.1713Y-4.9104
X3.2303Y-4.8317
X3.2894Y-4.9104
X3.3484Y-4.8317
X3.5748Y-4.9104
X3.6339Y-4.8317
X3.6929Y-4.9104
X3.752Y-4.8317
X3.7618Y-3.626
X3.7618Y-3.7441
X3.811Y-4.9104
X3.8406Y-3.685
X3.8406Y-3.8031
X3.8701Y-4.8317
T8
X2.1378Y-4.2815
X2.2362Y-4.2815
T5
G00X2.1352Y-4.4692
M15
G01X2.1037Y-4.4692
M16
G05
G00X2.1352Y-4.8094
M15
G01X2.1037Y-4.8094
M16
G05
G00X2.3057Y-4.4692
M15
G01X2.2624Y-4.4692
M16
G05
G00X2.3057Y-4.8094
M15
G01X2.2624Y-4.8094
M16
G05
T0
M30
